<?xml version="1.0" encoding="UTF-8" standalone="no"?>
<!-- Created with Inkscape (http://www.inkscape.org/) -->

<svg
   xmlns:dc="http://purl.org/dc/elements/1.1/"
   xmlns:cc="http://creativecommons.org/ns#"
   xmlns:rdf="http://www.w3.org/1999/02/22-rdf-syntax-ns#"
   xmlns:svg="http://www.w3.org/2000/svg"
   xmlns="http://www.w3.org/2000/svg"
   xmlns:sodipodi="http://sodipodi.sourceforge.net/DTD/sodipodi-0.dtd"
   xmlns:inkscape="http://www.inkscape.org/namespaces/inkscape"
   version="1.1"
   id="svg2"
   xml:space="preserve"
   width="500"
   height="100"
   viewBox="0 0 500.00002 99.999997"
   sodipodi:docname="islands-logo.svg"
   inkscape:version="0.92.4 (5da689c313, 2019-01-14)"><metadata
     id="metadata8"><rdf:RDF><cc:Work
         rdf:about=""><dc:format>image/svg+xml</dc:format><dc:type
           rdf:resource="http://purl.org/dc/dcmitype/StillImage" /><dc:title></dc:title></cc:Work></rdf:RDF></metadata><defs
     id="defs6" /><sodipodi:namedview
     pagecolor="#ffffff"
     bordercolor="#666666"
     borderopacity="1"
     objecttolerance="10"
     gridtolerance="10"
     guidetolerance="10"
     inkscape:pageopacity="0"
     inkscape:pageshadow="2"
     inkscape:window-width="1920"
     inkscape:window-height="1060"
     id="namedview4"
     showgrid="false"
     inkscape:zoom="7.2948908"
     inkscape:cx="412.14488"
     inkscape:cy="30.276393"
     inkscape:window-x="0"
     inkscape:window-y="0"
     inkscape:window-maximized="1"
     inkscape:current-layer="g10"
     fit-margin-top="0"
     fit-margin-left="0"
     fit-margin-right="0"
     fit-margin-bottom="0"
     units="px"
     width="600mm" /><g
     id="g10"
     inkscape:groupmode="layer"
     inkscape:label="ink_ext_XXXXXX"
     transform="matrix(1.3333333,0,0,-1.3333333,-244.3797,98.38189)"><path
       inkscape:connector-curvature="0"
       id="path857"
       style="font-style:normal;font-variant:normal;font-weight:bold;font-stretch:normal;font-size:31.99999809px;font-family:Ubuntu;-inkscape-font-specification:'Ubuntu Bold';writing-mode:lr-tb;fill:#f8c723;fill-opacity:1;fill-rule:nonzero;stroke:none;stroke-width:1.18195665"
       d="m 261.66011,34.314682 h 5.90033 V 8.1036102 h -5.90033 z" /><path
       inkscape:connector-curvature="0"
       id="path859"
       style="font-style:normal;font-variant:normal;font-weight:bold;font-stretch:normal;font-size:31.99999809px;font-family:Ubuntu;-inkscape-font-specification:'Ubuntu Bold';writing-mode:lr-tb;fill:#f8c723;fill-opacity:1;fill-rule:nonzero;stroke:none;stroke-width:1.18195665"
       d="m 282.32327,12.604501 q 1.24814,0 2.04242,0.189113 0.83209,0.226936 1.32379,0.56734 0.49169,0.378226 0.68081,0.86992 0.18911,0.491694 0.18911,1.096856 0,1.285968 -1.21032,2.118066 -1.21033,0.86992 -4.16049,1.853308 -1.28597,0.453871 -2.57194,1.021211 -1.28597,0.605161 -2.30718,1.475082 -1.02121,0.907742 -1.66419,2.155889 -0.64299,1.285969 -0.64299,3.101454 0,1.815485 0.68081,3.252745 0.6808,1.475082 1.92895,2.496292 1.24815,1.021211 3.02581,1.550728 1.77766,0.567339 4.0092,0.567339 2.64758,0 4.57653,-0.567339 1.92896,-0.56734 3.1771,-1.248147 l -1.70201,-4.652181 q -1.09686,0.567339 -2.45847,0.983388 -1.3238,0.453871 -3.21493,0.453871 -2.11806,0 -3.06363,-0.605162 -0.90774,-0.567339 -0.90774,-1.777663 0,-0.718629 0.3404,-1.210323 0.34041,-0.491694 0.94557,-0.907743 0.64298,-0.378226 1.43726,-0.71863 0.83209,-0.302581 1.81548,-0.642984 2.04242,-0.756452 3.55533,-1.512905 1.5129,-0.718629 2.49629,-1.702017 1.02121,-0.983388 1.51291,-2.30718 0.49169,-1.323791 0.49169,-3.214922 0,-3.668794 -2.57194,-5.7112149 -2.57194,-2.0045985 -7.75363,-2.0045985 -1.73984,0 -3.13928,0.2269357 -1.39944,0.189113 -2.49629,0.491694 -1.05904,0.3025809 -1.85331,0.6429844 -0.75645,0.3404035 -1.28597,0.6429844 l 1.66419,4.6900039 q 1.17251,-0.642984 2.87452,-1.172501 1.73984,-0.491694 4.23614,-0.491694 z" /><path
       inkscape:connector-curvature="0"
       id="path861"
       style="font-style:normal;font-variant:normal;font-weight:bold;font-stretch:normal;font-size:31.99999809px;font-family:Ubuntu;-inkscape-font-specification:'Ubuntu Bold';writing-mode:lr-tb;fill:#f8c723;fill-opacity:1;fill-rule:nonzero;stroke:none;stroke-width:1.18195665"
       d="M 317.91437,13.171841 V 8.1036102 H 300.4025 V 34.314682 h 5.90033 V 13.171841 Z" /><path
       inkscape:connector-curvature="0"
       id="path863"
       style="font-style:normal;font-variant:normal;font-weight:bold;font-stretch:normal;font-size:31.99999809px;font-family:Ubuntu;-inkscape-font-specification:'Ubuntu Bold';writing-mode:lr-tb;fill:#f8c723;fill-opacity:1;fill-rule:nonzero;stroke:none;stroke-width:1.18195665"
       d="m 342.56181,8.1036102 q -0.41605,1.3616141 -0.94557,2.7988738 -0.49168,1.437259 -0.98337,2.874518 h -10.21211 q -0.49169,-1.437259 -1.02121,-2.874518 -0.49169,-1.4372597 -0.90774,-2.7988738 h -6.12727 q 1.47509,4.2361328 2.79888,7.8292808 1.32379,3.593149 2.57193,6.770248 1.28597,3.1771 2.4963,6.013796 1.24814,2.874519 2.57193,5.597747 h 5.63557 q 1.28597,-2.723228 2.53412,-5.597747 1.24813,-2.836696 2.49628,-6.013796 1.28597,-3.177099 2.60976,-6.770248 1.32379,-3.593148 2.79887,-7.8292808 z m -7.07282,20.2729218 q -0.18911,-0.56734 -0.56734,-1.550728 -0.37823,-0.983388 -0.86992,-2.269357 -0.49169,-1.285968 -1.09685,-2.836696 -0.56734,-1.550727 -1.17251,-3.252744 h 7.45106 q -0.60516,1.702017 -1.1725,3.252744 -0.56734,1.550728 -1.09686,2.836696 -0.49169,1.285969 -0.86992,2.269357 -0.37822,0.983388 -0.60516,1.550728 z" /><path
       inkscape:connector-curvature="0"
       id="path865"
       style="font-style:normal;font-variant:normal;font-weight:bold;font-stretch:normal;font-size:31.99999809px;font-family:Ubuntu;-inkscape-font-specification:'Ubuntu Bold';writing-mode:lr-tb;fill:#f8c723;fill-opacity:1;fill-rule:nonzero;stroke:none;stroke-width:1.18195665"
       d="m 371.40754,8.1036102 q -2.53411,4.5008908 -5.48428,8.8883148 -2.95016,4.387423 -6.27855,8.283152 V 8.1036102 h -5.82468 V 34.314682 h 4.80347 q 1.24815,-1.248146 2.76105,-3.063632 1.51291,-1.815485 3.06363,-3.895729 1.58855,-2.042421 3.13928,-4.273956 1.55073,-2.193711 2.91234,-4.236132 v 15.469449 h 5.86251 V 8.1036102 Z" /><path
       inkscape:connector-curvature="0"
       id="path867"
       style="font-style:normal;font-variant:normal;font-weight:bold;font-stretch:normal;font-size:31.99999809px;font-family:Ubuntu;-inkscape-font-specification:'Ubuntu Bold';writing-mode:lr-tb;fill:#f8c723;fill-opacity:1;fill-rule:nonzero;stroke:none;stroke-width:1.18195665"
       d="m 388.52829,12.907082 q 0.41605,-0.03782 0.94557,-0.07565 0.56734,0 1.32379,0 4.42525,0 6.54331,2.231534 2.15589,2.231534 2.15589,6.165086 0,4.122665 -2.04242,6.240732 -2.04242,2.118066 -6.46767,2.118066 -0.60516,0 -1.24814,-0.03782 -0.64299,0 -1.21033,-0.07565 z m 17.058,8.320975 q 0,-3.404035 -1.05903,-5.93815 -1.05903,-2.534115 -3.02581,-4.19831 -1.92895,-1.6641953 -4.72783,-2.4962928 -2.79887,-0.8320975 -6.27855,-0.8320975 -1.58855,0 -3.70662,0.1512904 -2.11806,0.1134679 -4.16049,0.5295166 V 33.974278 q 2.04243,0.378227 4.23614,0.491694 2.23153,0.151291 3.82008,0.151291 3.36621,0 6.08944,-0.756452 2.76105,-0.756453 4.72783,-2.382825 1.96678,-1.626373 3.02581,-4.160488 1.05903,-2.534115 1.05903,-6.089441 z" /><path
       inkscape:connector-curvature="0"
       id="path869"
       style="font-style:normal;font-variant:normal;font-weight:bold;font-stretch:normal;font-size:31.99999809px;font-family:Ubuntu;-inkscape-font-specification:'Ubuntu Bold';writing-mode:lr-tb;fill:#f8c723;fill-opacity:1;fill-rule:nonzero;stroke:none;stroke-width:1.18195665"
       d="m 418.58436,12.604501 q 1.24815,0 2.04243,0.189113 0.83209,0.226936 1.32379,0.56734 0.49169,0.378226 0.6808,0.86992 0.18912,0.491694 0.18912,1.096856 0,1.285968 -1.21033,2.118066 -1.21032,0.86992 -4.16048,1.853308 -1.28597,0.453871 -2.57194,1.021211 -1.28597,0.605161 -2.30718,1.475082 -1.02121,0.907742 -1.6642,2.155889 -0.64298,1.285969 -0.64298,3.101454 0,1.815485 0.68081,3.252745 0.6808,1.475082 1.92895,2.496292 1.24815,1.021211 3.02581,1.550728 1.77766,0.567339 4.0092,0.567339 2.64758,0 4.57653,-0.567339 1.92896,-0.56734 3.1771,-1.248147 l -1.70202,-4.652181 q -1.09685,0.567339 -2.45847,0.983388 -1.32379,0.453871 -3.21492,0.453871 -2.11806,0 -3.06363,-0.605162 -0.90774,-0.567339 -0.90774,-1.777663 0,-0.718629 0.3404,-1.210323 0.3404,-0.491694 0.94557,-0.907743 0.64298,-0.378226 1.43726,-0.71863 0.83209,-0.302581 1.81548,-0.642984 2.04242,-0.756452 3.55533,-1.512905 1.5129,-0.718629 2.49629,-1.702017 1.02121,-0.983388 1.5129,-2.30718 0.4917,-1.323791 0.4917,-3.214922 0,-3.668794 -2.57194,-5.7112149 -2.57194,-2.0045985 -7.75364,-2.0045985 -1.73984,0 -3.13927,0.2269357 -1.39944,0.189113 -2.4963,0.491694 -1.05903,0.3025809 -1.8533,0.6429844 -0.75646,0.3404035 -1.28597,0.6429844 l 1.66419,4.6900039 q 1.1725,-0.642984 2.87452,-1.172501 1.73984,-0.491694 4.23613,-0.491694 z" /><path
       inkscape:connector-curvature="0"
       id="path210"
       style="fill:none;stroke:#eeeeee;stroke-width:3.23176217;stroke-linecap:butt;stroke-linejoin:miter;stroke-miterlimit:10;stroke-dasharray:none;stroke-opacity:1"
       d="M 461.2215,25.23523 V 39.133746" /><path
       inkscape:connector-curvature="0"
       id="path214"
       style="fill:none;stroke:#eeeeee;stroke-width:3.23176217;stroke-linecap:butt;stroke-linejoin:miter;stroke-miterlimit:10;stroke-dasharray:none;stroke-opacity:1"
       d="m 478.40536,35.737809 -11.08234,7.992147 -11.08237,-7.992147" /><path
       inkscape:connector-curvature="0"
       id="path218"
       style="fill:none;stroke:#eeeeee;stroke-width:3.23176217;stroke-linecap:butt;stroke-linejoin:miter;stroke-miterlimit:10;stroke-dasharray:none;stroke-opacity:1"
       d="M 473.01395,40.504658 483.82806,48.3029 498.38069,37.808723" /><path
       inkscape:connector-curvature="0"
       id="path222"
       style="fill:none;stroke:#eeeeee;stroke-width:3.23176217;stroke-linecap:butt;stroke-linejoin:miter;stroke-miterlimit:10;stroke-dasharray:none;stroke-opacity:1"
       d="M 491.36306,25.23523 V 42.869662" /><path
       inkscape:connector-curvature="0"
       id="path226"
       style="fill:none;stroke:#eeeeee;stroke-width:3.23176217;stroke-linecap:butt;stroke-linejoin:miter;stroke-miterlimit:10;stroke-dasharray:none;stroke-opacity:1"
       d="M 460.85859,9.0853228 C 465.65775,6.1767312 471.28877,4.50204 477.31083,4.50204 c 12.39446,0 23.13231,10.005423 28.37358,20.355463 -1.03804,0.818281 -2.15041,1.619112 -4.15085,1.619112 -4.08626,0 -4.75072,-3.342286 -8.07684,-3.342286 -3.32548,0 -3.23048,3.342286 -7.60176,3.342286 -4.37127,0 -5.13139,-3.342286 -8.07746,-3.342286 -3.61053,0 -3.99057,3.342286 -8.07681,3.342286 -4.08625,0 -4.7507,-3.342286 -8.07683,-3.342286 -3.32547,0 -3.23047,3.342286 -7.60175,3.342286 -1.16796,0 -2.07802,-0.238505 -2.84136,-0.588181 l -2.3204,-0.878393 c -2.13362,4.269804 -3.33454,6.177301 -3.33454,11.276375 0,17.553639 14.23073,31.78438 31.78502,31.78438 15.85761,0 29.00313,-11.61366 31.39527,-26.799063"
       sodipodi:nodetypes="cscsssssssccssc" /><path
       inkscape:connector-curvature="0"
       id="path230"
       style="fill:#eeeeee;fill-opacity:0.93627451;fill-rule:nonzero;stroke:#eeeeee;stroke-width:0.64635235;stroke-opacity:1"
       d="m 458.99367,4.0236749 -4.15798,9.7877111 10.55558,-1.290762 z" /><path
       inkscape:connector-curvature="0"
       id="path234"
       style="fill:#eeeeee;fill-opacity:0.93627451;fill-rule:nonzero;stroke:#eeeeee;stroke-width:0.64635235;stroke-opacity:1"
       d="m 503.16086,42.510079 5.823,-8.89898 4.79593,9.491685 z" /><path
       inkscape:connector-curvature="0"
       id="path238"
       style="fill:none;stroke:#eeeeee;stroke-width:1.50000004;stroke-linecap:butt;stroke-linejoin:miter;stroke-miterlimit:10;stroke-dasharray:none;stroke-opacity:1"
       d="m 449.27367,27.270339 1.10114,0.486395 c 1.12401,0.502862 2.31846,0.74783 3.64736,0.74783 3.13998,0 4.6699,-1.376084 5.78744,-2.379868 0.81312,-0.731026 1.10398,-0.96242 1.81366,-0.96242 0.82735,0 1.33215,0.360018 2.30684,1.107849 1.22742,0.943027 2.90923,2.234439 5.77063,2.234439 2.83685,0 4.44433,-1.273314 5.61874,-2.202122 0.97213,-0.76916 1.48274,-1.140166 2.45873,-1.140166 0.56104,0 0.96759,0.271467 1.90222,0.990858 1.2914,0.992151 3.05983,2.35143 6.1746,2.35143 3.13998,0 4.6699,-1.376084 5.78744,-2.379868 0.81311,-0.731026 1.10398,-0.96242 1.81366,-0.96242 0.82734,0 1.33215,0.360018 2.30684,1.107849 1.22741,0.943027 2.90922,2.234439 5.77064,2.234439 2.82456,0 4.46888,-1.295937 5.45068,-2.069621 l 1.00179,-0.864412"
       sodipodi:nodetypes="ccscscscscscscscc" /><path
       inkscape:connector-curvature="0"
       id="path22"
       style="fill:#eeeeee;fill-opacity:1;fill-rule:nonzero;stroke:none;stroke-width:0.1"
       d="m 200.39078,46.348511 v 13.0649 l -5.148,-11.0996 h -2.851 l -5.149,11.0996 v -13.0649 h -3.958 v 19.3762 h 4.9 l 5.646,-11.8469 5.619,11.8469 h 4.871 v -19.3762 h -3.93" /><path
       inkscape:connector-curvature="0"
       id="path24"
       style="fill:#eeeeee;fill-opacity:1;fill-rule:nonzero;stroke:none;stroke-width:0.1"
       d="m 213.82678,62.098511 v -4.2078 h 9.355 v -3.6262 h -9.355 v -4.2898 h 10.684 v -3.6262 h -15.058 v 19.3762 h 14.753 v -3.6262 h -10.379" /><path
       inkscape:connector-curvature="0"
       id="path26"
       style="fill:#eeeeee;fill-opacity:1;fill-rule:nonzero;stroke:none;stroke-width:0.1"
       d="m 237.11478,62.015711 v -15.6672 h -4.373 v 15.6672 h -5.896 v 3.709 h 16.193 v -3.709 h -5.924" /><path
       inkscape:connector-curvature="0"
       id="path28"
       style="fill:#eeeeee;fill-opacity:1;fill-rule:nonzero;stroke:none;stroke-width:0.1"
       d="m 252.34578,61.157111 -3.072,-7.5293 h 6.117 z m -4.512,-11.0437 -1.521,-3.7649 h -4.512 l 8.414,19.3762 h 4.512 l 8.276,-19.3762 h -4.679 l -1.521,3.7649 h -8.969" /><path
       inkscape:connector-curvature="0"
       id="path30"
       style="fill:#eeeeee;fill-opacity:1;fill-rule:nonzero;stroke:none;stroke-width:0.1"
       d="m 270.12078,49.918811 h 4.319 c 2.076,0 3.321,0.8586 3.321,2.3536 0,1.4113 -1.245,2.2699 -3.321,2.2699 h -4.319 z m 0,8 h 4.319 c 1.632,0 2.657,0.8032 2.657,2.1582 0,1.3293 -1.025,2.0762 -2.657,2.0762 h -4.319 z m 4.539,7.8059 c 4.264,0 6.92,-1.8547 6.92,-4.8445 0,-2.1039 -1.272,-3.7367 -3.348,-4.2621 2.491,-0.4707 4.041,-2.3536 4.041,-4.8993 0,-3.3222 -2.796,-5.3703 -7.308,-5.3703 h -9.217 v 19.3762 h 8.912" /><path
       inkscape:connector-curvature="0"
       id="path32"
       style="fill:#eeeeee;fill-opacity:1;fill-rule:nonzero;stroke:none;stroke-width:0.1"
       d="m 289.37978,56.036011 c 0,-3.4043 2.74,-6.0613 5.979,-6.0613 3.239,0 5.868,2.657 5.868,6.0613 0,3.4055 -2.629,6.0071 -5.868,6.0071 -3.267,0 -5.979,-2.6016 -5.979,-6.0071 z m 16.331,0 c 0,-5.5906 -4.484,-9.8804 -10.408,-9.8804 -5.923,0 -10.406,4.2625 -10.406,9.8804 0,5.6465 4.483,9.8266 10.406,9.8266 5.924,0 10.408,-4.207 10.408,-9.8266" /><path
       inkscape:connector-curvature="0"
       id="path34"
       style="fill:#eeeeee;fill-opacity:1;fill-rule:nonzero;stroke:none;stroke-width:0.1"
       d="m 322.20178,50.168111 v -3.8196 h -12.676 v 19.3762 h 4.373 v -15.5566 h 8.303" /><path
       inkscape:connector-curvature="0"
       id="path36"
       style="fill:#eeeeee;fill-opacity:1;fill-rule:nonzero;stroke:none;stroke-width:0.1"
       d="m 325.20078,46.348511 v 19.3762 h 4.373 v -19.3762 h -4.373" /><path
       inkscape:connector-curvature="0"
       id="path38"
       style="fill:#eeeeee;fill-opacity:1;fill-rule:nonzero;stroke:none;stroke-width:0.1"
       d="m 349.07078,63.814511 -1.69,-3.6257 c -2.048,1.2175 -4.483,1.9929 -6.033,1.9929 -1.467,0 -2.464,-0.5261 -2.464,-1.5781 0,-3.5703 10.324,-1.5781 10.297,-8.5527 0,-3.7918 -3.294,-5.841 -7.585,-5.841 -3.183,0 -6.365,1.2179 -8.553,3.0722 l 1.744,3.5715 c 1.993,-1.7715 4.817,-2.9062 6.866,-2.9062 1.798,0 2.877,0.664 2.877,1.8543 0,3.6535 -10.324,1.5226 -10.324,8.3871 0,3.5156 3.017,5.7293 7.501,5.7293 2.713,0 5.426,-0.8301 7.364,-2.1036" /><path
       inkscape:connector-curvature="0"
       id="path40"
       style="fill:#eeeeee;fill-opacity:1;fill-rule:nonzero;stroke:none;stroke-width:0.1"
       d="m 370.31078,46.348511 v 13.0649 l -5.149,-11.0996 h -2.851 l -5.149,11.0996 v -13.0649 h -3.957 v 19.3762 h 4.899 l 5.646,-11.8469 5.619,11.8469 h 4.871 v -19.3762 h -3.929" /><path
       inkscape:connector-curvature="0"
       id="path42"
       style="fill:#eeeeee;fill-opacity:1;fill-rule:nonzero;stroke:none;stroke-width:0.07105466"
       d="m 395.49363,56.064358 c 0,-3.347384 2.69368,-5.95914 5.87764,-5.95914 3.18396,0 5.76964,2.611756 5.76964,5.95914 0,3.347314 -2.58568,5.904998 -5.76964,5.904998 -3.21096,0 -5.87764,-2.557684 -5.87764,-5.904998 z m 16.05551,0 c 0,-5.497001 -4.40823,-9.715872 -10.23187,-9.715872 -5.82364,0 -10.23258,4.191089 -10.23258,9.715872 0,5.551145 4.40894,9.660378 10.23258,9.660378 5.82364,0 10.23187,-4.135594 10.23187,-9.660378" /><path
       inkscape:connector-curvature="0"
       id="path44"
       style="fill:#eeeeee;fill-opacity:1;fill-rule:nonzero;stroke:none;stroke-width:0.07105466"
       d="M 419.52148,62.023499 V 57.34391 h 8.59974 v -3.59302 h -8.59974 v -7.210912 h -4.29952 v 19.04876 h 13.68797 l -0.027,-3.565239 h -9.36145" /></g></svg>