<?xml version="1.0" encoding="UTF-8" standalone="no"?>
<!-- Created with Inkscape (http://www.inkscape.org/) -->

<svg
   xmlns:dc="http://purl.org/dc/elements/1.1/"
   xmlns:cc="http://creativecommons.org/ns#"
   xmlns:rdf="http://www.w3.org/1999/02/22-rdf-syntax-ns#"
   xmlns:svg="http://www.w3.org/2000/svg"
   xmlns="http://www.w3.org/2000/svg"
   xmlns:sodipodi="http://sodipodi.sourceforge.net/DTD/sodipodi-0.dtd"
   xmlns:inkscape="http://www.inkscape.org/namespaces/inkscape"
   version="1.1"
   id="svg2"
   xml:space="preserve"
   width="418.23132"
   height="137.8"
   viewBox="0 0 418.23132 137.8"
   sodipodi:docname="logo.flat.svg"
   inkscape:version="0.92.4 5da689c313, 2019-01-14"><metadata
     id="metadata8"><rdf:RDF><cc:Work
         rdf:about=""><dc:format>image/svg+xml</dc:format><dc:type
           rdf:resource="http://purl.org/dc/dcmitype/StillImage" /><dc:title></dc:title></cc:Work></rdf:RDF></metadata><defs
     id="defs6"><clipPath
       clipPathUnits="userSpaceOnUse"
       id="clipPath18"><path
         d="M 0,595.28 H 841.89 V 0 H 0 Z"
         id="path16"
         inkscape:connector-curvature="0" /></clipPath><clipPath
       clipPathUnits="userSpaceOnUse"
       id="clipPath98"><path
         d="M 0,595.28 H 841.89 V 0 H 0 Z"
         id="path96"
         inkscape:connector-curvature="0" /></clipPath><clipPath
       clipPathUnits="userSpaceOnUse"
       id="clipPath162"><path
         d="M 0,595.28 H 841.89 V 0 H 0 Z"
         id="path160"
         inkscape:connector-curvature="0" /></clipPath></defs><sodipodi:namedview
     pagecolor="#ffffff"
     bordercolor="#666666"
     borderopacity="1"
     objecttolerance="10"
     gridtolerance="10"
     guidetolerance="10"
     inkscape:pageopacity="0"
     inkscape:pageshadow="2"
     inkscape:window-width="1278"
     inkscape:window-height="1402"
     id="namedview4"
     showgrid="false"
     inkscape:zoom="1.6820038"
     inkscape:cx="155.89591"
     inkscape:cy="182.79033"
     inkscape:window-x="1280"
     inkscape:window-y="18"
     inkscape:window-maximized="0"
     inkscape:current-layer="g10"
     fit-margin-top="0"
     fit-margin-left="0"
     fit-margin-right="0"
     fit-margin-bottom="0" /><g
     id="g10"
     inkscape:groupmode="layer"
     inkscape:label="Logo MoI"
     transform="matrix(1.3333333,0,0,-1.3333333,-16.216313,773.48283)"><g
   aria-label="METABOLISM"
   transform="scale(1,-1)"
   style="font-variant:normal;font-weight:bold;font-stretch:normal;font-size:28.99999809px;font-family:Arial;-inkscape-font-specification:Arial-BoldMT;writing-mode:lr-tb;fill:#231f20;fill-opacity:1;fill-rule:nonzero;stroke:none;stroke-width:0.99999994"
   id="text142"><path
     d="m 140.78773,-554.4806 q 0.522,0.957 1.189,2.378 0.696,1.392 1.421,3.045 0.754,1.62399 1.479,3.33499 0.725,1.711 1.363,3.219 0.638,-1.508 1.363,-3.219 0.725,-1.711 1.45,-3.33499 0.754,-1.653 1.421,-3.045 0.696,-1.421 1.218,-2.378 h 4.118 q 0.29,2.001 0.522,4.495 0.261,2.46499 0.435,5.16199 0.203,2.668 0.348,5.365 0.174,2.697 0.29,5.075 h -4.408 q -0.087,-2.929 -0.232,-6.38 -0.145,-3.451 -0.435,-6.96 -0.522,1.218 -1.16,2.697 -0.638,1.479 -1.276,2.958 -0.609,1.479 -1.189,2.842 -0.58,1.334 -0.986,2.291 h -3.161 q -0.406,-0.957 -0.986,-2.291 -0.58,-1.363 -1.218,-2.842 -0.609,-1.479 -1.247,-2.958 -0.638,-1.479 -1.16,-2.697 -0.29,3.509 -0.435,6.96 -0.145,3.451 -0.232,6.38 h -4.408 q 0.116,-2.378 0.261,-5.075 0.174,-2.697 0.348,-5.365 0.203,-2.697 0.435,-5.16199 0.261,-2.494 0.551,-4.495 z"
     style="font-style:normal;font-variant:normal;font-weight:bold;font-stretch:normal;font-family:Ubuntu;-inkscape-font-specification:'Ubuntu Bold';stroke-width:0.99999994"
     id="path872" /><path
     d="m 159.60871,-534.38361 v -20.09699 h 13.572 v 3.799 h -9.048 v 3.94399 h 8.033 v 3.712 h -8.033 v 4.843 h 9.715 v 3.799 z"
     style="font-style:normal;font-variant:normal;font-weight:bold;font-stretch:normal;font-family:Ubuntu;-inkscape-font-specification:'Ubuntu Bold';stroke-width:0.99999994"
     id="path874" /><path
     d="m 193.85773,-554.4806 v 3.857 h -6.061 v 16.23999 h -4.524 v -16.23999 h -6.061 v -3.857 z"
     style="font-style:normal;font-variant:normal;font-weight:bold;font-stretch:normal;font-family:Ubuntu;-inkscape-font-specification:'Ubuntu Bold';stroke-width:0.99999994"
     id="path876" /><path
     d="m 207.96913,-534.38361 q -0.319,-1.044 -0.725,-2.146 -0.377,-1.102 -0.754,-2.204 h -7.83 q -0.377,1.102 -0.783,2.204 -0.377,1.102 -0.696,2.146 h -4.698 q 1.131,-3.248 2.146,-6.003 1.015,-2.755 1.972,-5.191 0.986,-2.436 1.914,-4.61099 0.957,-2.204 1.972,-4.292 h 4.321 q 0.986,2.088 1.943,4.292 0.957,2.17499 1.914,4.61099 0.986,2.436 2.001,5.191 1.015,2.755 2.146,6.003 z m -5.423,-15.54399 q -0.145,0.435 -0.435,1.18899 -0.29,0.754 -0.667,1.74 -0.377,0.986 -0.841,2.175 -0.435,1.189 -0.899,2.494 h 5.713 q -0.464,-1.305 -0.899,-2.494 -0.435,-1.189 -0.841,-2.175 -0.377,-0.986 -0.667,-1.74 -0.29,-0.75399 -0.464,-1.18899 z"
     style="font-style:normal;font-variant:normal;font-weight:bold;font-stretch:normal;font-family:Ubuntu;-inkscape-font-specification:'Ubuntu Bold';stroke-width:0.99999994"
     id="path878" /><path
     d="m 222.15012,-534.12261 q -1.653,0 -3.306,-0.116 -1.624,-0.087 -3.393,-0.464 v -19.48799 q 1.392,-0.261 3.045,-0.377 1.653,-0.145 3.074,-0.145 1.914,0 3.509,0.29 1.624,0.261 2.784,0.928 1.16,0.667 1.798,1.769 0.667,1.073 0.667,2.668 0,2.40699 -2.32,3.79899 1.914,0.725 2.61,1.972 0.696,1.247 0.696,2.813 0,3.161 -2.32,4.756 -2.291,1.595 -6.844,1.595 z m -2.291,-9.019 v 5.191 q 0.493,0.058 1.073,0.087 0.58,0.029 1.276,0.029 2.03,0 3.277,-0.58 1.247,-0.58 1.247,-2.146 0,-1.392 -1.044,-1.972 -1.044,-0.609 -2.987,-0.609 z m 0,-3.451 h 2.204 q 2.088,0 2.987,-0.522 0.899,-0.551 0.899,-1.74 0,-1.21799 -0.928,-1.71099 -0.928,-0.493 -2.726,-0.493 -0.58,0 -1.247,0.029 -0.667,0 -1.189,0.058 z"
     style="font-style:normal;font-variant:normal;font-weight:bold;font-stretch:normal;font-family:Ubuntu;-inkscape-font-specification:'Ubuntu Bold';stroke-width:0.99999994"
     id="path880" /><path
     d="m 240.18811,-544.44661 q 0,1.479 0.348,2.668 0.377,1.189 1.044,2.059 0.696,0.841 1.682,1.305 0.986,0.464 2.262,0.464 1.247,0 2.233,-0.464 1.015,-0.464 1.682,-1.305 0.696,-0.87 1.044,-2.059 0.377,-1.189 0.377,-2.668 0,-1.479 -0.377,-2.668 -0.348,-1.218 -1.044,-2.05899 -0.667,-0.87 -1.682,-1.334 -0.986,-0.464 -2.233,-0.464 -1.276,0 -2.262,0.493 -0.986,0.464 -1.682,1.334 -0.667,0.84099 -1.044,2.05899 -0.348,1.189 -0.348,2.639 z m 15.341,0 q 0,2.581 -0.783,4.553 -0.754,1.943 -2.088,3.277 -1.334,1.305 -3.19,1.972 -1.827,0.667 -3.944,0.667 -2.059,0 -3.886,-0.667 -1.827,-0.667 -3.19,-1.972 -1.363,-1.334 -2.146,-3.277 -0.783,-1.972 -0.783,-4.553 0,-2.581 0.812,-4.52399 0.812,-1.972 2.175,-3.306 1.392,-1.334 3.19,-2.001 1.827,-0.667 3.828,-0.667 2.059,0 3.886,0.667 1.827,0.667 3.19,2.001 1.363,1.334 2.146,3.306 0.783,1.94299 0.783,4.52399 z"
     style="font-style:normal;font-variant:normal;font-weight:bold;font-stretch:normal;font-family:Ubuntu;-inkscape-font-specification:'Ubuntu Bold';stroke-width:0.99999994"
     id="path882" /><path
     d="m 272.37813,-538.26961 v 3.886 h -13.427 v -20.09699 h 4.524 v 16.21099 z"
     style="font-style:normal;font-variant:normal;font-weight:bold;font-stretch:normal;font-family:Ubuntu;-inkscape-font-specification:'Ubuntu Bold';stroke-width:0.99999994"
     id="path884" /><path
     d="m 276.67013,-554.4806 h 4.524 v 20.09699 h -4.524 z"
     style="font-style:normal;font-variant:normal;font-weight:bold;font-stretch:normal;font-family:Ubuntu;-inkscape-font-specification:'Ubuntu Bold';stroke-width:0.99999994"
     id="path886" /><path
     d="m 290.21314,-537.83461 q 0.957,0 1.566,-0.145 0.638,-0.174 1.015,-0.435 0.377,-0.29 0.522,-0.667 0.145,-0.377 0.145,-0.841 0,-0.986 -0.928,-1.624 -0.928,-0.667 -3.19,-1.421 -0.986,-0.348 -1.972,-0.783 -0.986,-0.464 -1.769,-1.131 -0.783,-0.696 -1.276,-1.653 -0.493,-0.986 -0.493,-2.378 0,-1.39199 0.522,-2.49399 0.522,-1.131 1.479,-1.914 0.957,-0.783 2.32,-1.189 1.363,-0.435 3.074,-0.435 2.03,0 3.509,0.435 1.479,0.435 2.436,0.957 l -1.305,3.567 q -0.841,-0.435 -1.885,-0.754 -1.015,-0.348 -2.465,-0.348 -1.624,0 -2.349,0.464 -0.696,0.435 -0.696,1.363 0,0.55099 0.261,0.92799 0.261,0.377 0.725,0.696 0.493,0.29 1.102,0.551 0.638,0.232 1.392,0.493 1.566,0.58 2.726,1.16 1.16,0.551 1.914,1.305 0.783,0.754 1.16,1.769 0.377,1.015 0.377,2.465 0,2.813 -1.972,4.379 -1.972,1.537 -5.945,1.537 -1.334,0 -2.407,-0.174 -1.073,-0.145 -1.914,-0.377 -0.812,-0.232 -1.421,-0.493 -0.58,-0.261 -0.986,-0.493 l 1.276,-3.596 q 0.899,0.493 2.204,0.899 1.334,0.377 3.248,0.377 z"
     style="font-style:normal;font-variant:normal;font-weight:bold;font-stretch:normal;font-family:Ubuntu;-inkscape-font-specification:'Ubuntu Bold';stroke-width:0.99999994"
     id="path888" /><path
     d="m 309.41113,-554.4806 q 0.522,0.957 1.189,2.378 0.696,1.392 1.421,3.045 0.754,1.62399 1.479,3.33499 0.725,1.711 1.363,3.219 0.638,-1.508 1.363,-3.219 0.725,-1.711 1.45,-3.33499 0.754,-1.653 1.421,-3.045 0.696,-1.421 1.218,-2.378 h 4.118 q 0.29,2.001 0.522,4.495 0.261,2.46499 0.435,5.16199 0.203,2.668 0.348,5.365 0.174,2.697 0.29,5.075 h -4.408 q -0.087,-2.929 -0.232,-6.38 -0.145,-3.451 -0.435,-6.96 -0.522,1.218 -1.16,2.697 -0.638,1.479 -1.276,2.958 -0.609,1.479 -1.189,2.842 -0.58,1.334 -0.986,2.291 h -3.161 q -0.406,-0.957 -0.986,-2.291 -0.58,-1.363 -1.218,-2.842 -0.609,-1.479 -1.247,-2.958 -0.638,-1.479 -1.16,-2.697 -0.29,3.509 -0.435,6.96 -0.145,3.451 -0.232,6.38 h -4.408 q 0.116,-2.378 0.261,-5.075 0.174,-2.697 0.348,-5.365 0.203,-2.697 0.435,-5.16199 0.261,-2.494 0.551,-4.495 z"
     style="font-style:normal;font-variant:normal;font-weight:bold;font-stretch:normal;font-family:Ubuntu;-inkscape-font-specification:'Ubuntu Bold';stroke-width:0.99999994"
     id="path890" /></g>
<g
   aria-label="OF ISLANDS"
   transform="scale(1,-1)"
   style="font-variant:normal;font-weight:bold;font-stretch:normal;font-size:31.99999809px;font-family:Arial;-inkscape-font-specification:Arial-BoldMT;writing-mode:lr-tb;fill:#231f20;fill-opacity:1;fill-rule:nonzero;stroke:none;stroke-width:0.99999994"
   id="text146"><path
     d="m 139.88373,-512.48764 q 0,1.632 0.384,2.944 0.416,1.312 1.152,2.272 0.768,0.928 1.856,1.44 1.088,0.512 2.496,0.512 1.376,0 2.464,-0.512 1.12,-0.512 1.856,-1.44 0.768,-0.96 1.152,-2.272 0.416,-1.312 0.416,-2.944 0,-1.632 -0.416,-2.944 -0.384,-1.344 -1.152,-2.272 -0.736,-0.96 -1.856,-1.472 -1.088,-0.512 -2.464,-0.512 -1.408,0 -2.496,0.544 -1.088,0.512 -1.856,1.472 -0.736,0.928 -1.152,2.272 -0.384,1.312 -0.384,2.912 z m 16.928,0 q 0,2.848 -0.864,5.024 -0.832,2.144 -2.304,3.616 -1.472,1.44 -3.52,2.176 -2.016,0.736 -4.352,0.736 -2.272,0 -4.288,-0.736 -2.016,-0.736 -3.52,-2.176 -1.504,-1.472 -2.368,-3.616 -0.864,-2.176 -0.864,-5.024 0,-2.848 0.896,-4.992 0.896,-2.176 2.4,-3.648 1.536,-1.472 3.52,-2.208 2.016,-0.736 4.224,-0.736 2.272,0 4.288,0.736 2.016,0.736 3.52,2.208 1.504,1.472 2.368,3.648 0.864,2.144 0.864,4.992 z"
     style="font-style:normal;font-variant:normal;font-weight:bold;font-stretch:normal;font-family:Ubuntu;-inkscape-font-specification:'Ubuntu Bold';stroke-width:0.99999994"
     id="path853" /><path
     d="m 160.58773,-501.38364 v -22.176 h 14.84799 v 4.192 h -9.856 v 4.64 h 8.768 v 4.192 h -8.768 v 9.152 z"
     style="font-style:normal;font-variant:normal;font-weight:bold;font-stretch:normal;font-family:Ubuntu;-inkscape-font-specification:'Ubuntu Bold';stroke-width:0.99999994"
     id="path855" /><path
     d="m 189.03572,-523.55964 h 4.992 v 22.176 h -4.992 z"
     style="font-style:normal;font-variant:normal;font-weight:bold;font-stretch:normal;font-family:Ubuntu;-inkscape-font-specification:'Ubuntu Bold';fill:#9175a7;fill-opacity:1"
     id="path857" /><path
     d="m 203.97972,-505.19164 q 1.056,0 1.728,-0.16 0.704,-0.192 1.12,-0.48 0.416,-0.32 0.576,-0.736 0.16,-0.416 0.16,-0.928 0,-1.088 -1.024,-1.792 -1.024,-0.736 -3.52,-1.568 -1.088,-0.384 -2.176,-0.864 -1.088,-0.512 -1.952,-1.248 -0.864,-0.768 -1.408,-1.824 -0.544,-1.088 -0.544,-2.624 0,-1.536 0.576,-2.752 0.576,-1.248 1.632,-2.112 1.056,-0.864 2.56,-1.312 1.504,-0.48 3.392,-0.48 2.24,0 3.872,0.48 1.632,0.48 2.688,1.056 l -1.44,3.936 q -0.928,-0.48 -2.08,-0.832 -1.12,-0.384 -2.72,-0.384 -1.792,0 -2.592,0.512 -0.768,0.48 -0.768,1.504 0,0.608 0.288,1.024 0.288,0.416 0.8,0.768 0.544,0.32 1.216,0.608 0.704,0.256 1.536,0.544 1.728,0.64 3.008,1.28 1.28,0.608 2.112,1.44 0.864,0.832 1.28,1.952 0.416,1.12 0.416,2.72 0,3.104 -2.176,4.832 -2.176,1.696 -6.56,1.696 -1.472,0 -2.656,-0.192 -1.184,-0.16 -2.112,-0.416 -0.896,-0.256 -1.568,-0.544 -0.64,-0.288 -1.088,-0.544 l 1.408,-3.968 q 0.992,0.544 2.432,0.992 1.472,0.416 3.584,0.416 z"
     style="font-style:normal;font-variant:normal;font-weight:bold;font-stretch:normal;font-family:Ubuntu;-inkscape-font-specification:'Ubuntu Bold';fill:#9175a7;fill-opacity:1"
     id="path859" /><path
     d="m 234.09174,-505.67164 v 4.288 h -14.816 v -22.176 h 4.992 v 17.888 z"
     style="font-style:normal;font-variant:normal;font-weight:bold;font-stretch:normal;font-family:Ubuntu;-inkscape-font-specification:'Ubuntu Bold';fill:#9175a7;fill-opacity:1"
     id="path861" /><path
     d="m 253.67574,-501.38364 q -0.352,-1.152 -0.8,-2.368 -0.41599,-1.216 -0.83199,-2.432 h -8.64 q -0.416,1.216 -0.864,2.432 -0.416,1.216 -0.768,2.368 h -5.184 q 1.248,-3.584 2.368,-6.624 1.12,-3.04 2.176,-5.728 1.088,-2.688 2.112,-5.088 1.056,-2.432 2.176,-4.736 h 4.768 q 1.088,2.304 2.144,4.736 1.05599,2.4 2.11199,5.088 1.088,2.688 2.208,5.728 1.12,3.04 2.368,6.624 z m -5.98399,-17.152 q -0.16,0.48 -0.48,1.312 -0.32,0.832 -0.736,1.92 -0.416,1.088 -0.928,2.4 -0.48,1.312 -0.992,2.752 h 6.304 q -0.512,-1.44 -0.992,-2.752 -0.48,-1.312 -0.928,-2.4 -0.416,-1.088 -0.736,-1.92 -0.32,-0.832 -0.512,-1.312 z"
     style="font-style:normal;font-variant:normal;font-weight:bold;font-stretch:normal;font-family:Ubuntu;-inkscape-font-specification:'Ubuntu Bold';fill:#9175a7;fill-opacity:1"
     id="path863" /><path
     d="m 276.81173,-501.38364 q -2.144,-3.808 -4.64,-7.52 -2.496,-3.712 -5.312,-7.008 v 14.528 h -4.928 v -22.176 h 4.064 q 1.056,1.056 2.336,2.592 1.28,1.536 2.592,3.296 1.344,1.728 2.656,3.616 1.312,1.856 2.464,3.584 v -13.088 h 4.96 v 22.176 z"
     style="font-style:normal;font-variant:normal;font-weight:bold;font-stretch:normal;font-family:Ubuntu;-inkscape-font-specification:'Ubuntu Bold';fill:#9175a7;fill-opacity:1"
     id="path865" /><path
     d="m 290.02774,-505.44764 q 0.352,0.032 0.8,0.064 0.48,0 1.12,0 3.744,0 5.536,-1.888 1.824,-1.888 1.824,-5.216 0,-3.488 -1.728,-5.28 -1.728,-1.792 -5.472,-1.792 -0.512,0 -1.056,0.032 -0.544,0 -1.024,0.064 z m 14.432,-7.04 q 0,2.88 -0.896,5.024 -0.896,2.144 -2.56,3.552 -1.632,1.408 -4,2.112 -2.368,0.704 -5.312,0.704 -1.344,0 -3.136,-0.128 -1.792,-0.096 -3.52,-0.448 v -21.6 q 1.728,-0.32 3.584,-0.416 1.888,-0.128 3.232,-0.128 2.848,0 5.152,0.64 2.336,0.64 4,2.016 1.664,1.376 2.56,3.52 0.896,2.144 0.896,5.152 z"
     style="font-style:normal;font-variant:normal;font-weight:bold;font-stretch:normal;font-family:Ubuntu;-inkscape-font-specification:'Ubuntu Bold';fill:#9175a7;fill-opacity:1"
     id="path867" /><path
     d="m 314.18774,-505.19164 q 1.056,0 1.728,-0.16 0.704,-0.192 1.12,-0.48 0.416,-0.32 0.576,-0.736 0.16,-0.416 0.16,-0.928 0,-1.088 -1.024,-1.792 -1.024,-0.736 -3.52,-1.568 -1.088,-0.384 -2.176,-0.864 -1.088,-0.512 -1.952,-1.248 -0.864,-0.768 -1.408,-1.824 -0.544,-1.088 -0.544,-2.624 0,-1.536 0.576,-2.752 0.576,-1.248 1.632,-2.112 1.056,-0.864 2.56,-1.312 1.504,-0.48 3.392,-0.48 2.24,0 3.872,0.48 1.632,0.48 2.688,1.056 l -1.44,3.936 q -0.928,-0.48 -2.08,-0.832 -1.12,-0.384 -2.72,-0.384 -1.792,0 -2.592,0.512 -0.768,0.48 -0.768,1.504 0,0.608 0.288,1.024 0.288,0.416 0.8,0.768 0.544,0.32 1.216,0.608 0.704,0.256 1.536,0.544 1.728,0.64 3.008,1.28 1.28,0.608 2.112,1.44 0.864,0.832 1.28,1.952 0.416,1.12 0.416,2.72 0,3.104 -2.176,4.832 -2.176,1.696 -6.56,1.696 -1.472,0 -2.656,-0.192 -1.184,-0.16 -2.112,-0.416 -0.896,-0.256 -1.568,-0.544 -0.64,-0.288 -1.088,-0.544 l 1.408,-3.968 q 0.992,0.544 2.432,0.992 1.472,0.416 3.584,0.416 z"
     style="font-style:normal;font-variant:normal;font-weight:bold;font-stretch:normal;font-family:Ubuntu;-inkscape-font-specification:'Ubuntu Bold';fill:#9175a7;fill-opacity:1"
     id="path869" /></g>
<path
   inkscape:connector-curvature="0"
   id="path210"
   style="fill:none;stroke:#9175a7;stroke-width:5;stroke-linecap:butt;stroke-linejoin:miter;stroke-miterlimit:10;stroke-dasharray:none;stroke-opacity:1"
   d="m 38.945735,506.83654 v 21.503" /><path
   inkscape:connector-curvature="0"
   id="path214"
   style="fill:none;stroke:#9175a7;stroke-width:5;stroke-linecap:butt;stroke-linejoin:miter;stroke-miterlimit:10;stroke-dasharray:none;stroke-opacity:1"
   d="m 65.531635,523.08554 -17.146,12.365 -17.146,-12.365" /><path
   inkscape:connector-curvature="0"
   id="path218"
   style="fill:none;stroke:#9175a7;stroke-width:5;stroke-linecap:butt;stroke-linejoin:miter;stroke-miterlimit:10;stroke-dasharray:none;stroke-opacity:1"
   d="m 57.190335,530.46054 16.731,12.065 22.514993,-16.236" /><path
   inkscape:connector-curvature="0"
   id="path222"
   style="fill:none;stroke:#9175a7;stroke-width:5;stroke-linecap:butt;stroke-linejoin:miter;stroke-miterlimit:10;stroke-dasharray:none;stroke-opacity:1"
   d="m 85.579035,506.83654 v 27.283" /><path
   inkscape:connector-curvature="0"
   id="path226"
   style="fill:none;stroke:#9175a7;stroke-width:5;stroke-linecap:butt;stroke-linejoin:miter;stroke-miterlimit:10;stroke-dasharray:none;stroke-opacity:1"
   d="m 38.384235,486.35314 c 7.425,-4.50001 16.137,-7.091 25.454,-7.091 19.176,0 35.789003,10.977 43.898005,26.99 -1.60601,1.266 -3.327,2.505 -6.422,2.505 -6.322002,0 -7.350002,-5.171 -12.496005,-5.171 -5.145,0 -4.998,5.171 -11.761,5.171 -6.763,0 -7.939,-5.171 -12.497,-5.171 -5.586,0 -6.174,5.171 -12.496,5.171 -6.322,0 -7.35,-5.171 -12.496,-5.171 -5.145,0 -4.998,5.171 -11.761,5.171 -1.807,0 -3.215,-0.369 -4.396,-0.91 l -3.59,-1.359 c -3.301,6.606 -5.159,14.06 -5.159,21.949 0,27.158 22.017,49.175 49.176,49.175 24.534,0 44.871995,-17.968 48.573005,-41.462" /><path
   inkscape:connector-curvature="0"
   id="path230"
   style="fill:#9175a7;fill-opacity:1;fill-rule:nonzero;stroke:none;stroke-width:0.99999994"
   d="m 35.498935,478.52204 -6.433,15.143 16.331,-1.997 z" /><path
   inkscape:connector-curvature="0"
   id="path234"
   style="fill:#9175a7;fill-opacity:1;fill-rule:nonzero;stroke:none;stroke-width:0.99999994"
   d="m 103.83193,538.06604 9.00901,-13.768 7.42,14.685 z" /><path
   inkscape:connector-curvature="0"
   id="path238"
   style="fill:none;stroke:#ffffff;stroke-width:1.5;stroke-linecap:butt;stroke-linejoin:miter;stroke-miterlimit:10;stroke-dasharray:none;stroke-opacity:1"
   d="m 21.502335,510.59924 0.662,0.251 c 1.739,0.778 3.587,1.157 5.643,1.157 4.858,0 7.225,-2.129 8.954,-3.682 1.258,-1.131 1.708,-1.489 2.806,-1.489 1.28,0 2.061,0.557 3.569,1.714 1.899,1.459 4.501,3.457 8.928,3.457 4.389,0 6.876,-1.97 8.693,-3.407 1.504,-1.19 2.294,-1.764 3.804,-1.764 0.868,0 1.497,0.42 2.943,1.533 1.998,1.535 4.734,3.638 9.553,3.638 4.858,0 7.225,-2.129 8.954,-3.682 1.258,-1.131 1.708,-1.489 2.806,-1.489 1.27999,0 2.061,0.557 3.56899,1.714 1.899003,1.459 4.501013,3.457 8.928005,3.457 4.37001,0 6.91401,-2.005 8.433,-3.202 l 2.09001,-1.646" /></g></svg>