<?xml version="1.0" encoding="UTF-8" standalone="no"?>
<!-- Created with Inkscape (http://www.inkscape.org/) -->

<svg
   xmlns:dc="http://purl.org/dc/elements/1.1/"
   xmlns:cc="http://creativecommons.org/ns#"
   xmlns:rdf="http://www.w3.org/1999/02/22-rdf-syntax-ns#"
   xmlns:svg="http://www.w3.org/2000/svg"
   xmlns="http://www.w3.org/2000/svg"
   xmlns:sodipodi="http://sodipodi.sourceforge.net/DTD/sodipodi-0.dtd"
   xmlns:inkscape="http://www.inkscape.org/namespaces/inkscape"
   version="1.1"
   id="svg2"
   xml:space="preserve"
   width="442"
   height="100"
   viewBox="0 0 442.00002 99.999997"
   sodipodi:docname="islands-logo.svg"
   inkscape:version="0.92.4 (5da689c313, 2019-01-14)"><metadata
     id="metadata8"><rdf:RDF><cc:Work
         rdf:about=""><dc:format>image/svg+xml</dc:format><dc:type
           rdf:resource="http://purl.org/dc/dcmitype/StillImage" /><dc:title></dc:title></cc:Work></rdf:RDF></metadata><defs
     id="defs6" /><sodipodi:namedview
     pagecolor="#ffffff"
     bordercolor="#666666"
     borderopacity="1"
     objecttolerance="10"
     gridtolerance="10"
     guidetolerance="10"
     inkscape:pageopacity="0"
     inkscape:pageshadow="2"
     inkscape:window-width="1920"
     inkscape:window-height="1060"
     id="namedview4"
     showgrid="false"
     inkscape:zoom="1.8237227"
     inkscape:cx="183.31122"
     inkscape:cy="47.337693"
     inkscape:window-x="0"
     inkscape:window-y="0"
     inkscape:window-maximized="1"
     inkscape:current-layer="g10"
     fit-margin-top="0"
     fit-margin-left="0"
     fit-margin-right="0"
     fit-margin-bottom="0"
     units="px"
     width="600mm"
     showguides="false" /><g
     id="g10"
     inkscape:groupmode="layer"
     inkscape:label="ink_ext_XXXXXX"
     transform="matrix(1.3333333,0,0,-1.3333333,-244.3797,98.38189)"><path
       inkscape:connector-curvature="0"
       id="path857"
       style="font-style:normal;font-variant:normal;font-weight:bold;font-stretch:normal;font-size:31.99999809px;font-family:Ubuntu;-inkscape-font-specification:'Ubuntu Bold';writing-mode:lr-tb;fill:#f8c723;fill-opacity:1;fill-rule:nonzero;stroke:none;stroke-width:1.45876563"
       d="m 222.49094,39.077208 h 7.28216 V 6.727621 h -7.28216 z" /><path
       inkscape:connector-curvature="0"
       id="path859"
       style="font-style:normal;font-variant:normal;font-weight:bold;font-stretch:normal;font-size:31.99999809px;font-family:Ubuntu;-inkscape-font-specification:'Ubuntu Bold';writing-mode:lr-tb;fill:#f8c723;fill-opacity:1;fill-rule:nonzero;stroke:none;stroke-width:1.45876563"
       d="m 247.99332,12.2826 q 1.54045,0 2.52074,0.233403 1.02697,0.280083 1.63382,0.700208 0.60684,0.466805 0.84025,1.073651 0.2334,0.606847 0.2334,1.353735 0,1.587136 -1.49377,2.614108 -1.49378,1.073651 -5.13486,2.287344 -1.58714,0.560166 -3.17427,1.260374 -1.58714,0.746887 -2.84752,1.82054 -1.26037,1.120331 -2.05393,2.660788 -0.79358,1.587137 -0.79358,3.827801 0,2.240663 0.84026,4.014523 0.84024,1.82054 2.3807,3.080912 1.54046,1.260374 3.73444,1.913902 2.19398,0.700207 4.94814,0.700207 3.26763,0 5.64833,-0.700207 2.38071,-0.700209 3.92116,-1.540458 l -2.10061,-5.7417 q -1.35374,0.700207 -3.03424,1.213693 -1.63382,0.560165 -3.96785,0.560165 -2.6141,0 -3.78112,-0.746888 -1.12032,-0.700207 -1.12032,-2.193984 0,-0.886928 0.42012,-1.493775 0.42013,-0.606846 1.16701,-1.120332 0.79357,-0.466805 1.77386,-0.88693 1.02697,-0.373444 2.24066,-0.793568 2.52075,-0.93361 4.38797,-1.867221 1.86722,-0.886928 3.08091,-2.100621 1.26038,-1.213693 1.86723,-2.847512 0.60684,-1.633816 0.60684,-3.967842 0,-4.528009 -3.17428,-7.0487555 -3.17427,-2.4740665 -9.56949,-2.4740665 -2.1473,0 -3.87449,0.2800831 -1.72718,0.2334024 -3.08091,0.6068465 -1.30706,0.373444 -2.28734,0.7935684 -0.93361,0.4201245 -1.58714,0.7935685 l 2.05393,5.7883815 q 1.44711,-0.793568 3.54772,-1.447095 2.14731,-0.606847 5.22823,-0.606847 z" /><path
       inkscape:connector-curvature="0"
       id="path861"
       style="font-style:normal;font-variant:normal;font-weight:bold;font-stretch:normal;font-size:31.99999809px;font-family:Ubuntu;-inkscape-font-specification:'Ubuntu Bold';writing-mode:lr-tb;fill:#f8c723;fill-opacity:1;fill-rule:nonzero;stroke:none;stroke-width:1.45876563"
       d="M 291.91969,12.982809 V 6.727621 h -21.61307 v 32.349587 h 7.28216 V 12.982809 Z" /><path
       inkscape:connector-curvature="0"
       id="path863"
       style="font-style:normal;font-variant:normal;font-weight:bold;font-stretch:normal;font-size:31.99999809px;font-family:Ubuntu;-inkscape-font-specification:'Ubuntu Bold';writing-mode:lr-tb;fill:#f8c723;fill-opacity:1;fill-rule:nonzero;stroke:none;stroke-width:1.45876563"
       d="m 322.33945,6.727621 q -0.51348,1.680498 -1.16701,3.454357 -0.60683,1.773859 -1.21367,3.547718 h -12.60374 q -0.60685,-1.773859 -1.26038,-3.547718 -0.60684,-1.773859 -1.12033,-3.454357 h -7.56225 q 1.82055,5.228216 3.45437,9.662863 1.63382,4.434649 3.17426,8.35581 1.58714,3.921162 3.08093,7.4222 1.54045,3.547718 3.17426,6.908714 h 6.9554 q 1.58713,-3.360996 3.1276,-6.908714 1.54043,-3.501038 3.08089,-7.4222 1.58714,-3.921161 3.22096,-8.35581 1.63381,-4.434647 3.45435,-9.662863 z m -8.72924,25.020749 q -0.2334,-0.700209 -0.70021,-1.913902 -0.46681,-1.213693 -1.07365,-2.80083 -0.60684,-1.587136 -1.35373,-3.501037 -0.7002,-1.913901 -1.4471,-4.014522 h 9.19606 q -0.74688,2.100621 -1.44709,4.014522 -0.70021,1.913901 -1.35374,3.501037 -0.60684,1.587137 -1.07365,2.80083 -0.4668,1.213693 -0.74689,1.913902 z" /><path
       inkscape:connector-curvature="0"
       id="path865"
       style="font-style:normal;font-variant:normal;font-weight:bold;font-stretch:normal;font-size:31.99999809px;font-family:Ubuntu;-inkscape-font-specification:'Ubuntu Bold';writing-mode:lr-tb;fill:#f8c723;fill-opacity:1;fill-rule:nonzero;stroke:none;stroke-width:1.45876563"
       d="m 357.94072,6.727621 q -3.12758,5.554979 -6.76867,10.969918 -3.64107,5.414938 -7.74896,10.223029 V 6.727621 h -7.18879 v 32.349587 h 5.92842 q 1.54046,-1.540456 3.40768,-3.781121 1.86722,-2.240663 3.78111,-4.808091 1.96059,-2.520747 3.87449,-5.274897 1.9139,-2.707469 3.5944,-5.228215 v 19.092324 h 7.23548 V 6.727621 Z" /><path
       inkscape:connector-curvature="0"
       id="path867"
       style="font-style:normal;font-variant:normal;font-weight:bold;font-stretch:normal;font-size:31.99999809px;font-family:Ubuntu;-inkscape-font-specification:'Ubuntu Bold';writing-mode:lr-tb;fill:#f8c723;fill-opacity:1;fill-rule:nonzero;stroke:none;stroke-width:1.45876563"
       d="m 379.07108,12.656044 q 0.51348,-0.04668 1.16702,-0.09337 0.7002,0 1.63381,0 5.46162,0 8.07572,2.75415 2.66079,2.754149 2.66079,7.608921 0,5.088175 -2.52074,7.702283 -2.52075,2.614108 -7.98237,2.614108 -0.74689,0 -1.54045,-0.04668 -0.79357,0 -1.49378,-0.09337 z m 21.0529,10.26971 q 0,-4.201244 -1.30705,-7.328838 -1.30705,-3.127593 -3.73444,-5.181535 -2.3807,-2.0539424 -5.83506,-3.0809134 -3.45436,-1.026971 -7.74896,-1.026971 -1.96058,0 -4.5747,0.1867219 -2.6141,0.1400416 -5.13485,0.653527 V 38.657083 q 2.52075,0.466806 5.22822,0.606846 2.75415,0.186723 4.71473,0.186723 4.15456,0 7.51556,-0.93361 3.40767,-0.933611 5.83506,-2.940872 2.42739,-2.007262 3.73444,-5.134855 1.30705,-3.127593 1.30705,-7.515561 z" /><path
       inkscape:connector-curvature="0"
       id="path869"
       style="font-style:normal;font-variant:normal;font-weight:bold;font-stretch:normal;font-size:31.99999809px;font-family:Ubuntu;-inkscape-font-specification:'Ubuntu Bold';writing-mode:lr-tb;fill:#f8c723;fill-opacity:1;fill-rule:nonzero;stroke:none;stroke-width:1.45876563"
       d="m 416.16614,12.2826 q 1.54046,0 2.52076,0.233403 1.02696,0.280083 1.63382,0.700208 0.60684,0.466805 0.84024,1.073651 0.23341,0.606847 0.23341,1.353735 0,1.587136 -1.49379,2.614108 -1.49377,1.073651 -5.13484,2.287344 -1.58714,0.560166 -3.17428,1.260374 -1.58714,0.746887 -2.84751,1.82054 -1.26037,1.120331 -2.05395,2.660788 -0.79356,1.587137 -0.79356,3.827801 0,2.240663 0.84025,4.014523 0.84024,1.82054 2.3807,3.080912 1.54046,1.260374 3.73444,1.913902 2.19398,0.700207 4.94814,0.700207 3.26763,0 5.64833,-0.700207 2.38072,-0.700209 3.92117,-1.540458 l -2.10063,-5.7417 q -1.35373,0.700207 -3.03423,1.213693 -1.63382,0.560165 -3.96784,0.560165 -2.6141,0 -3.78112,-0.746888 -1.12033,-0.700207 -1.12033,-2.193984 0,-0.886928 0.42012,-1.493775 0.42012,-0.606846 1.16702,-1.120332 0.79356,-0.466805 1.77386,-0.88693 1.02696,-0.373444 2.24066,-0.793568 2.52074,-0.93361 4.38797,-1.867221 1.86721,-0.886928 3.08091,-2.100621 1.26037,-1.213693 1.86721,-2.847512 0.60686,-1.633816 0.60686,-3.967842 0,-4.528009 -3.17428,-7.0487555 -3.17428,-2.4740665 -9.56951,-2.4740665 -2.1473,0 -3.87447,0.2800831 -1.72718,0.2334024 -3.08092,0.6068465 -1.30705,0.373444 -2.28734,0.7935684 -0.93362,0.4201245 -1.58713,0.7935685 l 2.05393,5.7883815 q 1.4471,-0.793568 3.54772,-1.447095 2.1473,-0.606847 5.22821,-0.606847 z" /><path
       inkscape:connector-curvature="0"
       id="path210"
       style="fill:none;stroke:#eeeeee;stroke-width:3.23176217;stroke-linecap:butt;stroke-linejoin:miter;stroke-miterlimit:10;stroke-dasharray:none;stroke-opacity:1"
       d="M 461.2215,25.23523 V 39.133746" /><path
       inkscape:connector-curvature="0"
       id="path214"
       style="fill:none;stroke:#eeeeee;stroke-width:3.23176217;stroke-linecap:butt;stroke-linejoin:miter;stroke-miterlimit:10;stroke-dasharray:none;stroke-opacity:1"
       d="m 478.40536,35.737809 -11.08234,7.992147 -11.08237,-7.992147" /><path
       inkscape:connector-curvature="0"
       id="path218"
       style="fill:none;stroke:#eeeeee;stroke-width:3.23176217;stroke-linecap:butt;stroke-linejoin:miter;stroke-miterlimit:10;stroke-dasharray:none;stroke-opacity:1"
       d="M 473.01395,40.504658 483.82806,48.3029 498.38069,37.808723" /><path
       inkscape:connector-curvature="0"
       id="path222"
       style="fill:none;stroke:#eeeeee;stroke-width:3.23176217;stroke-linecap:butt;stroke-linejoin:miter;stroke-miterlimit:10;stroke-dasharray:none;stroke-opacity:1"
       d="M 491.36306,25.23523 V 42.869662" /><path
       inkscape:connector-curvature="0"
       id="path226"
       style="fill:none;stroke:#eeeeee;stroke-width:3.23176217;stroke-linecap:butt;stroke-linejoin:miter;stroke-miterlimit:10;stroke-dasharray:none;stroke-opacity:1"
       d="M 460.85859,9.0853228 C 465.65775,6.1767312 471.28877,4.50204 477.31083,4.50204 c 12.39446,0 23.13231,10.005423 28.37358,20.355463 -1.03804,0.818281 -2.15041,1.619112 -4.15085,1.619112 -4.08626,0 -4.75072,-3.342286 -8.07684,-3.342286 -3.32548,0 -3.23048,3.342286 -7.60176,3.342286 -4.37127,0 -5.13139,-3.342286 -8.07746,-3.342286 -3.61053,0 -3.99057,3.342286 -8.07681,3.342286 -4.08625,0 -4.7507,-3.342286 -8.07683,-3.342286 -3.32547,0 -3.23047,3.342286 -7.60175,3.342286 -1.16796,0 -2.07802,-0.238505 -2.84136,-0.588181 l -2.3204,-0.878393 c -2.13362,4.269804 -3.33454,6.177301 -3.33454,11.276375 0,17.553639 14.23073,31.78438 31.78502,31.78438 15.85761,0 29.00313,-11.61366 31.39527,-26.799063"
       sodipodi:nodetypes="cscsssssssccssc" /><path
       inkscape:connector-curvature="0"
       id="path230"
       style="fill:#eeeeee;fill-opacity:0.93627451;fill-rule:nonzero;stroke:#eeeeee;stroke-width:0.64635235;stroke-opacity:1"
       d="m 458.99367,4.0236749 -4.15798,9.7877111 10.55558,-1.290762 z" /><path
       inkscape:connector-curvature="0"
       id="path234"
       style="fill:#eeeeee;fill-opacity:0.93627451;fill-rule:nonzero;stroke:#eeeeee;stroke-width:0.64635235;stroke-opacity:1"
       d="m 503.16086,42.510079 5.823,-8.89898 4.79593,9.491685 z" /><path
       inkscape:connector-curvature="0"
       id="path238"
       style="fill:none;stroke:#eeeeee;stroke-width:1.5;stroke-linecap:butt;stroke-linejoin:miter;stroke-miterlimit:10;stroke-dasharray:none;stroke-opacity:1"
       d="m 449.27367,27.270339 1.10114,0.486395 c 1.12401,0.502862 2.31846,0.74783 3.64736,0.74783 3.13998,0 4.6699,-1.376084 5.78744,-2.379868 0.81312,-0.731026 1.10398,-0.96242 1.81366,-0.96242 0.82735,0 1.33215,0.360018 2.30684,1.107849 1.22742,0.943027 2.90923,2.234439 5.77063,2.234439 2.83685,0 4.44433,-1.273314 5.61874,-2.202122 0.97213,-0.76916 1.48274,-1.140166 2.45873,-1.140166 0.56104,0 0.96759,0.271467 1.90222,0.990858 1.2914,0.992151 3.05983,2.35143 6.1746,2.35143 3.13998,0 4.6699,-1.376084 5.78744,-2.379868 0.81311,-0.731026 1.10398,-0.96242 1.81366,-0.96242 0.82734,0 1.33215,0.360018 2.30684,1.107849 1.22741,0.943027 2.90922,2.234439 5.77064,2.234439 2.82456,0 4.46888,-1.295937 5.45068,-2.069621 l 1.00179,-0.864412"
       sodipodi:nodetypes="ccscscscscscscscc" /><path
       inkscape:connector-curvature="0"
       id="path22"
       style="fill:#eeeeee;fill-opacity:1;fill-rule:nonzero;stroke:none;stroke-width:0.1"
       d="m 200.39078,46.348511 v 13.0649 l -5.148,-11.0996 h -2.851 l -5.149,11.0996 v -13.0649 h -3.958 v 19.3762 h 4.9 l 5.646,-11.8469 5.619,11.8469 h 4.871 v -19.3762 h -3.93" /><path
       inkscape:connector-curvature="0"
       id="path24"
       style="fill:#eeeeee;fill-opacity:1;fill-rule:nonzero;stroke:none;stroke-width:0.1"
       d="m 213.82678,62.098511 v -4.2078 h 9.355 v -3.6262 h -9.355 v -4.2898 h 10.684 v -3.6262 h -15.058 v 19.3762 h 14.753 v -3.6262 h -10.379" /><path
       inkscape:connector-curvature="0"
       id="path26"
       style="fill:#eeeeee;fill-opacity:1;fill-rule:nonzero;stroke:none;stroke-width:0.1"
       d="m 237.11478,62.015711 v -15.6672 h -4.373 v 15.6672 h -5.896 v 3.709 h 16.193 v -3.709 h -5.924" /><path
       inkscape:connector-curvature="0"
       id="path28"
       style="fill:#eeeeee;fill-opacity:1;fill-rule:nonzero;stroke:none;stroke-width:0.1"
       d="m 252.34578,61.157111 -3.072,-7.5293 h 6.117 z m -4.512,-11.0437 -1.521,-3.7649 h -4.512 l 8.414,19.3762 h 4.512 l 8.276,-19.3762 h -4.679 l -1.521,3.7649 h -8.969" /><path
       inkscape:connector-curvature="0"
       id="path30"
       style="fill:#eeeeee;fill-opacity:1;fill-rule:nonzero;stroke:none;stroke-width:0.1"
       d="m 270.12078,49.918811 h 4.319 c 2.076,0 3.321,0.8586 3.321,2.3536 0,1.4113 -1.245,2.2699 -3.321,2.2699 h -4.319 z m 0,8 h 4.319 c 1.632,0 2.657,0.8032 2.657,2.1582 0,1.3293 -1.025,2.0762 -2.657,2.0762 h -4.319 z m 4.539,7.8059 c 4.264,0 6.92,-1.8547 6.92,-4.8445 0,-2.1039 -1.272,-3.7367 -3.348,-4.2621 2.491,-0.4707 4.041,-2.3536 4.041,-4.8993 0,-3.3222 -2.796,-5.3703 -7.308,-5.3703 h -9.217 v 19.3762 h 8.912" /><path
       inkscape:connector-curvature="0"
       id="path32"
       style="fill:#eeeeee;fill-opacity:1;fill-rule:nonzero;stroke:none;stroke-width:0.1"
       d="m 289.37978,56.036011 c 0,-3.4043 2.74,-6.0613 5.979,-6.0613 3.239,0 5.868,2.657 5.868,6.0613 0,3.4055 -2.629,6.0071 -5.868,6.0071 -3.267,0 -5.979,-2.6016 -5.979,-6.0071 z m 16.331,0 c 0,-5.5906 -4.484,-9.8804 -10.408,-9.8804 -5.923,0 -10.406,4.2625 -10.406,9.8804 0,5.6465 4.483,9.8266 10.406,9.8266 5.924,0 10.408,-4.207 10.408,-9.8266" /><path
       inkscape:connector-curvature="0"
       id="path34"
       style="fill:#eeeeee;fill-opacity:1;fill-rule:nonzero;stroke:none;stroke-width:0.1"
       d="m 322.20178,50.168111 v -3.8196 h -12.676 v 19.3762 h 4.373 v -15.5566 h 8.303" /><path
       inkscape:connector-curvature="0"
       id="path36"
       style="fill:#eeeeee;fill-opacity:1;fill-rule:nonzero;stroke:none;stroke-width:0.1"
       d="m 325.20078,46.348511 v 19.3762 h 4.373 v -19.3762 h -4.373" /><path
       inkscape:connector-curvature="0"
       id="path38"
       style="fill:#eeeeee;fill-opacity:1;fill-rule:nonzero;stroke:none;stroke-width:0.1"
       d="m 349.07078,63.814511 -1.69,-3.6257 c -2.048,1.2175 -4.483,1.9929 -6.033,1.9929 -1.467,0 -2.464,-0.5261 -2.464,-1.5781 0,-3.5703 10.324,-1.5781 10.297,-8.5527 0,-3.7918 -3.294,-5.841 -7.585,-5.841 -3.183,0 -6.365,1.2179 -8.553,3.0722 l 1.744,3.5715 c 1.993,-1.7715 4.817,-2.9062 6.866,-2.9062 1.798,0 2.877,0.664 2.877,1.8543 0,3.6535 -10.324,1.5226 -10.324,8.3871 0,3.5156 3.017,5.7293 7.501,5.7293 2.713,0 5.426,-0.8301 7.364,-2.1036" /><path
       inkscape:connector-curvature="0"
       id="path40"
       style="fill:#eeeeee;fill-opacity:1;fill-rule:nonzero;stroke:none;stroke-width:0.1"
       d="m 370.31078,46.348511 v 13.0649 l -5.149,-11.0996 h -2.851 l -5.149,11.0996 v -13.0649 h -3.957 v 19.3762 h 4.899 l 5.646,-11.8469 5.619,11.8469 h 4.871 v -19.3762 h -3.929" /><path
       inkscape:connector-curvature="0"
       id="path42"
       style="fill:#eeeeee;fill-opacity:1;fill-rule:nonzero;stroke:none;stroke-width:0.07105466"
       d="m 395.49363,56.064358 c 0,-3.347384 2.69368,-5.95914 5.87764,-5.95914 3.18396,0 5.76964,2.611756 5.76964,5.95914 0,3.347314 -2.58568,5.904998 -5.76964,5.904998 -3.21096,0 -5.87764,-2.557684 -5.87764,-5.904998 z m 16.05551,0 c 0,-5.497001 -4.40823,-9.715872 -10.23187,-9.715872 -5.82364,0 -10.23258,4.191089 -10.23258,9.715872 0,5.551145 4.40894,9.660378 10.23258,9.660378 5.82364,0 10.23187,-4.135594 10.23187,-9.660378" /><path
       inkscape:connector-curvature="0"
       id="path44"
       style="fill:#eeeeee;fill-opacity:1;fill-rule:nonzero;stroke:none;stroke-width:0.07105466"
       d="M 419.52148,62.023499 V 57.34391 h 8.59974 v -3.59302 h -8.59974 v -7.210912 h -4.29952 v 19.04876 h 13.68797 l -0.027,-3.565239 h -9.36145" /></g></svg>