<?xml version="1.0" encoding="UTF-8" standalone="no"?>
<!-- Created with Inkscape (http://www.inkscape.org/) -->

<svg
   xmlns:dc="http://purl.org/dc/elements/1.1/"
   xmlns:cc="http://creativecommons.org/ns#"
   xmlns:rdf="http://www.w3.org/1999/02/22-rdf-syntax-ns#"
   xmlns:svg="http://www.w3.org/2000/svg"
   xmlns="http://www.w3.org/2000/svg"
   xmlns:sodipodi="http://sodipodi.sourceforge.net/DTD/sodipodi-0.dtd"
   xmlns:inkscape="http://www.inkscape.org/namespaces/inkscape"
   version="1.1"
   id="svg2"
   xml:space="preserve"
   width="417.8241"
   height="146.55466"
   viewBox="0 0 417.8241 146.55466"
   sodipodi:docname="logo.svg"
   inkscape:version="0.92.4 5da689c313, 2019-01-14"><metadata
     id="metadata8"><rdf:RDF><cc:Work
         rdf:about=""><dc:format>image/svg+xml</dc:format><dc:type
           rdf:resource="http://purl.org/dc/dcmitype/StillImage" /><dc:title></dc:title></cc:Work></rdf:RDF></metadata><defs
     id="defs6" /><sodipodi:namedview
     pagecolor="#ffffff"
     bordercolor="#666666"
     borderopacity="1"
     objecttolerance="10"
     gridtolerance="10"
     guidetolerance="10"
     inkscape:pageopacity="0"
     inkscape:pageshadow="2"
     inkscape:window-width="1920"
     inkscape:window-height="1080"
     id="namedview4"
     showgrid="false"
     inkscape:zoom="1.2895667"
     inkscape:cx="86.054073"
     inkscape:cy="213.13944"
     inkscape:window-x="0"
     inkscape:window-y="0"
     inkscape:window-maximized="0"
     inkscape:current-layer="g10"
     fit-margin-top="0"
     fit-margin-left="0"
     fit-margin-right="0"
     fit-margin-bottom="0" /><g
     id="g10"
     inkscape:groupmode="layer"
     inkscape:label="ink_ext_XXXXXX"
     transform="matrix(1.3333333,0,0,-1.3333333,-199.29174,111.65922)"><path
       inkscape:connector-curvature="0"
       id="path14"
       style="fill:#cf3c21;fill-opacity:1;fill-rule:nonzero;stroke:none;stroke-width:0.1"
       d="m 169.69151,-9.112981 v 40.0312 l 14.8578,0.0032 v 28.8875 h 26.4113 v -28.8907 h 6.6039 v -16.5058 h 4.127 v 42.0945 h 23.525 v -8e-4 -5.7773 h -17.7481 v -42.0957 h -15.682 v 16.5078 h -6.6024 v 28.8918 h -14.8578 v -28.8918 h -14.8562 v -34.2539 h -5.7785 v 0" /><path
       inkscape:connector-curvature="0"
       id="path16"
       style="fill:#cf3c21;fill-opacity:1;fill-rule:nonzero;stroke:none;stroke-width:0.1"
       d="m 155.24654,31.744419 c 0.002,12.7742 5.16997,24.3106 13.53867,32.6856 8.3746,8.3679 19.9109,13.5354 32.684,13.5374 8.4484,-0.002 16.3488,-2.274 23.1578,-6.2257 l 8.2117,1.4707 c -8.7199,6.606 -19.5844,10.531 -31.3695,10.532 -28.7199,-10e-4 -51.99884,-23.2805 -52.0004,-52 0.001,-19.2461 10.4625,-36.0332 26.0012,-45.0254 v 6.8086 c -2.3977,1.6348 -4.6367,3.4863 -6.6848,5.5332 -8.3687,8.3731 -13.5371,19.9102 -13.53867,32.6836 z m 91.95937,24.7617 h -6.7144 c 4.5535,-7.1593 7.1996,-15.6406 7.2003,-24.7617 -0.001,-12.7734 -5.1703,-24.3105 -13.539,-32.6836 -8.3738,-8.3691 -19.9106,-13.5371 -32.6836,-13.539 -3.2555,0.0019 -6.4285,0.3418 -9.4914,0.9804 v -5.87692 c 3.0789,-0.56875 6.2476,-0.88086 9.4914,-0.88086 28.7207,0.002 51.9996,23.27928 52.0006,51.99998 -0.001,8.9649 -2.27,17.3992 -6.2639,24.7617" /><path
       inkscape:connector-curvature="0"
       id="path18"
       style="fill:#cf3c21;fill-opacity:1;fill-rule:nonzero;stroke:none;stroke-width:0.1"
       d="m 195.96721,-16.665721 v -9.50586 l -6.6035,4.75391 -6.6035,4.75195 6.6035,4.75194 6.6035,4.7539 v -9.50584" /><path
       inkscape:connector-curvature="0"
       id="path20"
       style="fill:#cf3c21;fill-opacity:1;fill-rule:nonzero;stroke:none;stroke-width:0.1"
       d="m 225.61411,74.727419 6.5086,6.929 1.559,-7.985 1.559,-7.9856 -8.0672,1.0574 -8.0668,1.0559 6.5074,6.9283" /><path
       inkscape:connector-curvature="0"
       id="path22"
       style="fill:#393536;fill-opacity:1;fill-rule:nonzero;stroke:none;stroke-width:0.1"
       d="m 288.70581,33.610419 v 13.0649 l -5.148,-11.0996 h -2.851 l -5.149,11.0996 v -13.0649 h -3.958 v 19.3762 h 4.9 l 5.646,-11.8469 5.619,11.8469 h 4.871 v -19.3762 h -3.93" /><path
       inkscape:connector-curvature="0"
       id="path24"
       style="fill:#393536;fill-opacity:1;fill-rule:nonzero;stroke:none;stroke-width:0.1"
       d="m 302.14181,49.360419 v -4.2078 h 9.355 v -3.6262 h -9.355 v -4.2898 h 10.684 v -3.6262 h -15.058 v 19.3762 h 14.753 v -3.6262 h -10.379" /><path
       inkscape:connector-curvature="0"
       id="path26"
       style="fill:#393536;fill-opacity:1;fill-rule:nonzero;stroke:none;stroke-width:0.1"
       d="m 325.42981,49.277619 v -15.6672 h -4.373 v 15.6672 h -5.896 v 3.709 h 16.193 v -3.709 h -5.924" /><path
       inkscape:connector-curvature="0"
       id="path28"
       style="fill:#393536;fill-opacity:1;fill-rule:nonzero;stroke:none;stroke-width:0.1"
       d="m 340.66081,48.419019 -3.072,-7.5293 h 6.117 z m -4.512,-11.0437 -1.521,-3.7649 h -4.512 l 8.414,19.3762 h 4.512 l 8.276,-19.3762 h -4.679 l -1.521,3.7649 h -8.969" /><path
       inkscape:connector-curvature="0"
       id="path30"
       style="fill:#393536;fill-opacity:1;fill-rule:nonzero;stroke:none;stroke-width:0.1"
       d="m 358.43581,37.180719 h 4.319 c 2.076,0 3.321,0.8586 3.321,2.3536 0,1.4113 -1.245,2.2699 -3.321,2.2699 h -4.319 z m 0,8 h 4.319 c 1.632,0 2.657,0.8032 2.657,2.1582 0,1.3293 -1.025,2.0762 -2.657,2.0762 h -4.319 z m 4.539,7.8059 c 4.264,0 6.92,-1.8547 6.92,-4.8445 0,-2.1039 -1.272,-3.7367 -3.348,-4.2621 2.491,-0.4707 4.041,-2.3536 4.041,-4.8993 0,-3.3222 -2.796,-5.3703 -7.308,-5.3703 h -9.217 v 19.3762 h 8.912" /><path
       inkscape:connector-curvature="0"
       id="path32"
       style="fill:#393536;fill-opacity:1;fill-rule:nonzero;stroke:none;stroke-width:0.1"
       d="m 377.69481,43.297919 c 0,-3.4043 2.74,-6.0613 5.979,-6.0613 3.239,0 5.868,2.657 5.868,6.0613 0,3.4055 -2.629,6.0071 -5.868,6.0071 -3.267,0 -5.979,-2.6016 -5.979,-6.0071 z m 16.331,0 c 0,-5.5906 -4.484,-9.8804 -10.408,-9.8804 -5.923,0 -10.406,4.2625 -10.406,9.8804 0,5.6465 4.483,9.8266 10.406,9.8266 5.924,0 10.408,-4.207 10.408,-9.8266" /><path
       inkscape:connector-curvature="0"
       id="path34"
       style="fill:#393536;fill-opacity:1;fill-rule:nonzero;stroke:none;stroke-width:0.1"
       d="m 410.51681,37.430019 v -3.8196 h -12.676 v 19.3762 h 4.373 v -15.5566 h 8.303" /><path
       inkscape:connector-curvature="0"
       id="path36"
       style="fill:#393536;fill-opacity:1;fill-rule:nonzero;stroke:none;stroke-width:0.1"
       d="m 413.51581,33.610419 v 19.3762 h 4.373 v -19.3762 h -4.373" /><path
       inkscape:connector-curvature="0"
       id="path38"
       style="fill:#393536;fill-opacity:1;fill-rule:nonzero;stroke:none;stroke-width:0.1"
       d="m 437.38581,51.076419 -1.69,-3.6257 c -2.048,1.2175 -4.483,1.9929 -6.033,1.9929 -1.467,0 -2.464,-0.5261 -2.464,-1.5781 0,-3.5703 10.324,-1.5781 10.297,-8.5527 0,-3.7918 -3.294,-5.841 -7.585,-5.841 -3.183,0 -6.365,1.2179 -8.553,3.0722 l 1.744,3.5715 c 1.993,-1.7715 4.817,-2.9062 6.866,-2.9062 1.798,0 2.877,0.664 2.877,1.8543 0,3.6535 -10.324,1.5226 -10.324,8.3871 0,3.5156 3.017,5.7293 7.501,5.7293 2.713,0 5.426,-0.8301 7.364,-2.1036" /><path
       inkscape:connector-curvature="0"
       id="path40"
       style="fill:#393536;fill-opacity:1;fill-rule:nonzero;stroke:none;stroke-width:0.1"
       d="m 458.62581,33.610419 v 13.0649 l -5.149,-11.0996 h -2.851 l -5.149,11.0996 v -13.0649 h -3.957 v 19.3762 h 4.899 l 5.646,-11.8469 5.619,11.8469 h 4.871 v -19.3762 h -3.929" /><path
       inkscape:connector-curvature="0"
       id="path42"
       style="fill:#393536;fill-opacity:1;fill-rule:nonzero;stroke:none;stroke-width:0.1"
       d="m 276.70781,12.066719 c 0,-4.711 3.791,-8.3867 8.272,-8.3867 4.481,0 8.12,3.6757 8.12,8.3867 0,4.7109 -3.639,8.3105 -8.12,8.3105 -4.519,0 -8.272,-3.5996 -8.272,-8.3105 z m 22.596,0 c 0,-7.7363 -6.204,-13.6738 -14.4,-13.6738 -8.196,0 -14.401,5.8984 -14.401,13.6738 0,7.8125 6.205,13.5957 14.401,13.5957 8.196,0 14.4,-5.8203 14.4,-13.5957" /><path
       inkscape:connector-curvature="0"
       id="path44"
       style="fill:#393536;fill-opacity:1;fill-rule:nonzero;stroke:none;stroke-width:0.1"
       d="m 310.52381,20.453419 v -6.5859 h 12.103 v -5.0567 h -12.103 v -10.1484 h -6.051 v 26.8086 h 19.264 l -0.038,-5.0176 h -13.175" /><path
       inkscape:connector-curvature="0"
       id="path46"
       style="fill:#cf3c21;fill-opacity:1;fill-rule:nonzero;stroke:none;stroke-width:0.1"
       d="m 362.49481,21.221019 -3.525,-4.291 c -1.837,2.1074 -4.481,3.4863 -6.969,3.4863 -4.597,0 -8.158,-3.5625 -8.158,-8.2344 0,-4.6719 3.561,-8.2734 8.158,-8.2734 2.412,0 5.054,1.2265 6.969,3.1406 l 3.562,-3.8672 c -2.834,-2.9121 -6.932,-4.789 -10.838,-4.789 -8.005,0 -14.057,5.9375 -14.057,13.7128 0,7.7364 6.166,13.5567 14.287,13.5567 3.868,0 7.928,-1.7227 10.571,-4.4414" /><path
       inkscape:connector-curvature="0"
       id="path48"
       style="fill:#cf3c21;fill-opacity:1;fill-rule:nonzero;stroke:none;stroke-width:0.1"
       d="m 367.00481,-1.337581 v 26.8086 h 6.05 v -26.8086 h -6.05" /><path
       inkscape:connector-curvature="0"
       id="path50"
       style="fill:#cf3c21;fill-opacity:1;fill-rule:nonzero;stroke:none;stroke-width:0.1"
       d="m 391.10381,20.340119 v -21.6777 h -6.051 v 21.6777 h -8.158 v 5.1309 h 22.406 v -5.1309 h -8.197" /><path
       inkscape:connector-curvature="0"
       id="path52"
       style="fill:#cf3c21;fill-opacity:1;fill-rule:nonzero;stroke:none;stroke-width:0.1"
       d="m 403.17881,-1.337581 v 26.8086 h 6.052 v -26.8086 h -6.052" /><path
       inkscape:connector-curvature="0"
       id="path54"
       style="fill:#cf3c21;fill-opacity:1;fill-rule:nonzero;stroke:none;stroke-width:0.1"
       d="m 422.17081,20.453419 v -5.8203 h 12.945 v -5.0176 h -12.945 v -5.9355 h 14.784 v -5.0176 h -20.835 v 26.8086 h 20.414 v -5.0176 h -14.363" /><path
       inkscape:connector-curvature="0"
       id="path56"
       style="fill:#cf3c21;fill-opacity:1;fill-rule:nonzero;stroke:none;stroke-width:0.1"
       d="m 462.68181,22.828419 -2.336,-5.0176 c -2.834,1.6856 -6.204,2.7578 -8.349,2.7578 -2.029,0 -3.408,-0.7265 -3.408,-2.1816 0,-4.9414 14.285,-2.1836 14.248,-11.8359 0,-5.2461 -4.559,-8.0801 -10.494,-8.0801 -4.405,0 -8.81,1.6855 -11.835,4.25 l 2.413,4.9414 c 2.757,-2.4512 6.664,-4.0215 9.498,-4.0215 2.489,0 3.982,0.9199 3.982,2.5664 0,5.0547 -14.285,2.1055 -14.285,11.6035 0,4.8653 4.175,7.9278 10.379,7.9278 3.754,0 7.507,-1.1485 10.187,-2.9102" /></g></svg>