<?xml version="1.0" encoding="UTF-8" standalone="no"?>
<!-- Created with Inkscape (http://www.inkscape.org/) -->

<svg
   xmlns:dc="http://purl.org/dc/elements/1.1/"
   xmlns:cc="http://creativecommons.org/ns#"
   xmlns:rdf="http://www.w3.org/1999/02/22-rdf-syntax-ns#"
   xmlns:svg="http://www.w3.org/2000/svg"
   xmlns="http://www.w3.org/2000/svg"
   xmlns:sodipodi="http://sodipodi.sourceforge.net/DTD/sodipodi-0.dtd"
   xmlns:inkscape="http://www.inkscape.org/namespaces/inkscape"
   version="1.1"
   id="svg2"
   xml:space="preserve"
   width="434.36893"
   height="91.809341"
   viewBox="0 0 434.36894 91.809339"
   sodipodi:docname="logo-dark.svg"
   inkscape:version="0.92.4 (5da689c313, 2019-01-14)"><metadata
     id="metadata8"><rdf:RDF><cc:Work
         rdf:about=""><dc:format>image/svg+xml</dc:format><dc:type
           rdf:resource="http://purl.org/dc/dcmitype/StillImage" /><dc:title></dc:title></cc:Work></rdf:RDF></metadata><defs
     id="defs6" /><sodipodi:namedview
     pagecolor="#ffffff"
     bordercolor="#666666"
     borderopacity="1"
     objecttolerance="10"
     gridtolerance="10"
     guidetolerance="10"
     inkscape:pageopacity="0"
     inkscape:pageshadow="2"
     inkscape:window-width="1366"
     inkscape:window-height="748"
     id="namedview4"
     showgrid="false"
     inkscape:zoom="0.91186135"
     inkscape:cx="76.177048"
     inkscape:cy="42.723359"
     inkscape:window-x="0"
     inkscape:window-y="0"
     inkscape:window-maximized="1"
     inkscape:current-layer="g10"
     fit-margin-top="0"
     fit-margin-left="0"
     fit-margin-right="0"
     fit-margin-bottom="0"
     units="px"
     width="600mm" /><g
     id="g10"
     inkscape:groupmode="layer"
     inkscape:label="ink_ext_XXXXXX"
     transform="matrix(1.3333333,0,0,-1.3333333,-244.3797,94.286559)"><path
       inkscape:connector-curvature="0"
       id="path14"
       style="fill:#454545;fill-opacity:1;fill-rule:nonzero;stroke:none;stroke-width:0.06264512"
       d="m 456.57847,12.544294 v 25.077593 l 9.30767,0.0018 v 18.096539 h 16.54541 V 37.621702 h 4.13701 V 27.28163 h 2.58537 v 26.370148 h 14.73725 v -5.04e-4 -3.619198 h -11.1183 V 23.661183 h -9.82402 v 10.341332 h -4.13608 V 52.101807 H 469.5051 V 34.002515 h -9.30668 V 12.544294 h -3.61995 v 0" /><path
       inkscape:connector-curvature="0"
       id="path16"
       style="fill:#454545;fill-opacity:1;fill-rule:nonzero;stroke:none;stroke-width:0.06264512"
       d="m 447.52939,38.139462 c 9.3e-4,8.002415 3.23875,15.229407 8.48133,20.475934 5.24628,5.242084 12.4732,8.479263 20.47492,8.480521 5.29251,-9.2e-4 10.24172,-1.424551 14.50723,-3.900098 l 5.14424,0.921325 c -5.46259,4.138334 -12.26869,6.597152 -19.65147,6.597777 -17.99161,-6.25e-4 -32.57473,-14.584097 -32.57571,-32.575459 6.2e-4,-12.056743 6.55424,-22.573035 16.28849,-28.2062178 v 4.2652608 c -1.50205,1.024125 -2.90467,2.183997 -4.1877,3.46628 -5.24258,5.245335 -8.48034,12.472767 -8.48133,20.474677 z m 57.60806,15.511996 h -4.20625 c 2.85255,-4.484952 4.5102,-9.798068 4.51064,-15.511996 -6.2e-4,-8.00191 -3.23894,-15.229342 -8.48151,-20.474677 -5.24579,-5.242836 -12.47303,-8.4803367 -20.47469,-8.4815217 -2.03941,9.183e-4 -4.02714,0.2141182 -5.9459,0.6141673 V 6.1158309 c 1.92878,-0.3562931 3.91382,-0.5518105 5.9459,-0.5518105 17.99212,9.183e-4 32.57521,14.5833266 32.57584,32.5754416 -6.3e-4,5.616077 -1.42205,10.899752 -3.92403,15.511996" /><path
       inkscape:connector-curvature="0"
       id="path18"
       style="fill:#454545;fill-opacity:1;fill-rule:nonzero;stroke:none;stroke-width:0.06264512"
       d="M 473.03891,7.8128713 V 1.8579154 l -4.13677,2.9780937 -4.13677,2.9768622 4.13677,2.9768617 4.13677,2.978085 V 7.8128713" /><path
       inkscape:connector-curvature="0"
       id="path20"
       style="fill:#454545;fill-opacity:1;fill-rule:nonzero;stroke:none;stroke-width:0.06264512"
       d="m 491.61125,65.066215 4.07732,4.34068 0.97664,-5.002214 0.97662,-5.00259 -5.05369,0.662414 -5.05346,0.661468 4.07657,4.340242" /><path
       inkscape:connector-curvature="0"
       id="path22"
       style="fill:#454545;fill-opacity:1;fill-rule:nonzero;stroke:none;stroke-width:0.1"
       d="m 200.39078,46.348511 v 13.0649 l -5.148,-11.0996 h -2.851 l -5.149,11.0996 v -13.0649 h -3.958 v 19.3762 h 4.9 l 5.646,-11.8469 5.619,11.8469 h 4.871 v -19.3762 h -3.93" /><path
       inkscape:connector-curvature="0"
       id="path24"
       style="fill:#454545;fill-opacity:1;fill-rule:nonzero;stroke:none;stroke-width:0.1"
       d="m 213.82678,62.098511 v -4.2078 h 9.355 v -3.6262 h -9.355 v -4.2898 h 10.684 v -3.6262 h -15.058 v 19.3762 h 14.753 v -3.6262 h -10.379" /><path
       inkscape:connector-curvature="0"
       id="path26"
       style="fill:#454545;fill-opacity:1;fill-rule:nonzero;stroke:none;stroke-width:0.1"
       d="m 237.11478,62.015711 v -15.6672 h -4.373 v 15.6672 h -5.896 v 3.709 h 16.193 v -3.709 h -5.924" /><path
       inkscape:connector-curvature="0"
       id="path28"
       style="fill:#454545;fill-opacity:1;fill-rule:nonzero;stroke:none;stroke-width:0.1"
       d="m 252.34578,61.157111 -3.072,-7.5293 h 6.117 z m -4.512,-11.0437 -1.521,-3.7649 h -4.512 l 8.414,19.3762 h 4.512 l 8.276,-19.3762 h -4.679 l -1.521,3.7649 h -8.969" /><path
       inkscape:connector-curvature="0"
       id="path30"
       style="fill:#454545;fill-opacity:1;fill-rule:nonzero;stroke:none;stroke-width:0.1"
       d="m 270.12078,49.918811 h 4.319 c 2.076,0 3.321,0.8586 3.321,2.3536 0,1.4113 -1.245,2.2699 -3.321,2.2699 h -4.319 z m 0,8 h 4.319 c 1.632,0 2.657,0.8032 2.657,2.1582 0,1.3293 -1.025,2.0762 -2.657,2.0762 h -4.319 z m 4.539,7.8059 c 4.264,0 6.92,-1.8547 6.92,-4.8445 0,-2.1039 -1.272,-3.7367 -3.348,-4.2621 2.491,-0.4707 4.041,-2.3536 4.041,-4.8993 0,-3.3222 -2.796,-5.3703 -7.308,-5.3703 h -9.217 v 19.3762 h 8.912" /><path
       inkscape:connector-curvature="0"
       id="path32"
       style="fill:#454545;fill-opacity:1;fill-rule:nonzero;stroke:none;stroke-width:0.1"
       d="m 289.37978,56.036011 c 0,-3.4043 2.74,-6.0613 5.979,-6.0613 3.239,0 5.868,2.657 5.868,6.0613 0,3.4055 -2.629,6.0071 -5.868,6.0071 -3.267,0 -5.979,-2.6016 -5.979,-6.0071 z m 16.331,0 c 0,-5.5906 -4.484,-9.8804 -10.408,-9.8804 -5.923,0 -10.406,4.2625 -10.406,9.8804 0,5.6465 4.483,9.8266 10.406,9.8266 5.924,0 10.408,-4.207 10.408,-9.8266" /><path
       inkscape:connector-curvature="0"
       id="path34"
       style="fill:#454545;fill-opacity:1;fill-rule:nonzero;stroke:none;stroke-width:0.1"
       d="m 322.20178,50.168111 v -3.8196 h -12.676 v 19.3762 h 4.373 v -15.5566 h 8.303" /><path
       inkscape:connector-curvature="0"
       id="path36"
       style="fill:#454545;fill-opacity:1;fill-rule:nonzero;stroke:none;stroke-width:0.1"
       d="m 325.20078,46.348511 v 19.3762 h 4.373 v -19.3762 h -4.373" /><path
       inkscape:connector-curvature="0"
       id="path38"
       style="fill:#454545;fill-opacity:1;fill-rule:nonzero;stroke:none;stroke-width:0.1"
       d="m 349.07078,63.814511 -1.69,-3.6257 c -2.048,1.2175 -4.483,1.9929 -6.033,1.9929 -1.467,0 -2.464,-0.5261 -2.464,-1.5781 0,-3.5703 10.324,-1.5781 10.297,-8.5527 0,-3.7918 -3.294,-5.841 -7.585,-5.841 -3.183,0 -6.365,1.2179 -8.553,3.0722 l 1.744,3.5715 c 1.993,-1.7715 4.817,-2.9062 6.866,-2.9062 1.798,0 2.877,0.664 2.877,1.8543 0,3.6535 -10.324,1.5226 -10.324,8.3871 0,3.5156 3.017,5.7293 7.501,5.7293 2.713,0 5.426,-0.8301 7.364,-2.1036" /><path
       inkscape:connector-curvature="0"
       id="path40"
       style="fill:#454545;fill-opacity:1;fill-rule:nonzero;stroke:none;stroke-width:0.1"
       d="m 370.31078,46.348511 v 13.0649 l -5.149,-11.0996 h -2.851 l -5.149,11.0996 v -13.0649 h -3.957 v 19.3762 h 4.899 l 5.646,-11.8469 5.619,11.8469 h 4.871 v -19.3762 h -3.929" /><path
       inkscape:connector-curvature="0"
       id="path42"
       style="fill:#454545;fill-opacity:1;fill-rule:nonzero;stroke:none;stroke-width:0.07105466"
       d="m 395.49363,56.064358 c 0,-3.347384 2.69368,-5.95914 5.87764,-5.95914 3.18396,0 5.76964,2.611756 5.76964,5.95914 0,3.347314 -2.58568,5.904998 -5.76964,5.904998 -3.21096,0 -5.87764,-2.557684 -5.87764,-5.904998 z m 16.05551,0 c 0,-5.497001 -4.40823,-9.715872 -10.23187,-9.715872 -5.82364,0 -10.23258,4.191089 -10.23258,9.715872 0,5.551145 4.40894,9.660378 10.23258,9.660378 5.82364,0 10.23187,-4.135594 10.23187,-9.660378" /><path
       inkscape:connector-curvature="0"
       id="path44"
       style="fill:#454545;fill-opacity:1;fill-rule:nonzero;stroke:none;stroke-width:0.07105466"
       d="M 419.52148,62.023499 V 57.34391 h 8.59974 v -3.59302 h -8.59974 v -7.210912 h -4.29952 v 19.04876 h 13.68797 l -0.027,-3.565239 h -9.36145" /><path
       inkscape:connector-curvature="0"
       id="path46"
       style="fill:#e95420;fill-opacity:1;fill-rule:nonzero;stroke:none;stroke-width:0.1"
       d="m 321.06786,29.482825 -3.525,-4.291 c -1.837,2.1074 -4.481,3.4863 -6.969,3.4863 -4.597,0 -8.158,-3.5625 -8.158,-8.2344 0,-4.671899 3.561,-8.273399 8.158,-8.273399 2.412,0 5.054,1.2265 6.969,3.1406 l 3.562,-3.8672 c -2.834,-2.9121002 -6.932,-4.7890003 -10.838,-4.7890003 -8.005,0 -14.057,5.9375003 -14.057,13.7127993 0,7.7364 6.166,13.5567 14.287,13.5567 3.868,0 7.928,-1.7227 10.571,-4.4414" /><path
       inkscape:connector-curvature="0"
       id="path48"
       style="fill:#e95420;fill-opacity:1;fill-rule:nonzero;stroke:none;stroke-width:0.1"
       d="M 327.07786,6.9242257 V 33.732825 h 6.05 V 6.9242257 h -6.05" /><path
       inkscape:connector-curvature="0"
       id="path50"
       style="fill:#e95420;fill-opacity:1;fill-rule:nonzero;stroke:none;stroke-width:0.1"
       d="M 352.67686,28.601925 V 6.9242257 h -6.051 V 28.601925 h -8.158 v 5.1309 h 22.406 v -5.1309 h -8.197" /><path
       inkscape:connector-curvature="0"
       id="path52"
       style="fill:#e95420;fill-opacity:1;fill-rule:nonzero;stroke:none;stroke-width:0.1"
       d="M 366.25186,6.9242257 V 33.732825 h 6.052 V 6.9242257 h -6.052" /><path
       inkscape:connector-curvature="0"
       id="path54"
       style="fill:#e95420;fill-opacity:1;fill-rule:nonzero;stroke:none;stroke-width:0.1"
       d="m 386.74386,28.715225 v -5.8203 h 12.945 v -5.017599 h -12.945 v -5.9355 h 14.784 V 6.9242257 h -20.835 V 33.732825 h 20.414 v -5.0176 h -14.363" /><path
       inkscape:connector-curvature="0"
       id="path56"
       style="fill:#e95420;fill-opacity:1;fill-rule:nonzero;stroke:none;stroke-width:0.1"
       d="m 428.75486,31.090225 -2.336,-5.0176 c -2.834,1.6856 -6.204,2.7578 -8.349,2.7578 -2.029,0 -3.408,-0.7265 -3.408,-2.1816 0,-4.9414 14.285,-2.1836 14.248,-11.835899 0,-5.2461012 -4.559,-8.0801003 -10.494,-8.0801003 -4.405,0 -8.81,1.6855 -11.835,4.2500003 l 2.413,4.9414 c 2.757,-2.4512 6.664,-4.0215 9.498,-4.0215 2.489,0 3.982,0.9199 3.982,2.5664 0,5.054699 -14.285,2.1055 -14.285,11.603499 0,4.8653 4.175,7.9278 10.379,7.9278 3.754,0 7.507,-1.1485 10.187,-2.9102" /></g></svg>