<?xml version="1.0" encoding="UTF-8" standalone="no"?>
<!-- Created with Inkscape (http://www.inkscape.org/) -->

<svg
   xmlns:dc="http://purl.org/dc/elements/1.1/"
   xmlns:cc="http://creativecommons.org/ns#"
   xmlns:rdf="http://www.w3.org/1999/02/22-rdf-syntax-ns#"
   xmlns:svg="http://www.w3.org/2000/svg"
   xmlns="http://www.w3.org/2000/svg"
   xmlns:sodipodi="http://sodipodi.sourceforge.net/DTD/sodipodi-0.dtd"
   xmlns:inkscape="http://www.inkscape.org/namespaces/inkscape"
   version="1.1"
   id="svg2"
   xml:space="preserve"
   width="435"
   height="100"
   viewBox="0 0 435.00002 99.999997"
   sodipodi:docname="logo.svg"
   inkscape:version="0.92.4 5da689c313, 2019-01-14"><metadata
     id="metadata8"><rdf:RDF><cc:Work
         rdf:about=""><dc:format>image/svg+xml</dc:format><dc:type
           rdf:resource="http://purl.org/dc/dcmitype/StillImage" /><dc:title></dc:title></cc:Work></rdf:RDF></metadata><defs
     id="defs6" /><sodipodi:namedview
     pagecolor="#ffffff"
     bordercolor="#666666"
     borderopacity="1"
     objecttolerance="10"
     gridtolerance="10"
     guidetolerance="10"
     inkscape:pageopacity="0"
     inkscape:pageshadow="2"
     inkscape:window-width="1278"
     inkscape:window-height="1403"
     id="namedview4"
     showgrid="false"
     inkscape:zoom="1.8237227"
     inkscape:cx="210.33663"
     inkscape:cy="-22.180961"
     inkscape:window-x="1280"
     inkscape:window-y="18"
     inkscape:window-maximized="0"
     inkscape:current-layer="g10"
     fit-margin-top="0"
     fit-margin-left="0"
     fit-margin-right="0"
     fit-margin-bottom="0"
     units="px"
     width="600mm" /><g
     id="g10"
     inkscape:groupmode="layer"
     inkscape:label="ink_ext_XXXXXX"
     transform="matrix(1.3333333,0,0,-1.3333333,-244.3797,98.38189)"><path
       inkscape:connector-curvature="0"
       id="path14"
       style="fill:#eeeeee;fill-opacity:1;fill-rule:nonzero;stroke:none;stroke-width:0.06264512"
       d="m 456.57847,12.544294 v 25.077593 l 9.30767,0.0018 v 18.096539 h 16.54541 V 37.621702 h 4.13701 V 27.28163 h 2.58537 v 26.370148 h 14.73725 v -5.04e-4 -3.619198 h -11.1183 V 23.661183 h -9.82402 v 10.341332 h -4.13608 V 52.101807 H 469.5051 V 34.002515 h -9.30668 V 12.544294 h -3.61995 v 0" /><path
       inkscape:connector-curvature="0"
       id="path16"
       style="fill:#eeeeee;fill-opacity:1;fill-rule:nonzero;stroke:none;stroke-width:0.06264512"
       d="m 447.52939,38.139462 c 9.3e-4,8.002415 3.23875,15.229407 8.48133,20.475934 5.24628,5.242084 12.4732,8.479263 20.47492,8.480521 5.29251,-9.2e-4 10.24172,-1.424551 14.50723,-3.900098 l 5.14424,0.921325 c -5.46259,4.138334 -12.26869,6.597152 -19.65147,6.597777 -17.99161,-6.25e-4 -32.57473,-14.584097 -32.57571,-32.575459 6.2e-4,-12.056743 6.55424,-22.573035 16.28849,-28.2062178 v 4.2652608 c -1.50205,1.024125 -2.90467,2.183997 -4.1877,3.46628 -5.24258,5.245335 -8.48034,12.472767 -8.48133,20.474677 z m 57.60806,15.511996 h -4.20625 c 2.85255,-4.484952 4.5102,-9.798068 4.51064,-15.511996 -6.2e-4,-8.00191 -3.23894,-15.229342 -8.48151,-20.474677 -5.24579,-5.242836 -12.47303,-8.4803367 -20.47469,-8.4815217 -2.03941,9.183e-4 -4.02714,0.2141182 -5.9459,0.6141673 V 6.1158309 c 1.92878,-0.3562931 3.91382,-0.5518105 5.9459,-0.5518105 17.99212,9.183e-4 32.57521,14.5833266 32.57584,32.5754416 -6.3e-4,5.616077 -1.42205,10.899752 -3.92403,15.511996" /><path
       inkscape:connector-curvature="0"
       id="path18"
       style="fill:#eeeeee;fill-opacity:1;fill-rule:nonzero;stroke:none;stroke-width:0.06264512"
       d="M 473.03891,7.8128713 V 1.8579154 l -4.13677,2.9780937 -4.13677,2.9768622 4.13677,2.9768617 4.13677,2.978085 V 7.8128713" /><path
       inkscape:connector-curvature="0"
       id="path20"
       style="fill:#eeeeee;fill-opacity:1;fill-rule:nonzero;stroke:none;stroke-width:0.06264512"
       d="m 491.61125,65.066215 4.07732,4.34068 0.97664,-5.002214 0.97662,-5.00259 -5.05369,0.662414 -5.05346,0.661468 4.07657,4.340242" /><path
       inkscape:connector-curvature="0"
       id="path22"
       style="fill:#eeeeee;fill-opacity:1;fill-rule:nonzero;stroke:none;stroke-width:0.1"
       d="m 200.39078,46.348511 v 13.0649 l -5.148,-11.0996 h -2.851 l -5.149,11.0996 v -13.0649 h -3.958 v 19.3762 h 4.9 l 5.646,-11.8469 5.619,11.8469 h 4.871 v -19.3762 h -3.93" /><path
       inkscape:connector-curvature="0"
       id="path24"
       style="fill:#eeeeee;fill-opacity:1;fill-rule:nonzero;stroke:none;stroke-width:0.1"
       d="m 213.82678,62.098511 v -4.2078 h 9.355 v -3.6262 h -9.355 v -4.2898 h 10.684 v -3.6262 h -15.058 v 19.3762 h 14.753 v -3.6262 h -10.379" /><path
       inkscape:connector-curvature="0"
       id="path26"
       style="fill:#eeeeee;fill-opacity:1;fill-rule:nonzero;stroke:none;stroke-width:0.1"
       d="m 237.11478,62.015711 v -15.6672 h -4.373 v 15.6672 h -5.896 v 3.709 h 16.193 v -3.709 h -5.924" /><path
       inkscape:connector-curvature="0"
       id="path28"
       style="fill:#eeeeee;fill-opacity:1;fill-rule:nonzero;stroke:none;stroke-width:0.1"
       d="m 252.34578,61.157111 -3.072,-7.5293 h 6.117 z m -4.512,-11.0437 -1.521,-3.7649 h -4.512 l 8.414,19.3762 h 4.512 l 8.276,-19.3762 h -4.679 l -1.521,3.7649 h -8.969" /><path
       inkscape:connector-curvature="0"
       id="path30"
       style="fill:#eeeeee;fill-opacity:1;fill-rule:nonzero;stroke:none;stroke-width:0.1"
       d="m 270.12078,49.918811 h 4.319 c 2.076,0 3.321,0.8586 3.321,2.3536 0,1.4113 -1.245,2.2699 -3.321,2.2699 h -4.319 z m 0,8 h 4.319 c 1.632,0 2.657,0.8032 2.657,2.1582 0,1.3293 -1.025,2.0762 -2.657,2.0762 h -4.319 z m 4.539,7.8059 c 4.264,0 6.92,-1.8547 6.92,-4.8445 0,-2.1039 -1.272,-3.7367 -3.348,-4.2621 2.491,-0.4707 4.041,-2.3536 4.041,-4.8993 0,-3.3222 -2.796,-5.3703 -7.308,-5.3703 h -9.217 v 19.3762 h 8.912" /><path
       inkscape:connector-curvature="0"
       id="path32"
       style="fill:#eeeeee;fill-opacity:1;fill-rule:nonzero;stroke:none;stroke-width:0.1"
       d="m 289.37978,56.036011 c 0,-3.4043 2.74,-6.0613 5.979,-6.0613 3.239,0 5.868,2.657 5.868,6.0613 0,3.4055 -2.629,6.0071 -5.868,6.0071 -3.267,0 -5.979,-2.6016 -5.979,-6.0071 z m 16.331,0 c 0,-5.5906 -4.484,-9.8804 -10.408,-9.8804 -5.923,0 -10.406,4.2625 -10.406,9.8804 0,5.6465 4.483,9.8266 10.406,9.8266 5.924,0 10.408,-4.207 10.408,-9.8266" /><path
       inkscape:connector-curvature="0"
       id="path34"
       style="fill:#eeeeee;fill-opacity:1;fill-rule:nonzero;stroke:none;stroke-width:0.1"
       d="m 322.20178,50.168111 v -3.8196 h -12.676 v 19.3762 h 4.373 v -15.5566 h 8.303" /><path
       inkscape:connector-curvature="0"
       id="path36"
       style="fill:#eeeeee;fill-opacity:1;fill-rule:nonzero;stroke:none;stroke-width:0.1"
       d="m 325.20078,46.348511 v 19.3762 h 4.373 v -19.3762 h -4.373" /><path
       inkscape:connector-curvature="0"
       id="path38"
       style="fill:#eeeeee;fill-opacity:1;fill-rule:nonzero;stroke:none;stroke-width:0.1"
       d="m 349.07078,63.814511 -1.69,-3.6257 c -2.048,1.2175 -4.483,1.9929 -6.033,1.9929 -1.467,0 -2.464,-0.5261 -2.464,-1.5781 0,-3.5703 10.324,-1.5781 10.297,-8.5527 0,-3.7918 -3.294,-5.841 -7.585,-5.841 -3.183,0 -6.365,1.2179 -8.553,3.0722 l 1.744,3.5715 c 1.993,-1.7715 4.817,-2.9062 6.866,-2.9062 1.798,0 2.877,0.664 2.877,1.8543 0,3.6535 -10.324,1.5226 -10.324,8.3871 0,3.5156 3.017,5.7293 7.501,5.7293 2.713,0 5.426,-0.8301 7.364,-2.1036" /><path
       inkscape:connector-curvature="0"
       id="path40"
       style="fill:#eeeeee;fill-opacity:1;fill-rule:nonzero;stroke:none;stroke-width:0.1"
       d="m 370.31078,46.348511 v 13.0649 l -5.149,-11.0996 h -2.851 l -5.149,11.0996 v -13.0649 h -3.957 v 19.3762 h 4.899 l 5.646,-11.8469 5.619,11.8469 h 4.871 v -19.3762 h -3.929" /><path
       inkscape:connector-curvature="0"
       id="path42"
       style="fill:#eeeeee;fill-opacity:1;fill-rule:nonzero;stroke:none;stroke-width:0.07105466"
       d="m 395.49363,56.064358 c 0,-3.347384 2.69368,-5.95914 5.87764,-5.95914 3.18396,0 5.76964,2.611756 5.76964,5.95914 0,3.347314 -2.58568,5.904998 -5.76964,5.904998 -3.21096,0 -5.87764,-2.557684 -5.87764,-5.904998 z m 16.05551,0 c 0,-5.497001 -4.40823,-9.715872 -10.23187,-9.715872 -5.82364,0 -10.23258,4.191089 -10.23258,9.715872 0,5.551145 4.40894,9.660378 10.23258,9.660378 5.82364,0 10.23187,-4.135594 10.23187,-9.660378" /><path
       inkscape:connector-curvature="0"
       id="path44"
       style="fill:#eeeeee;fill-opacity:1;fill-rule:nonzero;stroke:none;stroke-width:0.07105466"
       d="M 419.52148,62.023499 V 57.34391 h 8.59974 v -3.59302 h -8.59974 v -7.210912 h -4.29952 v 19.04876 h 13.68797 l -0.027,-3.565239 h -9.36145" /><path
       inkscape:connector-curvature="0"
       id="path46"
       style="fill:#ff8a4e;fill-opacity:1;fill-rule:nonzero;stroke:none;stroke-width:0.13713309"
       d="m 281.02277,34.514527 -4.83394,-5.88438 c -2.51913,2.889942 -6.14493,4.78087 -9.55681,4.78087 -6.304,0 -11.18731,-4.885365 -11.18731,-11.292087 0,-6.406719 4.88331,-11.345567 11.18731,-11.345567 3.30766,0 6.93071,1.681938 9.55681,4.306802 l 4.88468,-5.3032104 c -3.88635,-3.9934529 -9.50606,-6.5673039 -14.86248,-6.5673039 -10.97751,0 -19.2768,8.1422773 -19.2768,18.8047843 0,10.609164 8.45562,18.590721 19.59221,18.590721 5.3043,0 10.87191,-2.362391 14.49633,-6.090629" /><path
       inkscape:connector-curvature="0"
       id="path48"
       style="fill:#ff8a4e;fill-opacity:1;fill-rule:nonzero;stroke:none;stroke-width:0.13713309"
       d="M 289.26448,3.5792244 V 40.342683 h 8.29655 V 3.5792244 h -8.29655" /><path
       inkscape:connector-curvature="0"
       id="path50"
       style="fill:#ff8a4e;fill-opacity:1;fill-rule:nonzero;stroke:none;stroke-width:0.13713309"
       d="M 324.36917,33.306522 V 3.5792244 h -8.29793 V 33.306522 h -11.18731 v 7.036161 h 30.72604 v -7.036161 h -11.2408" /><path
       inkscape:connector-curvature="0"
       id="path52"
       style="fill:#ff8a4e;fill-opacity:1;fill-rule:nonzero;stroke:none;stroke-width:0.13713309"
       d="M 342.98498,3.5792244 V 40.342683 h 8.29931 V 3.5792244 h -8.29931" /><path
       inkscape:connector-curvature="0"
       id="path54"
       style="fill:#ff8a4e;fill-opacity:1;fill-rule:nonzero;stroke:none;stroke-width:0.13713309"
       d="m 371.0863,33.461894 v -7.981558 h 17.75188 V 18.599549 H 371.0863 v -8.139534 h 20.27376 V 3.5792244 H 362.78837 V 40.342683 h 27.99436 V 33.461894 H 371.0863" /><path
       inkscape:connector-curvature="0"
       id="path56"
       style="fill:#ff8a4e;fill-opacity:1;fill-rule:nonzero;stroke:none;stroke-width:0.13713309"
       d="m 428.69728,36.718804 -3.20343,-6.880789 c -3.88635,2.311515 -8.50774,3.781856 -11.44924,3.781856 -2.78243,0 -4.67349,-0.996272 -4.67349,-2.991695 0,-6.776294 19.58945,-2.994439 19.53871,-16.230934 0,-7.19414 -6.25189,-11.0804903 -14.39074,-11.0804903 -6.04071,0 -12.08142,2.3113781 -16.2297,5.8281565 l 3.30902,6.7762948 c 3.78076,-3.361407 9.13855,-5.514808 13.0249,-5.514808 3.41324,0 5.46064,1.261487 5.46064,3.519384 0,6.931664 -19.58946,2.887337 -19.58946,15.912236 0,6.671936 5.7253,10.871637 14.23304,10.871637 5.14798,0 10.29458,-1.574974 13.96975,-3.990848" /></g></svg>