<svg xmlns="http://www.w3.org/2000/svg" xmlns:xlink="http://www.w3.org/1999/xlink" viewBox="0 0 1202.17 617.91"><defs><style>.cls-1,.cls-10,.cls-11,.cls-12,.cls-13,.cls-14,.cls-15,.cls-16,.cls-17,.cls-18,.cls-19,.cls-20,.cls-21,.cls-22,.cls-23,.cls-24,.cls-3,.cls-4,.cls-7,.cls-8,.cls-9{fill:none;}.cls-2{fill:#f4eee9;opacity:0.43;}.cls-2,.cls-7{stroke:#000;stroke-miterlimit:10;}.cls-3{stroke-width:278px;stroke:url(#linear-gradient);}.cls-10,.cls-11,.cls-12,.cls-13,.cls-14,.cls-15,.cls-16,.cls-17,.cls-18,.cls-19,.cls-20,.cls-21,.cls-22,.cls-23,.cls-24,.cls-3,.cls-4,.cls-8,.cls-9{opacity:0.45;}.cls-10,.cls-11,.cls-12,.cls-13,.cls-14,.cls-15,.cls-16,.cls-17,.cls-18,.cls-19,.cls-20,.cls-21,.cls-22,.cls-23,.cls-24,.cls-25,.cls-3,.cls-4,.cls-8,.cls-9{isolation:isolate;}.cls-4{stroke-width:139px;stroke:url(#linear-gradient-2);}.cls-5{opacity:0.69;}.cls-6{fill:#fff;}.cls-7{stroke-dasharray:6.01 12.03 9.02 6.01 12.03 9.02;}.cls-8{stroke-width:43.74px;stroke:url(#linear-gradient-3);}.cls-9{stroke-width:25.95px;stroke:url(#linear-gradient-4);}.cls-10,.cls-13,.cls-17{stroke:#170fff;}.cls-10{stroke-width:24.49px;}.cls-11,.cls-16,.cls-18,.cls-19,.cls-20{stroke:#17becf;}.cls-11{stroke-width:23.85px;}.cls-12,.cls-21,.cls-23{stroke:#ff7f0e;}.cls-12{stroke-width:20.58px;}.cls-13{stroke-width:17.17px;}.cls-14,.cls-15{stroke:#7f7f7f;}.cls-14{stroke-width:10.87px;}.cls-15{stroke-width:5.71px;}.cls-16{stroke-width:4.95px;}.cls-17,.cls-18{stroke-width:4.42px;}.cls-19{stroke-width:3.44px;}.cls-20{stroke-width:3.24px;}.cls-21{stroke-width:2.91px;}.cls-22{stroke-width:2.88px;stroke:url(#linear-gradient-5);}.cls-23{stroke-width:1.44px;}.cls-24{stroke:#d62728;}.cls-26{clip-path:url(#clip-path);}.cls-27{fill:#bfc0bf;}.cls-28{fill:#c1c2c1;}.cls-29{fill:#c2c3c2;}.cls-30{fill:#c4c5c4;}.cls-31{fill:#c5c6c5;}.cls-32{clip-path:url(#clip-path-2);}.cls-33{fill:#bebfbe;}.cls-34{fill:#c8c9c8;}.cls-35{clip-path:url(#clip-path-3);}.cls-36{fill:#dcdedc;}.cls-37{clip-path:url(#clip-path-4);}.cls-38{clip-path:url(#clip-path-5);}.cls-39{clip-path:url(#clip-path-6);}.cls-40{clip-path:url(#clip-path-7);}.cls-41{clip-path:url(#clip-path-8);}.cls-42{clip-path:url(#clip-path-9);}.cls-43{clip-path:url(#clip-path-10);}.cls-44{clip-path:url(#clip-path-11);}.cls-45{clip-path:url(#clip-path-12);}.cls-46{clip-path:url(#clip-path-13);}.cls-47{clip-path:url(#clip-path-14);}.cls-48{clip-path:url(#clip-path-15);}.cls-49{clip-path:url(#clip-path-16);}.cls-50{clip-path:url(#clip-path-17);}.cls-51{clip-path:url(#clip-path-18);}.cls-52{clip-path:url(#clip-path-19);}.cls-53{clip-path:url(#clip-path-20);}.cls-54{clip-path:url(#clip-path-21);}.cls-55{clip-path:url(#clip-path-22);}.cls-56{clip-path:url(#clip-path-23);}.cls-57{clip-path:url(#clip-path-24);}.cls-58{clip-path:url(#clip-path-25);}.cls-59{clip-path:url(#clip-path-26);}.cls-60{clip-path:url(#clip-path-27);}.cls-61{clip-path:url(#clip-path-28);}.cls-62{clip-path:url(#clip-path-29);}.cls-63{clip-path:url(#clip-path-30);}.cls-64{clip-path:url(#clip-path-31);}.cls-65{clip-path:url(#clip-path-32);}.cls-66{fill:#bec0be;}.cls-67{clip-path:url(#clip-path-33);}.cls-68{clip-path:url(#clip-path-34);}.cls-69{clip-path:url(#clip-path-35);}.cls-70{clip-path:url(#clip-path-36);}.cls-71{clip-path:url(#clip-path-37);}.cls-72{clip-path:url(#clip-path-38);}.cls-73{clip-path:url(#clip-path-39);}.cls-74{clip-path:url(#clip-path-40);}.cls-75{clip-path:url(#clip-path-41);}.cls-76{clip-path:url(#clip-path-42);}.cls-77{clip-path:url(#clip-path-43);}.cls-78{clip-path:url(#clip-path-44);}.cls-79{clip-path:url(#clip-path-45);}.cls-80{clip-path:url(#clip-path-46);}.cls-81{clip-path:url(#clip-path-47);}.cls-82{clip-path:url(#clip-path-48);}.cls-83{clip-path:url(#clip-path-49);}.cls-84{clip-path:url(#clip-path-50);}.cls-85{clip-path:url(#clip-path-51);}.cls-113,.cls-114,.cls-86,.cls-92{font-size:8px;}.cls-110,.cls-86{font-family:Montserrat-SemiBold, Montserrat;font-weight:600;}.cls-87{letter-spacing:-0.01em;}.cls-88{letter-spacing:-0.03em;}.cls-89{letter-spacing:-0.02em;}.cls-90{letter-spacing:-0.01em;}.cls-114,.cls-91,.cls-92{font-family:Montserrat-Thin, Montserrat;font-weight:200;}.cls-93{letter-spacing:0em;}.cls-104,.cls-105,.cls-106,.cls-108,.cls-109,.cls-94{font-size:7.5px;}.cls-95{letter-spacing:-0.02em;}.cls-96{letter-spacing:-0.01em;}.cls-97{letter-spacing:0em;}.cls-98{letter-spacing:0em;}.cls-104,.cls-99{letter-spacing:-0.01em;}.cls-100{letter-spacing:0em;}.cls-101,.cls-106{letter-spacing:-0.03em;}.cls-102{letter-spacing:-0.03em;}.cls-103{letter-spacing:-0.03em;}.cls-105{letter-spacing:0em;}.cls-107{letter-spacing:-0.06em;}.cls-108{letter-spacing:-0.04em;}.cls-109{letter-spacing:0.01em;}.cls-110,.cls-116{font-size:7px;}.cls-111{letter-spacing:-0.01em;}.cls-112{letter-spacing:-0.04em;}.cls-115{letter-spacing:-0.01em;}.cls-117{letter-spacing:0.01em;}.cls-118{letter-spacing:-0.02em;}.cls-119{letter-spacing:0em;}.cls-120{letter-spacing:0em;}.cls-121{letter-spacing:-0.01em;}.cls-122{letter-spacing:0.01em;}.cls-123{letter-spacing:-0.02em;}.cls-124{letter-spacing:-0.01em;}.cls-125{letter-spacing:-0.02em;}</style><linearGradient id="linear-gradient" x1="505.05" y1="40.6" x2="505.05" y2="191.63" gradientUnits="userSpaceOnUse"><stop offset="0" stop-color="#170fff" stop-opacity="0.45"/><stop offset="0.28" stop-color="#1758eb" stop-opacity="0.45"/><stop offset="0.55" stop-color="#1790dc" stop-opacity="0.45"/><stop offset="0.8" stop-color="#17b2d2" stop-opacity="0.45"/><stop offset="1" stop-color="#17becf" stop-opacity="0.45"/></linearGradient><linearGradient id="linear-gradient-2" x1="753.93" y1="191.63" x2="753.93" y2="40.6" xlink:href="#linear-gradient"/><linearGradient id="linear-gradient-3" x1="397.74" y1="291.56" x2="549.29" y2="291.56" xlink:href="#linear-gradient"/><linearGradient id="linear-gradient-4" x1="917.4" y1="416.61" x2="1080.39" y2="416.61" gradientUnits="userSpaceOnUse"><stop offset="0" stop-color="#ff7f0e" stop-opacity="0.45"/><stop offset="0.14" stop-color="#ca8d3a" stop-opacity="0.45"/><stop offset="0.39" stop-color="#7da27a" stop-opacity="0.45"/><stop offset="0.62" stop-color="#45b2a9" stop-opacity="0.45"/><stop offset="0.83" stop-color="#23bbc5" stop-opacity="0.45"/><stop offset="1" stop-color="#17becf" stop-opacity="0.45"/></linearGradient><linearGradient id="linear-gradient-5" x1="397.74" y1="251.45" x2="724.76" y2="251.45" xlink:href="#linear-gradient"/><clipPath id="clip-path" transform="translate(1.67 17.41)"><path class="cls-1" d="M453.83,268.39l.2,7.95c0,1.54-.93,3.18-2.86,4.48l-.2-8C452.9,271.56,453.87,269.93,453.83,268.39Z"/></clipPath><clipPath id="clip-path-2" transform="translate(1.67 17.41)"><path class="cls-1" d="M338,284.37l-.2-7.95a4.17,4.17,0,0,0,2.25,3.42l.2,8A4.18,4.18,0,0,1,338,284.37Z"/></clipPath><clipPath id="clip-path-3" transform="translate(1.67 17.41)"><path class="cls-1" d="M399.21,307.63l.2,7.95a13,13,0,0,1-11,1.43,8.13,8.13,0,0,1-1.36-.65l-.2-8a6.82,6.82,0,0,0,1.36.65A13,13,0,0,0,399.21,307.63Z"/></clipPath><clipPath id="clip-path-4" transform="translate(1.67 17.41)"><path class="cls-1" d="M598.28,298.87l.2,7.95c0,1.54-.92,3.18-2.86,4.48l-.2-7.95C597.36,302,598.32,300.41,598.28,298.87Z"/></clipPath><clipPath id="clip-path-5" transform="translate(1.67 17.41)"><path class="cls-1" d="M482.42,314.86l-.2-8a4.18,4.18,0,0,0,2.25,3.43l.2,7.95A4.18,4.18,0,0,1,482.42,314.86Z"/></clipPath><clipPath id="clip-path-6" transform="translate(1.67 17.41)"><path class="cls-1" d="M543.66,338.11l.2,8a13,13,0,0,1-11,1.42,8,8,0,0,1-1.35-.65l-.2-7.95a7.29,7.29,0,0,0,1.35.64A13,13,0,0,0,543.66,338.11Z"/></clipPath><clipPath id="clip-path-7" transform="translate(1.67 17.41)"><path class="cls-1" d="M782.69,247.43l.2,7.95c0,1.54-.92,3.18-2.86,4.48l-.2-8C781.77,250.61,782.73,249,782.69,247.43Z"/></clipPath><clipPath id="clip-path-8" transform="translate(1.67 17.41)"><path class="cls-1" d="M666.83,263.42l-.2-8a4.2,4.2,0,0,0,2.26,3.43l.2,8A4.2,4.2,0,0,1,666.83,263.42Z"/></clipPath><clipPath id="clip-path-9" transform="translate(1.67 17.41)"><path class="cls-1" d="M728.07,286.68l.2,7.95a13,13,0,0,1-11,1.42,7.61,7.61,0,0,1-1.35-.64l-.2-8a7.65,7.65,0,0,0,1.35.65A13,13,0,0,0,728.07,286.68Z"/></clipPath><clipPath id="clip-path-10" transform="translate(1.67 17.41)"><path class="cls-1" d="M966,365.23l.2,7.95c0,1.54-.93,3.18-2.86,4.48l-.2-8C965,368.41,966,366.77,966,365.23Z"/></clipPath><clipPath id="clip-path-11" transform="translate(1.67 17.41)"><path class="cls-1" d="M850.11,381.22l-.2-8a4.16,4.16,0,0,0,2.25,3.43l.2,8A4.17,4.17,0,0,1,850.11,381.22Z"/></clipPath><clipPath id="clip-path-12" transform="translate(1.67 17.41)"><path class="cls-1" d="M911.35,404.48l.2,7.95a13,13,0,0,1-11,1.42,8.38,8.38,0,0,1-1.35-.64l-.2-8a7.65,7.65,0,0,0,1.35.65A13.07,13.07,0,0,0,911.35,404.48Z"/></clipPath><clipPath id="clip-path-13" transform="translate(1.67 17.41)"><path class="cls-1" d="M779.58,402.61l.19,8c0,1.54-.92,3.17-2.86,4.47l-.2-8C778.65,405.79,779.61,404.15,779.58,402.61Z"/></clipPath><clipPath id="clip-path-14" transform="translate(1.67 17.41)"><path class="cls-1" d="M663.71,418.6l-.2-8a4.17,4.17,0,0,0,2.26,3.43L666,422A4.16,4.16,0,0,1,663.71,418.6Z"/></clipPath><clipPath id="clip-path-15" transform="translate(1.67 17.41)"><path class="cls-1" d="M725,441.86l.2,8a13,13,0,0,1-10.95,1.41,7.09,7.09,0,0,1-1.36-.65l-.2-7.95a7.74,7.74,0,0,0,1.36.65A13,13,0,0,0,725,441.86Z"/></clipPath><clipPath id="clip-path-16" transform="translate(1.67 17.41)"><path class="cls-1" d="M782.69,529.39l.2,8c0,1.54-.92,3.17-2.86,4.48l-.2-8C781.77,532.57,782.73,530.93,782.69,529.39Z"/></clipPath><clipPath id="clip-path-17" transform="translate(1.67 17.41)"><path class="cls-1" d="M666.83,545.38l-.2-8a4.17,4.17,0,0,0,2.26,3.42l.2,8A4.17,4.17,0,0,1,666.83,545.38Z"/></clipPath><clipPath id="clip-path-18" transform="translate(1.67 17.41)"><path class="cls-1" d="M728.07,568.64l.2,8a13,13,0,0,1-11,1.42,7.61,7.61,0,0,1-1.35-.64l-.19-8a7.89,7.89,0,0,0,1.34.64A13,13,0,0,0,728.07,568.64Z"/></clipPath><clipPath id="clip-path-19" transform="translate(1.67 17.41)"><path class="cls-1" d="M1132.61,438.07l.2,7.95c0,1.54-.92,3.18-2.86,4.48l-.2-7.95C1131.69,441.25,1132.65,439.61,1132.61,438.07Z"/></clipPath><clipPath id="clip-path-20" transform="translate(1.67 17.41)"><path class="cls-1" d="M1016.75,454.06l-.2-8a4.17,4.17,0,0,0,2.26,3.43l.2,8A4.17,4.17,0,0,1,1016.75,454.06Z"/></clipPath><clipPath id="clip-path-21" transform="translate(1.67 17.41)"><path class="cls-1" d="M1078,477.32l.2,7.95a13,13,0,0,1-11,1.42,8.1,8.1,0,0,1-1.36-.64l-.19-8a7,7,0,0,0,1.35.65A13,13,0,0,0,1078,477.32Z"/></clipPath><clipPath id="clip-path-22" transform="translate(1.67 17.41)"><path class="cls-1" d="M1191.31,325.69l.2,8c0,1.54-.93,3.17-2.86,4.47l-.2-7.95C1190.38,328.87,1191.35,327.23,1191.31,325.69Z"/></clipPath><clipPath id="clip-path-23" transform="translate(1.67 17.41)"><path class="cls-1" d="M1075.44,341.67l-.2-7.95a4.2,4.2,0,0,0,2.26,3.43l.2,8A4.2,4.2,0,0,1,1075.44,341.67Z"/></clipPath><clipPath id="clip-path-24" transform="translate(1.67 17.41)"><path class="cls-1" d="M1136.69,364.94l.2,8a13,13,0,0,1-11,1.41,6.82,6.82,0,0,1-1.36-.65l-.2-8a7.42,7.42,0,0,0,1.36.65A13,13,0,0,0,1136.69,364.94Z"/></clipPath><clipPath id="clip-path-25" transform="translate(1.67 17.41)"><path class="cls-1" d="M257.19,367.28l.19,8c.05,1.81-1.09,3.74-3.36,5.27l-.2-7.95C256.09,371,257.23,369.09,257.19,367.28Z"/></clipPath><clipPath id="clip-path-26" transform="translate(1.67 17.41)"><path class="cls-1" d="M141.92,383.36l-.2-8a4.88,4.88,0,0,0,2.65,4l.2,8A4.9,4.9,0,0,1,141.92,383.36Z"/></clipPath><clipPath id="clip-path-27" transform="translate(1.67 17.41)"><path class="cls-1" d="M204,406l.2,8a15.33,15.33,0,0,1-12.9,1.66,8.94,8.94,0,0,1-1.59-.75l-.2-8a9,9,0,0,0,1.59.76A15.33,15.33,0,0,0,204,406Z"/></clipPath><clipPath id="clip-path-28" transform="translate(1.67 17.41)"><path class="cls-1" d="M248.39,281.12l.2,7.95c0,1.81-1.09,3.74-3.37,5.27l-.2-7.95C247.3,284.86,248.44,282.93,248.39,281.12Z"/></clipPath><clipPath id="clip-path-29" transform="translate(1.67 17.41)"><path class="cls-1" d="M133.12,297.2l-.2-7.95a4.92,4.92,0,0,0,2.65,4l.2,8A4.91,4.91,0,0,1,133.12,297.2Z"/></clipPath><clipPath id="clip-path-30" transform="translate(1.67 17.41)"><path class="cls-1" d="M195.19,319.86l.2,7.95a15.31,15.31,0,0,1-12.89,1.68,9,9,0,0,1-1.59-.76l-.2-8a9,9,0,0,0,1.59.77A15.31,15.31,0,0,0,195.19,319.86Z"/></clipPath><clipPath id="clip-path-31" transform="translate(1.67 17.41)"><path class="cls-1" d="M250.47,194.4l.19,8a4.17,4.17,0,0,1-2.27,3.5l-.2-8A4.21,4.21,0,0,0,250.47,194.4Z"/></clipPath><clipPath id="clip-path-32" transform="translate(1.67 17.41)"><path class="cls-1" d="M131.05,212.44l-.2-7.95a4.19,4.19,0,0,0,2.43,3.38l.2,8A4.2,4.2,0,0,1,131.05,212.44Z"/></clipPath><clipPath id="clip-path-33" transform="translate(1.67 17.41)"><path class="cls-1" d="M191.2,234.31l.2,7.95a12.22,12.22,0,0,1-10.07.88,9.19,9.19,0,0,1-1.31-.6l-.2-8a8,8,0,0,0,1.32.61A12.27,12.27,0,0,0,191.2,234.31Z"/></clipPath><clipPath id="clip-path-34" transform="translate(1.67 17.41)"><path class="cls-1" d="M11.24,445.22l-.2-8a4.21,4.21,0,0,0,2.43,3.38l.2,8A4.17,4.17,0,0,1,11.24,445.22Z"/></clipPath><clipPath id="clip-path-35" transform="translate(1.67 17.41)"><path class="cls-1" d="M118.22,434.66l.2,8a4.22,4.22,0,0,1-2.28,3.51l-.2-8A4.21,4.21,0,0,0,118.22,434.66Z"/></clipPath><clipPath id="clip-path-36" transform="translate(1.67 17.41)"><path class="cls-1" d="M71,466.86l.2,8a12.23,12.23,0,0,1-10.06.88,8.25,8.25,0,0,1-1.31-.61l-.2-7.95a9.23,9.23,0,0,0,1.31.61A12.23,12.23,0,0,0,71,466.86Z"/></clipPath><clipPath id="clip-path-37" transform="translate(1.67 17.41)"><path class="cls-1" d="M1038.39,268.43l.2,7.95c0,1.54-.93,3.18-2.86,4.48l-.2-7.95C1037.47,271.61,1038.43,270,1038.39,268.43Z"/></clipPath><clipPath id="clip-path-38" transform="translate(1.67 17.41)"><path class="cls-1" d="M922.53,284.42l-.2-8a4.18,4.18,0,0,0,2.25,3.43l.2,7.95A4.15,4.15,0,0,1,922.53,284.42Z"/></clipPath><clipPath id="clip-path-39" transform="translate(1.67 17.41)"><path class="cls-1" d="M983.77,307.67l.2,8a13,13,0,0,1-11,1.42,7.32,7.32,0,0,1-1.35-.65l-.2-7.95a7.29,7.29,0,0,0,1.35.64A13,13,0,0,0,983.77,307.67Z"/></clipPath><clipPath id="clip-path-40" transform="translate(1.67 17.41)"><path class="cls-1" d="M1191.31,209.06l.2,8c0,1.54-.93,3.18-2.86,4.48l-.2-7.95C1190.38,212.24,1191.35,210.6,1191.31,209.06Z"/></clipPath><clipPath id="clip-path-41" transform="translate(1.67 17.41)"><path class="cls-1" d="M1075.44,225.05l-.2-8a4.2,4.2,0,0,0,2.26,3.43l.2,7.95A4.2,4.2,0,0,1,1075.44,225.05Z"/></clipPath><clipPath id="clip-path-42" transform="translate(1.67 17.41)"><path class="cls-1" d="M1136.69,248.31l.2,8a13,13,0,0,1-11,1.41,7,7,0,0,1-1.35-.64l-.2-8a8,8,0,0,0,1.35.64A13,13,0,0,0,1136.69,248.31Z"/></clipPath><clipPath id="clip-path-43" transform="translate(1.67 17.41)"><path class="cls-1" d="M123.41,519.52l.2,8a4.21,4.21,0,0,1-2.28,3.51l-.2-8A4.24,4.24,0,0,0,123.41,519.52Z"/></clipPath><clipPath id="clip-path-44" transform="translate(1.67 17.41)"><path class="cls-1" d="M2.4,539l-.2-8a4.19,4.19,0,0,0,2.44,3.38l.2,8A4.2,4.2,0,0,1,2.4,539Z"/></clipPath><clipPath id="clip-path-45" transform="translate(1.67 17.41)"><path class="cls-1" d="M62.17,560.68l.2,8a12.19,12.19,0,0,1-10,.89,8.86,8.86,0,0,1-1.32-.61l-.2-8a8,8,0,0,0,1.32.61A12.19,12.19,0,0,0,62.17,560.68Z"/></clipPath><clipPath id="clip-path-46" transform="translate(1.67 17.41)"><path class="cls-1" d="M572.69,37.43l.2,8c0,1.54-.93,3.17-2.86,4.47l-.2-8C571.77,40.61,572.73,39,572.69,37.43Z"/></clipPath><clipPath id="clip-path-47" transform="translate(1.67 17.41)"><path class="cls-1" d="M456.83,53.42l-.2-8a4.21,4.21,0,0,0,2.25,3.44l.2,8A4.16,4.16,0,0,1,456.83,53.42Z"/></clipPath><clipPath id="clip-path-48" transform="translate(1.67 17.41)"><path class="cls-1" d="M518.07,76.68l.2,8a13,13,0,0,1-11,1.41,7.29,7.29,0,0,1-1.35-.64l-.2-8a8,8,0,0,0,1.35.64A13,13,0,0,0,518.07,76.68Z"/></clipPath><clipPath id="clip-path-49" transform="translate(1.67 17.41)"><path class="cls-1" d="M860.56,33.61l.2,8c0,1.54-.93,3.18-2.86,4.48l-.2-8C859.63,36.78,860.6,35.15,860.56,33.61Z"/></clipPath><clipPath id="clip-path-50" transform="translate(1.67 17.41)"><path class="cls-1" d="M744.7,49.59l-.2-8a4.16,4.16,0,0,0,2.25,3.43l.2,8A4.16,4.16,0,0,1,744.7,49.59Z"/></clipPath><clipPath id="clip-path-51" transform="translate(1.67 17.41)"><path class="cls-1" d="M805.94,72.85l.2,8a13.05,13.05,0,0,1-11,1.42,7.42,7.42,0,0,1-1.36-.65l-.19-8a7,7,0,0,0,1.35.64A13,13,0,0,0,805.94,72.85Z"/></clipPath><image id="image" width="1080" height="1080" xlink:href="Isometric%20logos/Modern%20Isometric%20World%20Cities%20Day%20Instagram%20Post/9.png"/><image id="image-2" width="1080" height="1080" xlink:href="Isometric%20logos/Modern%20Isometric%20World%20Cities%20Day%20Instagram%20Post/11.png"/><image id="image-3" width="1080" height="1080" xlink:href="Isometric%20logos/18.png"/></defs><g id="Layer_7" data-name="Layer 7"><rect class="cls-2" x="1.67" y="17.41" width="1200" height="600"/></g><g id="Flows"><path class="cls-3" d="M514.76,40.6c0,36.55-19.43,114.48-19.43,151" transform="translate(1.67 17.41)"/><path class="cls-4" d="M802.37,40.6c0,75.51-96.88,75.51-96.88,151" transform="translate(1.67 17.41)"/><g id="Layer_6" data-name="Layer 6"><g class="cls-5"><rect class="cls-6" x="126.97" y="153.51" width="944.38" height="445.27" rx="10.95"/><rect class="cls-7" x="126.97" y="153.51" width="944.38" height="445.27" rx="10.95"/></g></g><path class="cls-8" d="M397.74,276.25c75.77,0,75.77,30.61,151.55,30.61" transform="translate(1.67 17.41)"/><path class="cls-9" d="M917.4,381.15c81.49,0,81.49,70.91,163,70.91" transform="translate(1.67 17.41)"/><path class="cls-10" d="M162.4,288.32c113,0,113-10,226-10" transform="translate(1.67 17.41)"/><path class="cls-11" d="M558.65,295.88c83.06,0,83.06-31.44,166.11-31.44" transform="translate(1.67 17.41)"/><path class="cls-12" d="M734.12,259.32c102,0,102,112.88,204.08,112.88" transform="translate(1.67 17.41)"/><path class="cls-13" d="M196.6,191.63c95.89,0,95.89,67.4,191.78,67.4" transform="translate(1.67 17.41)"/><path class="cls-14" d="M558.65,318.26c81,0,81,238.44,162,238.44" transform="translate(1.67 17.41)"/><path class="cls-15" d="M397.74,300.06c161.43,0,161.43,248.33,322.86,248.33" transform="translate(1.67 17.41)"/><path class="cls-16" d="M558.65,310.32c81.5,0,81.5,89,163,89" transform="translate(1.67 17.41)"/><path class="cls-17" d="M214,360.5c87.21,0,87.21-70.2,174.43-70.2" transform="translate(1.67 17.41)"/><path class="cls-18" d="M744,413.89c168.2,0,168.2,47.41,336.39,47.41" transform="translate(1.67 17.41)"/><path class="cls-19" d="M543.38,308.46c280.76,0,280.76,30.87,561.52,30.87" transform="translate(1.67 17.41)"/><path class="cls-20" d="M80.3,440.61c226.9,0,226.9-116.72,453.8-116.72" transform="translate(1.67 17.41)"/><path class="cls-21" d="M734.12,251c100.06,0,100.06,25.19,200.12,25.19" transform="translate(1.67 17.41)"/><path class="cls-22" d="M397.74,251.86c163.51,0,163.51-.83,327-.83" transform="translate(1.67 17.41)"/><path class="cls-23" d="M89.25,523.1c406.39,0,406.39-151.67,812.79-151.67" transform="translate(1.67 17.41)"/><path class="cls-24" d="M690.5,248.9c209.35,0,209.35-29.47,418.7-29.47" transform="translate(1.67 17.41)"/></g><g id="Layer_4" data-name="Layer 4"><g class="cls-25"><g class="cls-25"><g class="cls-26"><g class="cls-25"><path class="cls-27" d="M453.83,268.39l.2,7.95v.06l-.2-7.95v-.06" transform="translate(1.67 17.41)"/><path class="cls-28" d="M453.83,268.45l.2,7.95a4.14,4.14,0,0,1-.18,1.19l-.2-7.95a3.82,3.82,0,0,0,.18-1.19" transform="translate(1.67 17.41)"/><path class="cls-29" d="M453.65,269.64l.2,7.95a4.89,4.89,0,0,1-.66,1.31l-.2-8a4.69,4.69,0,0,0,.66-1.3" transform="translate(1.67 17.41)"/><path class="cls-30" d="M453,270.94l.2,8a7.3,7.3,0,0,1-1.93,1.85l-.2-7.95a7.48,7.48,0,0,0,1.93-1.86" transform="translate(1.67 17.41)"/><path class="cls-31" d="M451.06,272.8l.2,7.95-.09.07-.2-8,.09-.06" transform="translate(1.67 17.41)"/></g></g></g><g class="cls-25"><g class="cls-32"><g class="cls-25"><path class="cls-33" d="M340,279.84l.2,8a4.18,4.18,0,0,1-2.25-3.43l-.2-7.95a4.17,4.17,0,0,0,2.25,3.42" transform="translate(1.67 17.41)"/></g></g></g><polygon class="cls-34" points="452.64 290.27 452.84 298.22 401.08 332.99 400.88 325.04 452.64 290.27"/><polygon class="cls-33" points="388.57 325.81 388.77 333.76 341.89 305.2 341.69 297.25 388.57 325.81"/><g class="cls-25"><g class="cls-35"><g class="cls-25"><path class="cls-31" d="M399.21,307.63l.2,7.95a11.2,11.2,0,0,1-2.47,1.24l-.2-7.95a11.42,11.42,0,0,0,2.47-1.24" transform="translate(1.67 17.41)"/><path class="cls-30" d="M396.74,308.87l.2,7.95a13.28,13.28,0,0,1-2.86.7l-.19-8a13.79,13.79,0,0,0,2.85-.69" transform="translate(1.67 17.41)"/><path class="cls-29" d="M393.89,309.56l.19,8a13.16,13.16,0,0,1-1.77.12l-.2-8a13.42,13.42,0,0,0,1.78-.12" transform="translate(1.67 17.41)"/><path class="cls-28" d="M392.11,309.68l.2,8a12.79,12.79,0,0,1-1.52-.09l-.2-7.95a11,11,0,0,0,1.52.08" transform="translate(1.67 17.41)"/><path class="cls-27" d="M390.59,309.6l.2,7.95a10.74,10.74,0,0,1-1.52-.29l-.2-7.95a10.74,10.74,0,0,0,1.52.29" transform="translate(1.67 17.41)"/><path class="cls-33" d="M389.07,309.31l.2,7.95c-.28-.07-.55-.16-.81-.25a8.13,8.13,0,0,1-1.36-.65l-.2-8a6.82,6.82,0,0,0,1.36.65,7,7,0,0,0,.81.26" transform="translate(1.67 17.41)"/></g></g></g><path class="cls-36" d="M403.35,235.75a7.65,7.65,0,0,1,1.35.65L451.57,265c3.24,2,3,5.51-.6,7.9l-51.76,34.77a13,13,0,0,1-10.95,1.42,6.82,6.82,0,0,1-1.36-.65L340,279.84c-3.23-2-2.95-5.5.62-7.9l51.75-34.77A13,13,0,0,1,403.35,235.75Z" transform="translate(1.67 17.41)"/></g><g class="cls-25"><g class="cls-25"><g class="cls-37"><g class="cls-25"><path class="cls-27" d="M598.28,298.87l.2,7.95v.06l-.2-7.95v-.06" transform="translate(1.67 17.41)"/><path class="cls-28" d="M598.28,298.93l.2,7.95a3.82,3.82,0,0,1-.18,1.19l-.2-7.95a3.55,3.55,0,0,0,.18-1.19" transform="translate(1.67 17.41)"/><path class="cls-29" d="M598.1,300.12l.2,7.95a4.89,4.89,0,0,1-.66,1.31l-.2-8a4.69,4.69,0,0,0,.66-1.3" transform="translate(1.67 17.41)"/><path class="cls-30" d="M597.44,301.42l.2,8a7.48,7.48,0,0,1-1.93,1.86l-.2-8a7.48,7.48,0,0,0,1.93-1.86" transform="translate(1.67 17.41)"/><path class="cls-31" d="M595.51,303.28l.2,8-.09.06-.2-7.95.09-.07" transform="translate(1.67 17.41)"/></g></g></g><g class="cls-25"><g class="cls-38"><g class="cls-25"><path class="cls-33" d="M484.47,310.33l.2,7.95a4.18,4.18,0,0,1-2.25-3.42l-.2-8a4.18,4.18,0,0,0,2.25,3.43" transform="translate(1.67 17.41)"/></g></g></g><polygon class="cls-34" points="597.09 320.75 597.29 328.71 545.53 363.47 545.33 355.52 597.09 320.75"/><polygon class="cls-33" points="533.02 356.29 533.22 364.25 486.34 335.69 486.14 327.73 533.02 356.29"/><g class="cls-25"><g class="cls-39"><g class="cls-25"><path class="cls-31" d="M543.66,338.11l.2,8a11.39,11.39,0,0,1-2.47,1.23l-.2-7.95a11,11,0,0,0,2.47-1.24" transform="translate(1.67 17.41)"/><path class="cls-30" d="M541.19,339.35l.2,7.95a13.19,13.19,0,0,1-2.85.7l-.2-8a13.79,13.79,0,0,0,2.85-.69" transform="translate(1.67 17.41)"/><path class="cls-29" d="M538.34,340l.2,8a13.27,13.27,0,0,1-1.77.12l-.2-8a13.27,13.27,0,0,0,1.77-.12" transform="translate(1.67 17.41)"/><path class="cls-28" d="M536.57,340.16l.2,8a12.83,12.83,0,0,1-1.53-.09l-.2-7.95a11,11,0,0,0,1.53.08" transform="translate(1.67 17.41)"/><path class="cls-27" d="M535,340.08l.2,7.95a10.74,10.74,0,0,1-1.52-.29l-.2-7.95a10.74,10.74,0,0,0,1.52.29" transform="translate(1.67 17.41)"/><path class="cls-33" d="M533.52,339.79l.2,7.95c-.28-.07-.56-.16-.82-.25a8,8,0,0,1-1.35-.65l-.2-7.95a7.29,7.29,0,0,0,1.35.64,7.81,7.81,0,0,0,.82.26" transform="translate(1.67 17.41)"/></g></g></g><path class="cls-36" d="M547.8,266.23a8.41,8.41,0,0,1,1.35.65L596,295.44c3.23,2,3,5.51-.61,7.91l-51.76,34.76a13,13,0,0,1-11,1.42,7.29,7.29,0,0,1-1.35-.64l-46.88-28.56c-3.23-2-3-5.51.62-7.91l51.75-34.76A13.05,13.05,0,0,1,547.8,266.23Z" transform="translate(1.67 17.41)"/></g><g class="cls-25"><g class="cls-25"><g class="cls-40"><g class="cls-25"><path class="cls-27" d="M782.69,247.43l.2,7.95v.06l-.2-7.95v-.06" transform="translate(1.67 17.41)"/><path class="cls-28" d="M782.69,247.49l.2,7.95a3.74,3.74,0,0,1-.18,1.19l-.2-7.95a3.55,3.55,0,0,0,.18-1.19" transform="translate(1.67 17.41)"/><path class="cls-29" d="M782.51,248.68l.2,7.95a4.89,4.89,0,0,1-.66,1.31l-.2-7.95a4.89,4.89,0,0,0,.66-1.31" transform="translate(1.67 17.41)"/><path class="cls-30" d="M781.85,250l.2,7.95a7.48,7.48,0,0,1-1.93,1.86l-.2-8a7.48,7.48,0,0,0,1.93-1.86" transform="translate(1.67 17.41)"/><path class="cls-31" d="M779.92,251.85l.2,8-.09.06-.2-8,.09-.06" transform="translate(1.67 17.41)"/></g></g></g><g class="cls-25"><g class="cls-41"><g class="cls-25"><path class="cls-33" d="M668.89,258.89l.2,8a4.2,4.2,0,0,1-2.26-3.43l-.2-8a4.2,4.2,0,0,0,2.26,3.43" transform="translate(1.67 17.41)"/></g></g></g><polygon class="cls-34" points="781.5 269.32 781.7 277.27 729.94 312.04 729.74 304.08 781.5 269.32"/><polygon class="cls-33" points="717.43 304.86 717.63 312.81 670.76 284.25 670.56 276.3 717.43 304.86"/><g class="cls-25"><g class="cls-42"><g class="cls-25"><path class="cls-31" d="M728.07,286.68l.2,7.95a11.58,11.58,0,0,1-2.46,1.24l-.2-8a11.55,11.55,0,0,0,2.46-1.23" transform="translate(1.67 17.41)"/><path class="cls-30" d="M725.61,287.91l.2,8a14,14,0,0,1-2.86.69l-.2-7.95a13.28,13.28,0,0,0,2.86-.7" transform="translate(1.67 17.41)"/><path class="cls-29" d="M722.75,288.61l.2,7.95a13.16,13.16,0,0,1-1.77.12l-.2-7.95a13.16,13.16,0,0,0,1.77-.12" transform="translate(1.67 17.41)"/><path class="cls-28" d="M721,288.73l.2,7.95a12.85,12.85,0,0,1-1.53-.08l-.2-8a12.83,12.83,0,0,0,1.53.09" transform="translate(1.67 17.41)"/><path class="cls-27" d="M719.45,288.64l.2,8a12.37,12.37,0,0,1-1.52-.29l-.2-8a10.74,10.74,0,0,0,1.52.29" transform="translate(1.67 17.41)"/><path class="cls-33" d="M717.93,288.35l.2,8c-.28-.08-.55-.16-.82-.26a7.61,7.61,0,0,1-1.35-.64l-.2-8a7.65,7.65,0,0,0,1.35.65c.27.09.54.18.82.25" transform="translate(1.67 17.41)"/></g></g></g><path class="cls-36" d="M732.21,214.8a6.73,6.73,0,0,1,1.35.65L780.44,244c3.23,2,3,5.51-.61,7.91l-51.76,34.77a13,13,0,0,1-11,1.42,7.65,7.65,0,0,1-1.35-.65l-46.87-28.56c-3.23-2-3-5.51.6-7.9l51.76-34.77A13,13,0,0,1,732.21,214.8Z" transform="translate(1.67 17.41)"/></g><g class="cls-25"><g class="cls-25"><g class="cls-43"><g class="cls-25"><path class="cls-27" d="M966,365.23l.2,7.95v.06l-.2-7.95v-.06" transform="translate(1.67 17.41)"/><path class="cls-28" d="M966,365.29l.2,7.95a3.86,3.86,0,0,1-.19,1.2l-.2-8a3.84,3.84,0,0,0,.19-1.19" transform="translate(1.67 17.41)"/><path class="cls-29" d="M965.78,366.48l.2,8a5.1,5.1,0,0,1-.65,1.3l-.2-7.95a4.85,4.85,0,0,0,.65-1.31" transform="translate(1.67 17.41)"/><path class="cls-30" d="M965.13,367.79l.2,7.95a7.48,7.48,0,0,1-1.93,1.86l-.2-8a7.63,7.63,0,0,0,1.93-1.85" transform="translate(1.67 17.41)"/><path class="cls-31" d="M963.2,369.64l.2,8-.09.06-.2-8,.09-.07" transform="translate(1.67 17.41)"/></g></g></g><g class="cls-25"><g class="cls-44"><g class="cls-25"><path class="cls-33" d="M852.16,376.69l.2,8a4.17,4.17,0,0,1-2.25-3.43l-.2-8a4.16,4.16,0,0,0,2.25,3.43" transform="translate(1.67 17.41)"/></g></g></g><polygon class="cls-34" points="964.78 387.11 964.98 395.07 913.22 429.84 913.02 421.88 964.78 387.11"/><polygon class="cls-33" points="900.7 422.66 900.9 430.61 854.03 402.05 853.83 394.1 900.7 422.66"/><g class="cls-25"><g class="cls-45"><g class="cls-25"><path class="cls-31" d="M911.35,404.48l.2,7.95a11.66,11.66,0,0,1-2.47,1.24l-.2-8a11.39,11.39,0,0,0,2.47-1.23" transform="translate(1.67 17.41)"/><path class="cls-30" d="M908.88,405.71l.2,8a13.72,13.72,0,0,1-2.86.69l-.19-7.95a13.81,13.81,0,0,0,2.85-.7" transform="translate(1.67 17.41)"/><path class="cls-29" d="M906,406.41l.19,7.95a13.16,13.16,0,0,1-1.77.12l-.2-8a13.42,13.42,0,0,0,1.78-.12" transform="translate(1.67 17.41)"/><path class="cls-28" d="M904.25,406.53l.2,8a12.85,12.85,0,0,1-1.53-.08l-.19-8a12.54,12.54,0,0,0,1.52.09" transform="translate(1.67 17.41)"/><path class="cls-27" d="M902.73,406.44l.19,8a12.37,12.37,0,0,1-1.52-.29l-.2-8a10.62,10.62,0,0,0,1.53.29" transform="translate(1.67 17.41)"/><path class="cls-33" d="M901.2,406.15l.2,8c-.28-.08-.55-.16-.82-.26a8.38,8.38,0,0,1-1.35-.64l-.2-8a7.65,7.65,0,0,0,1.35.65c.27.09.54.18.82.25" transform="translate(1.67 17.41)"/></g></g></g><path class="cls-36" d="M915.48,332.59a8,8,0,0,1,1.35.65l46.89,28.56c3.22,2,2.95,5.51-.61,7.91l-51.76,34.77a13.07,13.07,0,0,1-11,1.42,7.65,7.65,0,0,1-1.35-.65l-46.87-28.56c-3.23-2-3-5.51.61-7.9L904.53,334A13,13,0,0,1,915.48,332.59Z" transform="translate(1.67 17.41)"/></g><g class="cls-25"><g class="cls-25"><g class="cls-46"><g class="cls-25"><path class="cls-27" d="M779.58,402.61l.19,8v.06l-.2-7.95v-.07" transform="translate(1.67 17.41)"/><path class="cls-28" d="M779.58,402.68l.2,7.95a3.84,3.84,0,0,1-.19,1.19l-.2-7.95a3.84,3.84,0,0,0,.19-1.19" transform="translate(1.67 17.41)"/><path class="cls-29" d="M779.39,403.87l.2,7.95a4.89,4.89,0,0,1-.66,1.31l-.2-8a4.84,4.84,0,0,0,.66-1.3" transform="translate(1.67 17.41)"/><path class="cls-30" d="M778.73,405.17l.2,8A7.57,7.57,0,0,1,777,415l-.2-8a7.43,7.43,0,0,0,1.92-1.86" transform="translate(1.67 17.41)"/><path class="cls-31" d="M776.81,407l.2,8-.1.06-.2-8,.1-.06" transform="translate(1.67 17.41)"/></g></g></g><g class="cls-25"><g class="cls-47"><g class="cls-25"><path class="cls-33" d="M665.77,414.07,666,422a4.16,4.16,0,0,1-2.26-3.42l-.2-8a4.17,4.17,0,0,0,2.26,3.43" transform="translate(1.67 17.41)"/></g></g></g><polygon class="cls-34" points="778.38 424.5 778.58 432.45 726.82 467.22 726.62 459.27 778.38 424.5"/><polygon class="cls-33" points="714.31 460.04 714.51 467.99 667.64 439.43 667.44 431.48 714.31 460.04"/><g class="cls-25"><g class="cls-48"><g class="cls-25"><path class="cls-31" d="M725,441.86l.2,8a11.55,11.55,0,0,1-2.46,1.23l-.2-8a10.89,10.89,0,0,0,2.46-1.23" transform="translate(1.67 17.41)"/><path class="cls-30" d="M722.49,443.09l.2,8a13.88,13.88,0,0,1-2.86.69l-.2-7.95a13.28,13.28,0,0,0,2.86-.7" transform="translate(1.67 17.41)"/><path class="cls-29" d="M719.63,443.79l.2,7.95a13.16,13.16,0,0,1-1.77.12l-.2-7.95a13.16,13.16,0,0,0,1.77-.12" transform="translate(1.67 17.41)"/><path class="cls-28" d="M717.86,443.91l.2,7.95a11,11,0,0,1-1.52-.08l-.2-8a12.79,12.79,0,0,0,1.52.09" transform="translate(1.67 17.41)"/><path class="cls-27" d="M716.34,443.82l.2,8a10.48,10.48,0,0,1-1.52-.29l-.2-7.95a10.73,10.73,0,0,0,1.52.28" transform="translate(1.67 17.41)"/><path class="cls-33" d="M714.82,443.54l.2,7.95a7.81,7.81,0,0,1-.82-.26,7.09,7.09,0,0,1-1.36-.65l-.2-7.95a7.74,7.74,0,0,0,1.36.65c.27.1.54.18.82.26" transform="translate(1.67 17.41)"/></g></g></g><path class="cls-36" d="M729.1,370a7.2,7.2,0,0,1,1.34.64l46.88,28.56c3.23,2,3,5.52-.61,7.91L725,441.86a13,13,0,0,1-11,1.42,7.74,7.74,0,0,1-1.36-.65l-46.87-28.56c-3.24-2-3-5.51.6-7.91l51.77-34.76A13,13,0,0,1,729.1,370Z" transform="translate(1.67 17.41)"/></g><g class="cls-25"><g class="cls-25"><g class="cls-49"><g class="cls-25"><path class="cls-27" d="M782.69,529.39l.2,8v.06l-.2-8v-.06" transform="translate(1.67 17.41)"/><path class="cls-28" d="M782.69,529.45l.2,8a3.82,3.82,0,0,1-.18,1.19l-.2-8a3.51,3.51,0,0,0,.18-1.19" transform="translate(1.67 17.41)"/><path class="cls-29" d="M782.51,530.64l.2,8a4.69,4.69,0,0,1-.66,1.3l-.2-7.95a4.89,4.89,0,0,0,.66-1.31" transform="translate(1.67 17.41)"/><path class="cls-30" d="M781.85,532l.2,7.95a7.48,7.48,0,0,1-1.93,1.86l-.2-8a7.48,7.48,0,0,0,1.93-1.86" transform="translate(1.67 17.41)"/><path class="cls-31" d="M779.92,533.81l.2,8-.09.07-.2-8,.09-.06" transform="translate(1.67 17.41)"/></g></g></g><g class="cls-25"><g class="cls-50"><g class="cls-25"><path class="cls-33" d="M668.89,540.85l.2,8a4.17,4.17,0,0,1-2.26-3.43l-.2-8a4.17,4.17,0,0,0,2.26,3.42" transform="translate(1.67 17.41)"/></g></g></g><polygon class="cls-34" points="781.5 551.28 781.7 559.23 729.94 594 729.74 586.04 781.5 551.28"/><polygon class="cls-33" points="717.43 586.82 717.63 594.78 670.76 566.22 670.56 558.26 717.43 586.82"/><g class="cls-25"><g class="cls-51"><g class="cls-25"><path class="cls-31" d="M728.07,568.64l.2,8a11.13,11.13,0,0,1-2.46,1.24l-.2-8a11.58,11.58,0,0,0,2.46-1.24" transform="translate(1.67 17.41)"/><path class="cls-30" d="M725.61,569.88l.2,8a14,14,0,0,1-2.86.69l-.2-7.95a13.88,13.88,0,0,0,2.86-.69" transform="translate(1.67 17.41)"/><path class="cls-29" d="M722.75,570.57l.2,7.95a13.16,13.16,0,0,1-1.77.12l-.2-7.95a13.16,13.16,0,0,0,1.77-.12" transform="translate(1.67 17.41)"/><path class="cls-28" d="M721,570.69l.2,7.95a11,11,0,0,1-1.53-.08l-.2-8a12.83,12.83,0,0,0,1.53.09" transform="translate(1.67 17.41)"/><path class="cls-27" d="M719.45,570.6l.2,8a10.74,10.74,0,0,1-1.52-.29l-.2-7.95a10.73,10.73,0,0,0,1.52.28" transform="translate(1.67 17.41)"/><path class="cls-33" d="M717.93,570.32l.2,7.95a7.81,7.81,0,0,1-.82-.26,7.61,7.61,0,0,1-1.35-.64l-.19-8a7.89,7.89,0,0,0,1.34.64c.27.1.54.18.82.26" transform="translate(1.67 17.41)"/></g></g></g><path class="cls-36" d="M732.21,496.76a7.32,7.32,0,0,1,1.35.65L780.44,526c3.23,2,3,5.5-.61,7.9l-51.76,34.77a13,13,0,0,1-11,1.42,7.89,7.89,0,0,1-1.34-.64l-46.88-28.57c-3.24-2-3-5.5.61-7.9l51.75-34.77A13,13,0,0,1,732.21,496.76Z" transform="translate(1.67 17.41)"/></g><g class="cls-25"><g class="cls-25"><g class="cls-52"><g class="cls-25"><path class="cls-27" d="M1132.61,438.07l.2,7.95v.06l-.2-7.95v-.06" transform="translate(1.67 17.41)"/><path class="cls-28" d="M1132.61,438.13l.2,7.95a3.74,3.74,0,0,1-.18,1.19l-.2-7.95a3.55,3.55,0,0,0,.18-1.19" transform="translate(1.67 17.41)"/><path class="cls-29" d="M1132.43,439.32l.2,7.95a4.89,4.89,0,0,1-.66,1.31l-.2-7.95a4.89,4.89,0,0,0,.66-1.31" transform="translate(1.67 17.41)"/><path class="cls-30" d="M1131.77,440.63l.2,7.95a7.48,7.48,0,0,1-1.93,1.86l-.2-7.95a7.65,7.65,0,0,0,1.93-1.86" transform="translate(1.67 17.41)"/><path class="cls-31" d="M1129.84,442.49l.2,7.95-.09.06-.2-7.95.09-.06" transform="translate(1.67 17.41)"/></g></g></g><g class="cls-25"><g class="cls-53"><g class="cls-25"><path class="cls-33" d="M1018.81,449.53l.2,8a4.17,4.17,0,0,1-2.26-3.43l-.2-8a4.17,4.17,0,0,0,2.26,3.43" transform="translate(1.67 17.41)"/></g></g></g><polygon class="cls-34" points="1131.42 459.95 1131.62 467.91 1079.86 502.68 1079.66 494.72 1131.42 459.95"/><polygon class="cls-33" points="1067.36 495.5 1067.55 503.45 1020.68 474.89 1020.48 466.94 1067.36 495.5"/><g class="cls-25"><g class="cls-54"><g class="cls-25"><path class="cls-31" d="M1078,477.32l.2,7.95a11.42,11.42,0,0,1-2.47,1.24l-.2-8a11.39,11.39,0,0,0,2.47-1.23" transform="translate(1.67 17.41)"/><path class="cls-30" d="M1075.52,478.55l.2,8a13.79,13.79,0,0,1-2.85.69l-.2-7.95a13.19,13.19,0,0,0,2.85-.7" transform="translate(1.67 17.41)"/><path class="cls-29" d="M1072.67,479.25l.2,7.95a13.27,13.27,0,0,1-1.77.12l-.2-7.95a13.27,13.27,0,0,0,1.77-.12" transform="translate(1.67 17.41)"/><path class="cls-28" d="M1070.9,479.37l.2,7.95c-.52,0-1,0-1.53-.08l-.2-8a12.83,12.83,0,0,0,1.53.09" transform="translate(1.67 17.41)"/><path class="cls-27" d="M1069.37,479.28l.2,8a12.37,12.37,0,0,1-1.52-.29l-.2-8a10.74,10.74,0,0,0,1.52.29" transform="translate(1.67 17.41)"/><path class="cls-33" d="M1067.85,479l.2,8c-.28-.08-.55-.16-.81-.26a8.1,8.1,0,0,1-1.36-.64l-.19-8a7,7,0,0,0,1.35.65c.26.09.53.18.81.25" transform="translate(1.67 17.41)"/></g></g></g><path class="cls-36" d="M1082.13,405.44a8,8,0,0,1,1.35.64l46.88,28.57c3.23,2,3,5.5-.61,7.9L1078,477.32a13,13,0,0,1-11,1.42,7,7,0,0,1-1.35-.65l-46.88-28.56c-3.24-2-3-5.51.61-7.9l51.75-34.77A13,13,0,0,1,1082.13,405.44Z" transform="translate(1.67 17.41)"/></g><g class="cls-25"><g class="cls-25"><g class="cls-55"><g class="cls-25"><path class="cls-27" d="M1191.31,325.69l.2,8v.06l-.2-8v-.06" transform="translate(1.67 17.41)"/><path class="cls-28" d="M1191.31,325.75l.2,8a3.84,3.84,0,0,1-.19,1.19l-.2-8a3.75,3.75,0,0,0,.19-1.19" transform="translate(1.67 17.41)"/><path class="cls-29" d="M1191.12,326.94l.2,8a4.89,4.89,0,0,1-.66,1.31l-.2-8a4.89,4.89,0,0,0,.66-1.31" transform="translate(1.67 17.41)"/><path class="cls-30" d="M1190.46,328.25l.2,8a7.65,7.65,0,0,1-1.93,1.86l-.2-8a7.48,7.48,0,0,0,1.93-1.86" transform="translate(1.67 17.41)"/><path class="cls-31" d="M1188.53,330.11l.2,8-.08.05-.2-7.95.08-.06" transform="translate(1.67 17.41)"/></g></g></g><g class="cls-25"><g class="cls-56"><g class="cls-25"><path class="cls-33" d="M1077.5,337.15l.2,8a4.2,4.2,0,0,1-2.26-3.43l-.2-7.95a4.2,4.2,0,0,0,2.26,3.43" transform="translate(1.67 17.41)"/></g></g></g><polygon class="cls-34" points="1190.12 347.57 1190.32 355.53 1138.56 390.3 1138.36 382.35 1190.12 347.57"/><polygon class="cls-33" points="1126.05 383.12 1126.25 391.07 1079.37 362.51 1079.17 354.56 1126.05 383.12"/><g class="cls-25"><g class="cls-57"><g class="cls-25"><path class="cls-31" d="M1136.69,364.94l.2,8a11.55,11.55,0,0,1-2.46,1.23l-.2-8a11.55,11.55,0,0,0,2.46-1.23" transform="translate(1.67 17.41)"/><path class="cls-30" d="M1134.23,366.17l.2,8a14,14,0,0,1-2.86.69l-.2-7.95a13.43,13.43,0,0,0,2.86-.7" transform="translate(1.67 17.41)"/><path class="cls-29" d="M1131.37,366.87l.2,7.95a13.27,13.27,0,0,1-1.77.12l-.2-7.95a13.27,13.27,0,0,0,1.77-.12" transform="translate(1.67 17.41)"/><path class="cls-28" d="M1129.6,367l.2,7.95a12.85,12.85,0,0,1-1.53-.08l-.2-8a12.83,12.83,0,0,0,1.53.09" transform="translate(1.67 17.41)"/><path class="cls-27" d="M1128.07,366.9l.2,8a10.74,10.74,0,0,1-1.52-.29l-.2-8a10.74,10.74,0,0,0,1.52.29" transform="translate(1.67 17.41)"/><path class="cls-33" d="M1126.55,366.61l.2,8a7,7,0,0,1-.81-.26,6.82,6.82,0,0,1-1.36-.65l-.2-8a7.42,7.42,0,0,0,1.36.65,6.94,6.94,0,0,0,.81.25" transform="translate(1.67 17.41)"/></g></g></g><path class="cls-36" d="M1140.83,293.06a7.61,7.61,0,0,1,1.35.64l46.87,28.56c3.24,2,3,5.51-.6,7.91l-51.76,34.77a13,13,0,0,1-11,1.42,7.42,7.42,0,0,1-1.36-.65l-46.88-28.56c-3.23-2-3-5.51.6-7.9l51.76-34.77A13,13,0,0,1,1140.83,293.06Z" transform="translate(1.67 17.41)"/></g><g class="cls-25"><g class="cls-25"><g class="cls-58"><g class="cls-25"><path class="cls-27" d="M257.19,367.28l.19,8v.07l-.2-7.95v-.07" transform="translate(1.67 17.41)"/><path class="cls-28" d="M257.19,367.35l.2,7.95a4.54,4.54,0,0,1-.22,1.4l-.2-7.95a4.59,4.59,0,0,0,.22-1.4" transform="translate(1.67 17.41)"/><path class="cls-29" d="M257,368.75l.2,7.95a5.88,5.88,0,0,1-.78,1.54l-.2-7.95a6,6,0,0,0,.78-1.54" transform="translate(1.67 17.41)"/><path class="cls-30" d="M256.19,370.29l.2,7.95a8.82,8.82,0,0,1-2.27,2.19l-.2-7.95a9,9,0,0,0,2.27-2.19" transform="translate(1.67 17.41)"/><path class="cls-31" d="M253.92,372.48l.2,7.95-.1.07-.2-7.95.1-.07" transform="translate(1.67 17.41)"/></g></g></g><g class="cls-25"><g class="cls-59"><g class="cls-25"><path class="cls-33" d="M144.37,379.43l.2,8a4.9,4.9,0,0,1-2.65-4l-.2-8a4.88,4.88,0,0,0,2.65,4" transform="translate(1.67 17.41)"/></g></g></g><polygon class="cls-34" points="255.49 389.95 255.69 397.91 205.85 431.38 205.66 423.43 255.49 389.95"/><polygon class="cls-33" points="191.17 424.34 191.37 432.29 146.24 404.79 146.04 396.84 191.17 424.34"/><g class="cls-25"><g class="cls-60"><g class="cls-25"><path class="cls-31" d="M204,406l.2,8a14,14,0,0,1-2.9,1.45l-.2-8A13.33,13.33,0,0,0,204,406" transform="translate(1.67 17.41)"/><path class="cls-30" d="M201.09,407.47l.2,8a16.08,16.08,0,0,1-3.37.81l-.19-7.95a16.16,16.16,0,0,0,3.36-.82" transform="translate(1.67 17.41)"/><path class="cls-29" d="M197.73,408.29l.19,7.95a16.17,16.17,0,0,1-2.08.15l-.2-8a16.43,16.43,0,0,0,2.09-.14" transform="translate(1.67 17.41)"/><path class="cls-28" d="M195.64,408.43l.2,8a17.77,17.77,0,0,1-1.8-.1l-.2-8a15.27,15.27,0,0,0,1.8.1" transform="translate(1.67 17.41)"/><path class="cls-27" d="M193.84,408.33l.2,8a14.18,14.18,0,0,1-1.79-.34l-.2-8a11.34,11.34,0,0,0,1.79.34" transform="translate(1.67 17.41)"/><path class="cls-33" d="M192.05,408l.2,8a9.78,9.78,0,0,1-1-.31,8.94,8.94,0,0,1-1.59-.75l-.2-8a9,9,0,0,0,1.59.76q.47.17,1,.3" transform="translate(1.67 17.41)"/></g></g></g><path class="cls-36" d="M207.8,335a8.41,8.41,0,0,1,1.6.76l45.13,27.5c3.81,2.31,3.48,6.48-.71,9.3L204,406a15.33,15.33,0,0,1-12.9,1.67,9,9,0,0,1-1.59-.76l-45.13-27.5c-3.8-2.31-3.48-6.48.72-9.3l49.83-33.47A15.24,15.24,0,0,1,207.8,335Z" transform="translate(1.67 17.41)"/></g><g class="cls-25"><g class="cls-25"><g class="cls-61"><g class="cls-25"><path class="cls-27" d="M248.39,281.12l.2,7.95v.07l-.2-7.95v-.07" transform="translate(1.67 17.41)"/><path class="cls-28" d="M248.39,281.19l.2,7.95a4.22,4.22,0,0,1-.22,1.4l-.2-8a4.31,4.31,0,0,0,.22-1.4" transform="translate(1.67 17.41)"/><path class="cls-29" d="M248.17,282.59l.2,8a5.55,5.55,0,0,1-.77,1.54l-.2-8a5.5,5.5,0,0,0,.77-1.53" transform="translate(1.67 17.41)"/><path class="cls-30" d="M247.4,284.12l.2,8a9,9,0,0,1-2.27,2.18l-.2-7.95a8.82,8.82,0,0,0,2.27-2.19" transform="translate(1.67 17.41)"/><path class="cls-31" d="M245.13,286.31l.2,7.95-.11.08-.2-7.95.11-.08" transform="translate(1.67 17.41)"/></g></g></g><g class="cls-25"><g class="cls-62"><g class="cls-25"><path class="cls-33" d="M135.57,293.28l.2,8a4.91,4.91,0,0,1-2.65-4l-.2-7.95a4.92,4.92,0,0,0,2.65,4" transform="translate(1.67 17.41)"/></g></g></g><polygon class="cls-34" points="246.69 303.79 246.89 311.75 197.06 345.22 196.86 337.27 246.69 303.79"/><polygon class="cls-33" points="182.38 338.18 182.58 346.13 137.44 318.64 137.24 310.68 182.38 338.18"/><g class="cls-25"><g class="cls-63"><g class="cls-25"><path class="cls-31" d="M195.19,319.86l.2,7.95a13,13,0,0,1-2.91,1.46l-.2-7.95a13.9,13.9,0,0,0,2.91-1.46" transform="translate(1.67 17.41)"/><path class="cls-30" d="M192.28,321.32l.2,7.95a16,16,0,0,1-3.36.82l-.2-8a16,16,0,0,0,3.36-.81" transform="translate(1.67 17.41)"/><path class="cls-29" d="M188.92,322.13l.2,8a16.15,16.15,0,0,1-2.08.14l-.2-8a16.17,16.17,0,0,0,2.08-.15" transform="translate(1.67 17.41)"/><path class="cls-28" d="M186.84,322.28l.2,8a15,15,0,0,1-1.79-.1l-.2-7.95a17.41,17.41,0,0,0,1.79.1" transform="translate(1.67 17.41)"/><path class="cls-27" d="M185.05,322.18l.2,7.95a12.6,12.6,0,0,1-1.79-.34l-.2-8a14.18,14.18,0,0,0,1.79.34" transform="translate(1.67 17.41)"/><path class="cls-33" d="M183.26,321.84l.2,8q-.5-.14-1-.3a9,9,0,0,1-1.59-.76l-.2-8a9,9,0,0,0,1.59.77q.47.16,1,.3" transform="translate(1.67 17.41)"/></g></g></g><path class="cls-36" d="M199,248.83a9.31,9.31,0,0,1,1.59.76l45.12,27.5c3.81,2.31,3.49,6.48-.71,9.3l-49.83,33.47a15.31,15.31,0,0,1-12.89,1.68,9,9,0,0,1-1.59-.77l-45.14-27.49c-3.8-2.32-3.48-6.49.72-9.31l49.83-33.47A15.32,15.32,0,0,1,199,248.83Z" transform="translate(1.67 17.41)"/></g></g><g id="Layer_5" data-name="Layer 5"><g class="cls-25"><g class="cls-25"><g class="cls-64"><g class="cls-25"><path class="cls-27" d="M250.47,194.4l.19,8v0l-.19-8v0" transform="translate(1.67 17.41)"/><path class="cls-28" d="M250.47,194.45l.19,8a2.9,2.9,0,0,1-.14,1l-.2-8a3.2,3.2,0,0,0,.15-1" transform="translate(1.67 17.41)"/><path class="cls-29" d="M250.32,195.41l.2,8a4,4,0,0,1-.5,1l-.2-8a3.84,3.84,0,0,0,.5-1" transform="translate(1.67 17.41)"/><path class="cls-30" d="M249.82,196.4l.2,8a5.54,5.54,0,0,1-1.43,1.37l-.2-7.95a5.56,5.56,0,0,0,1.43-1.38" transform="translate(1.67 17.41)"/><path class="cls-31" d="M248.39,197.78l.2,7.95-.2.13-.2-8,.2-.13" transform="translate(1.67 17.41)"/></g></g></g><g class="cls-25"><g class="cls-65"><g class="cls-25"><path class="cls-33" d="M133.28,207.87l.2,8a4.2,4.2,0,0,1-2.43-3.39l-.2-7.95a4.19,4.19,0,0,0,2.43,3.38" transform="translate(1.67 17.41)"/></g></g></g><polygon class="cls-66" points="181.49 251.99 181.69 259.94 135.15 233.23 134.95 225.28 181.49 251.99"/><polygon class="cls-34" points="249.86 215.32 250.06 223.27 193.06 259.67 192.87 251.72 249.86 215.32"/><g class="cls-25"><g class="cls-67"><g class="cls-25"><path class="cls-31" d="M191.2,234.31l.2,7.95a8.65,8.65,0,0,1-1.78.87l-.2-8a9.16,9.16,0,0,0,1.78-.86" transform="translate(1.67 17.41)"/><path class="cls-30" d="M189.42,235.17l.2,8a11.53,11.53,0,0,1-2.45.58l-.2-8a11.54,11.54,0,0,0,2.45-.59" transform="translate(1.67 17.41)"/><path class="cls-29" d="M187,235.76l.2,8a12.29,12.29,0,0,1-1.71.12l-.2-8a13.9,13.9,0,0,0,1.71-.11" transform="translate(1.67 17.41)"/><path class="cls-28" d="M185.26,235.87l.2,8a13.64,13.64,0,0,1-1.57-.09l-.2-8a11.71,11.71,0,0,0,1.57.08" transform="translate(1.67 17.41)"/><path class="cls-27" d="M183.69,235.79l.2,8a12.35,12.35,0,0,1-1.65-.31l-.2-8a12.66,12.66,0,0,0,1.65.32" transform="translate(1.67 17.41)"/><path class="cls-33" d="M182,235.47l.2,8c-.31-.08-.61-.18-.91-.29a9.19,9.19,0,0,1-1.31-.6l-.2-8a8,8,0,0,0,1.32.61,8.57,8.57,0,0,0,.9.28" transform="translate(1.67 17.41)"/></g></g></g><path class="cls-36" d="M200.17,163.71a9.19,9.19,0,0,1,1.31.6L248,191c3.18,1.83,3.26,4.91.16,6.89l-57,36.4a12.27,12.27,0,0,1-10.06.88,8,8,0,0,1-1.32-.61l-46.54-26.71c-3.18-1.82-3.25-4.91-.16-6.88l57-36.4A12.23,12.23,0,0,1,200.17,163.71Z" transform="translate(1.67 17.41)"/></g><image width="1080" height="1080" transform="translate(175.55 342.5) rotate(-1.23) scale(0.06)" xlink:href="Isometric%20logos/Modern%20Isometric%20World%20Cities%20Day%20Instagram%20Post/5.png"/><image width="1080" height="1080" transform="translate(695.3 363.93) scale(0.07)" xlink:href="Isometric%20logos/Modern%20Isometric%20World%20Cities%20Day%20Instagram%20Post/7.png"/><image width="1080" height="1080" transform="translate(171.06 268.76) scale(0.06 0.05)" xlink:href="Isometric%20logos/Modern%20Isometric%20World%20Cities%20Day%20Instagram%20Post/6.png"/><image width="1080" height="1080" transform="translate(167.52 156.55) scale(0.07)" xlink:href="Isometric%20logos/15.png"/><image width="1080" height="1080" transform="translate(514.01 259.04) rotate(-1.67) scale(0.07)" xlink:href="Isometric%20logos/16.png"/><use transform="translate(704.28 210.62) scale(0.06)" xlink:href="#image"/><image width="1080" height="1080" transform="translate(702.42 518.47) scale(0.06)" xlink:href="Isometric%20logos/Modern%20Isometric%20World%20Cities%20Day%20Instagram%20Post/10.png"/><use transform="translate(877.75 341.32) scale(0.07)" xlink:href="#image-2"/><image width="1080" height="1080" transform="translate(1043.27 409.34) rotate(-0.59) scale(0.08)" xlink:href="Isometric%20logos/17.png"/><use transform="translate(1112.87 291.6) scale(0.06)" xlink:href="#image"/><g class="cls-25"><g class="cls-25"><g class="cls-68"><g class="cls-25"><path class="cls-33" d="M13.47,440.65l.2,8a4.17,4.17,0,0,1-2.43-3.38l-.2-8a4.21,4.21,0,0,0,2.43,3.38" transform="translate(1.67 17.41)"/></g></g></g><g class="cls-25"><g class="cls-69"><g class="cls-25"><path class="cls-27" d="M118.22,434.66l.2,8v.05l-.2-8v0" transform="translate(1.67 17.41)"/><path class="cls-28" d="M118.22,434.71l.2,8a3.2,3.2,0,0,1-.15,1l-.2-8a3.15,3.15,0,0,0,.15-1" transform="translate(1.67 17.41)"/><path class="cls-29" d="M118.07,435.67l.2,8a3.69,3.69,0,0,1-.5,1l-.2-8a3.55,3.55,0,0,0,.5-1" transform="translate(1.67 17.41)"/><path class="cls-30" d="M117.57,436.66l.2,8a5.54,5.54,0,0,1-1.43,1.37l-.2-7.95a5.56,5.56,0,0,0,1.43-1.38" transform="translate(1.67 17.41)"/><path class="cls-31" d="M116.14,438l.2,7.95-.2.14-.2-8,.2-.13" transform="translate(1.67 17.41)"/></g></g></g><polygon class="cls-66" points="61.31 484.54 61.51 492.5 15.34 466.01 15.14 458.05 61.31 484.54"/><polygon class="cls-34" points="117.61 455.58 117.81 463.53 72.89 492.22 72.69 484.27 117.61 455.58"/><g class="cls-25"><g class="cls-70"><g class="cls-25"><path class="cls-31" d="M71,466.86l.2,8a9.16,9.16,0,0,1-1.78.86l-.2-7.95a8.65,8.65,0,0,0,1.78-.87" transform="translate(1.67 17.41)"/><path class="cls-30" d="M69.24,467.73l.2,7.95a11.78,11.78,0,0,1-2.46.59l-.2-7.95a12.27,12.27,0,0,0,2.46-.59" transform="translate(1.67 17.41)"/><path class="cls-29" d="M66.78,468.32l.2,7.95a13.73,13.73,0,0,1-1.7.11l-.2-7.95a13.73,13.73,0,0,0,1.7-.11" transform="translate(1.67 17.41)"/><path class="cls-28" d="M65.08,468.43l.2,7.95a11.71,11.71,0,0,1-1.57-.08l-.2-8a13.64,13.64,0,0,0,1.57.09" transform="translate(1.67 17.41)"/><path class="cls-27" d="M63.51,468.34l.2,8a12.66,12.66,0,0,1-1.65-.32l-.2-8a12.65,12.65,0,0,0,1.65.31" transform="translate(1.67 17.41)"/><path class="cls-33" d="M61.86,468l.2,8a8.57,8.57,0,0,1-.9-.28,8.25,8.25,0,0,1-1.31-.61l-.2-7.95a9.23,9.23,0,0,0,1.31.61c.3.1.6.2.9.28" transform="translate(1.67 17.41)"/></g></g></g><path class="cls-36" d="M68.29,404.18a8.86,8.86,0,0,1,1.32.61l46.17,26.49c3.19,1.83,3.26,4.91.16,6.89L71,466.86a12.23,12.23,0,0,1-10.06.89,9.23,9.23,0,0,1-1.31-.61L13.47,440.65c-3.18-1.83-3.24-4.91-.15-6.89l44.92-28.69A12.21,12.21,0,0,1,68.29,404.18Z" transform="translate(1.67 17.41)"/></g><use transform="translate(373.97 229.64) scale(0.06)" xlink:href="#image-3"/><g class="cls-25"><g class="cls-25"><g class="cls-71"><g class="cls-25"><path class="cls-27" d="M1038.39,268.43l.2,7.95v.06l-.2-7.95v-.06" transform="translate(1.67 17.41)"/><path class="cls-28" d="M1038.39,268.49l.2,7.95a3.74,3.74,0,0,1-.18,1.19l-.2-7.95a3.82,3.82,0,0,0,.18-1.19" transform="translate(1.67 17.41)"/><path class="cls-29" d="M1038.21,269.68l.2,7.95a4.89,4.89,0,0,1-.66,1.31l-.2-7.95a4.89,4.89,0,0,0,.66-1.31" transform="translate(1.67 17.41)"/><path class="cls-30" d="M1037.55,271l.2,7.95a7.48,7.48,0,0,1-1.93,1.86l-.2-8a7.63,7.63,0,0,0,1.93-1.85" transform="translate(1.67 17.41)"/><path class="cls-31" d="M1035.62,272.84l.2,8-.09.06-.2-7.95.09-.07" transform="translate(1.67 17.41)"/></g></g></g><g class="cls-25"><g class="cls-72"><g class="cls-25"><path class="cls-33" d="M924.58,279.89l.2,7.95a4.15,4.15,0,0,1-2.25-3.42l-.2-8a4.18,4.18,0,0,0,2.25,3.43" transform="translate(1.67 17.41)"/></g></g></g><polygon class="cls-34" points="1037.2 290.31 1037.39 298.27 985.64 333.04 985.44 325.08 1037.2 290.31"/><polygon class="cls-33" points="973.13 325.86 973.33 333.81 926.45 305.25 926.25 297.29 973.13 325.86"/><g class="cls-25"><g class="cls-73"><g class="cls-25"><path class="cls-31" d="M983.77,307.67l.2,8a11.66,11.66,0,0,1-2.47,1.24l-.2-8a11,11,0,0,0,2.47-1.24" transform="translate(1.67 17.41)"/><path class="cls-30" d="M981.3,308.91l.2,8a13.79,13.79,0,0,1-2.85.69l-.2-7.95a13.81,13.81,0,0,0,2.85-.7" transform="translate(1.67 17.41)"/><path class="cls-29" d="M978.45,309.61l.2,7.95a13.27,13.27,0,0,1-1.77.12l-.2-7.95a17.74,17.74,0,0,0,1.77-.12" transform="translate(1.67 17.41)"/><path class="cls-28" d="M976.68,309.73l.2,7.95a12.83,12.83,0,0,1-1.53-.09l-.2-7.95a12.83,12.83,0,0,0,1.53.09" transform="translate(1.67 17.41)"/><path class="cls-27" d="M975.15,309.64l.2,7.95a10.73,10.73,0,0,1-1.52-.28l-.2-8a10.74,10.74,0,0,0,1.52.29" transform="translate(1.67 17.41)"/><path class="cls-33" d="M973.63,309.35l.2,8c-.28-.08-.56-.16-.82-.26a7.32,7.32,0,0,1-1.35-.65l-.2-7.95a7.29,7.29,0,0,0,1.35.64,7.13,7.13,0,0,0,.82.26" transform="translate(1.67 17.41)"/></g></g></g><path class="cls-36" d="M987.91,235.8a7.29,7.29,0,0,1,1.35.64L1036.14,265c3.23,2,3,5.51-.61,7.91l-51.76,34.76a13,13,0,0,1-11,1.42,7.29,7.29,0,0,1-1.35-.64l-46.88-28.56c-3.23-2-3-5.51.61-7.91L977,237.22A13,13,0,0,1,987.91,235.8Z" transform="translate(1.67 17.41)"/></g><g class="cls-25"><g class="cls-25"><g class="cls-74"><g class="cls-25"><path class="cls-27" d="M1191.31,209.06l.2,8v.06l-.2-8v-.07" transform="translate(1.67 17.41)"/><path class="cls-28" d="M1191.31,209.13l.2,8a3.84,3.84,0,0,1-.19,1.19l-.2-8a3.84,3.84,0,0,0,.19-1.19" transform="translate(1.67 17.41)"/><path class="cls-29" d="M1191.12,210.32l.2,8a4.89,4.89,0,0,1-.66,1.31l-.19-8a5.16,5.16,0,0,0,.65-1.31" transform="translate(1.67 17.41)"/><path class="cls-30" d="M1190.47,211.63l.19,8a7.48,7.48,0,0,1-1.93,1.86l-.2-7.95a7.54,7.54,0,0,0,1.94-1.86" transform="translate(1.67 17.41)"/><path class="cls-31" d="M1188.53,213.49l.2,7.95-.08.06-.2-7.95.08-.06" transform="translate(1.67 17.41)"/></g></g></g><g class="cls-25"><g class="cls-75"><g class="cls-25"><path class="cls-33" d="M1077.5,220.53l.2,7.95a4.2,4.2,0,0,1-2.26-3.43l-.2-8a4.2,4.2,0,0,0,2.26,3.43" transform="translate(1.67 17.41)"/></g></g></g><polygon class="cls-34" points="1190.12 230.95 1190.32 238.91 1138.56 273.67 1138.36 265.72 1190.12 230.95"/><polygon class="cls-33" points="1126.05 266.49 1126.25 274.45 1079.37 245.89 1079.17 237.93 1126.05 266.49"/><g class="cls-25"><g class="cls-76"><g class="cls-25"><path class="cls-31" d="M1136.69,248.31l.2,8a11.55,11.55,0,0,1-2.46,1.23l-.2-8a11.1,11.1,0,0,0,2.46-1.23" transform="translate(1.67 17.41)"/><path class="cls-30" d="M1134.23,249.54l.2,8a13.88,13.88,0,0,1-2.86.69l-.2-7.95a13.14,13.14,0,0,0,2.86-.7" transform="translate(1.67 17.41)"/><path class="cls-29" d="M1131.37,250.24l.2,7.95a15.22,15.22,0,0,1-1.78.13l-.2-8a13.31,13.31,0,0,0,1.78-.12" transform="translate(1.67 17.41)"/><path class="cls-28" d="M1129.59,250.36l.2,8a12.66,12.66,0,0,1-1.52-.09l-.2-8c.5.05,1,.08,1.52.08" transform="translate(1.67 17.41)"/><path class="cls-27" d="M1128.07,250.28l.2,8a10.62,10.62,0,0,1-1.53-.29l-.2-7.95a12.18,12.18,0,0,0,1.53.29" transform="translate(1.67 17.41)"/><path class="cls-33" d="M1126.54,250l.2,7.95a8.88,8.88,0,0,1-2.16-.9l-.2-8a8,8,0,0,0,1.35.64c.26.1.53.18.81.26" transform="translate(1.67 17.41)"/></g></g></g><path class="cls-36" d="M1140.82,176.43a7.42,7.42,0,0,1,1.36.65l46.87,28.56c3.24,2,3,5.5-.6,7.91l-51.76,34.76a13,13,0,0,1-11,1.42,8,8,0,0,1-1.35-.64l-46.88-28.56c-3.23-2-3-5.52.61-7.91l51.75-34.77A13,13,0,0,1,1140.82,176.43Z" transform="translate(1.67 17.41)"/></g><use transform="translate(1108.04 180.24) scale(0.07)" xlink:href="#image-2"/><g class="cls-25"><g class="cls-25"><g class="cls-77"><g class="cls-25"><path class="cls-27" d="M123.41,519.52l.2,8v0l-.2-7.95v-.05" transform="translate(1.67 17.41)"/><path class="cls-28" d="M123.41,519.57l.2,7.95a3.2,3.2,0,0,1-.15,1l-.2-8a3.2,3.2,0,0,0,.15-1" transform="translate(1.67 17.41)"/><path class="cls-29" d="M123.26,520.53l.2,8a3.55,3.55,0,0,1-.5,1l-.2-8a3.69,3.69,0,0,0,.5-1" transform="translate(1.67 17.41)"/><path class="cls-30" d="M122.76,521.52l.2,8a5.56,5.56,0,0,1-1.43,1.38l-.2-8a5.54,5.54,0,0,0,1.43-1.37" transform="translate(1.67 17.41)"/><path class="cls-31" d="M121.33,522.89l.2,8-.2.13-.2-8,.2-.14" transform="translate(1.67 17.41)"/></g></g></g><g class="cls-25"><g class="cls-78"><g class="cls-25"><path class="cls-33" d="M4.64,534.46l.2,8A4.2,4.2,0,0,1,2.4,539l-.2-8a4.19,4.19,0,0,0,2.44,3.38" transform="translate(1.67 17.41)"/></g></g></g><polygon class="cls-66" points="52.48 578.36 52.68 586.32 6.5 559.82 6.31 551.87 52.48 578.36"/><polygon class="cls-34" points="122.8 540.43 123 548.39 64.04 586.04 63.84 578.08 122.8 540.43"/><g class="cls-25"><g class="cls-79"><g class="cls-25"><path class="cls-31" d="M62.17,560.68l.2,8a8.65,8.65,0,0,1-1.78.87l-.2-8a9.8,9.8,0,0,0,1.78-.87" transform="translate(1.67 17.41)"/><path class="cls-30" d="M60.39,561.55l.2,8a12.18,12.18,0,0,1-2.45.59l-.2-8a12.17,12.17,0,0,0,2.45-.58" transform="translate(1.67 17.41)"/><path class="cls-29" d="M57.94,562.13l.2,8a13.73,13.73,0,0,1-1.7.11l-.2-8a12,12,0,0,0,1.7-.12" transform="translate(1.67 17.41)"/><path class="cls-28" d="M56.24,562.25l.2,8a13.64,13.64,0,0,1-1.57-.09l-.2-8a13.64,13.64,0,0,0,1.57.09" transform="translate(1.67 17.41)"/><path class="cls-27" d="M54.67,562.16l.2,8a11,11,0,0,1-1.64-.31l-.2-7.95a12.5,12.5,0,0,0,1.64.31" transform="translate(1.67 17.41)"/><path class="cls-33" d="M53,561.85l.2,7.95c-.31-.08-.61-.18-.9-.28a8.86,8.86,0,0,1-1.32-.61l-.2-8a8,8,0,0,0,1.32.61c.29.11.59.2.9.29" transform="translate(1.67 17.41)"/></g></g></g><path class="cls-36" d="M73.49,489a8,8,0,0,1,1.32.61L121,516.14c3.18,1.82,3.25,4.91.15,6.89l-59,37.65a12.19,12.19,0,0,1-10,.88,8,8,0,0,1-1.32-.61L4.64,534.46c-3.19-1.82-3.26-4.91-.16-6.89l59-37.65A12.21,12.21,0,0,1,73.49,489Z" transform="translate(1.67 17.41)"/></g><use transform="translate(36.56 489.54) scale(0.06)" xlink:href="#image"/><use transform="translate(42.86 394.22) scale(0.06)" xlink:href="#image-3"/><g class="cls-25"><g class="cls-25"><g class="cls-80"><g class="cls-25"><path class="cls-27" d="M572.69,37.43l.2,8v.06l-.2-8v-.06" transform="translate(1.67 17.41)"/><path class="cls-28" d="M572.69,37.49l.2,8a4.14,4.14,0,0,1-.18,1.19l-.2-8a3.84,3.84,0,0,0,.18-1.2" transform="translate(1.67 17.41)"/><path class="cls-29" d="M572.51,38.69l.2,8a4.89,4.89,0,0,1-.66,1.31l-.2-8a4.69,4.69,0,0,0,.66-1.3" transform="translate(1.67 17.41)"/><path class="cls-30" d="M571.85,40l.2,8a7.65,7.65,0,0,1-1.93,1.86l-.2-8A7.65,7.65,0,0,0,571.85,40" transform="translate(1.67 17.41)"/><path class="cls-31" d="M569.92,41.85l.2,8-.09,0-.2-8,.09-.06" transform="translate(1.67 17.41)"/></g></g></g><g class="cls-25"><g class="cls-81"><g class="cls-25"><path class="cls-33" d="M458.88,48.9l.2,8a4.16,4.16,0,0,1-2.25-3.43l-.2-8a4.21,4.21,0,0,0,2.25,3.44" transform="translate(1.67 17.41)"/></g></g></g><polygon class="cls-34" points="571.5 59.32 571.7 67.27 519.94 102.04 519.74 94.09 571.5 59.32"/><polygon class="cls-33" points="507.43 94.86 507.63 102.82 460.75 74.26 460.55 66.3 507.43 94.86"/><g class="cls-25"><g class="cls-82"><g class="cls-25"><path class="cls-31" d="M518.07,76.68l.2,8a11.55,11.55,0,0,1-2.46,1.23l-.2-8a10.89,10.89,0,0,0,2.46-1.23" transform="translate(1.67 17.41)"/><path class="cls-30" d="M515.61,77.91l.2,8a13.12,13.12,0,0,1-2.86.69l-.2-8a13.14,13.14,0,0,0,2.86-.7" transform="translate(1.67 17.41)"/><path class="cls-29" d="M512.75,78.61l.2,8a15.22,15.22,0,0,1-1.78.13l-.19-8a13.27,13.27,0,0,0,1.77-.12" transform="translate(1.67 17.41)"/><path class="cls-28" d="M511,78.73l.19,8a12.79,12.79,0,0,1-1.52-.09l-.2-7.95c.5,0,1,.08,1.53.08" transform="translate(1.67 17.41)"/><path class="cls-27" d="M509.45,78.65l.2,7.95a10.62,10.62,0,0,1-1.53-.29l-.2-8a12.18,12.18,0,0,0,1.53.29" transform="translate(1.67 17.41)"/><path class="cls-33" d="M507.92,78.36l.2,8a7,7,0,0,1-.81-.26,7.29,7.29,0,0,1-1.35-.64l-.2-8a8,8,0,0,0,1.35.64c.26.1.53.18.81.26" transform="translate(1.67 17.41)"/></g></g></g><path class="cls-36" d="M522.2,4.8a7.74,7.74,0,0,1,1.36.65L570.44,34c3.23,2,2.95,5.51-.61,7.91L518.07,76.68a13,13,0,0,1-11,1.42,8,8,0,0,1-1.35-.64L458.88,48.9c-3.23-2-3-5.52.61-7.91L511.25,6.22A13,13,0,0,1,522.2,4.8Z" transform="translate(1.67 17.41)"/></g><g class="cls-25"><g class="cls-25"><g class="cls-83"><g class="cls-25"><path class="cls-27" d="M860.56,33.61l.2,8v.06l-.2-7.95v-.06" transform="translate(1.67 17.41)"/><path class="cls-28" d="M860.56,33.67l.2,7.95a3.75,3.75,0,0,1-.19,1.19l-.19-8a4.14,4.14,0,0,0,.18-1.19" transform="translate(1.67 17.41)"/><path class="cls-29" d="M860.38,34.86l.19,8a4.85,4.85,0,0,1-.65,1.31l-.2-7.95a4.89,4.89,0,0,0,.66-1.31" transform="translate(1.67 17.41)"/><path class="cls-30" d="M859.72,36.17l.2,7.95A7.3,7.3,0,0,1,858,46l-.2-7.95a7.63,7.63,0,0,0,1.93-1.85" transform="translate(1.67 17.41)"/><path class="cls-31" d="M857.79,38,858,46l-.09.07-.2-8,.09-.06" transform="translate(1.67 17.41)"/></g></g></g><g class="cls-25"><g class="cls-84"><g class="cls-25"><path class="cls-33" d="M746.75,45.07l.2,8a4.16,4.16,0,0,1-2.25-3.43l-.2-8a4.16,4.16,0,0,0,2.25,3.43" transform="translate(1.67 17.41)"/></g></g></g><polygon class="cls-34" points="859.37 55.49 859.57 63.44 807.81 98.22 807.61 90.26 859.37 55.49"/><polygon class="cls-33" points="795.29 91.03 795.49 98.99 748.62 70.43 748.42 62.47 795.29 91.03"/><g class="cls-25"><g class="cls-85"><g class="cls-25"><path class="cls-31" d="M805.94,72.85l.2,8A11.55,11.55,0,0,1,803.68,82l-.2-8a11.13,11.13,0,0,0,2.46-1.24" transform="translate(1.67 17.41)"/><path class="cls-30" d="M803.48,74.09l.2,8a13.43,13.43,0,0,1-2.86.7l-.2-8a14,14,0,0,0,2.86-.69" transform="translate(1.67 17.41)"/><path class="cls-29" d="M800.62,74.78l.2,8a13.42,13.42,0,0,1-1.78.12l-.2-8a13.42,13.42,0,0,0,1.78-.12" transform="translate(1.67 17.41)"/><path class="cls-28" d="M798.84,74.9l.2,8a12.79,12.79,0,0,1-1.52-.09l-.2-8a11,11,0,0,0,1.52.08" transform="translate(1.67 17.41)"/><path class="cls-27" d="M797.32,74.82l.2,8a10.62,10.62,0,0,1-1.53-.29l-.2-8a10.62,10.62,0,0,0,1.53.29" transform="translate(1.67 17.41)"/><path class="cls-33" d="M795.79,74.53l.2,8c-.28-.07-.55-.16-.81-.25a7.42,7.42,0,0,1-1.36-.65l-.19-8a8.88,8.88,0,0,0,2.16.9" transform="translate(1.67 17.41)"/></g></g></g><path class="cls-36" d="M810.07,1a8,8,0,0,1,1.35.65L858.3,30.18c3.24,2,3,5.51-.6,7.9L805.94,72.85a13,13,0,0,1-11,1.42,7,7,0,0,1-1.35-.64L746.75,45.07c-3.23-2-3-5.51.6-7.91L799.11,2.39A13.05,13.05,0,0,1,810.07,1Z" transform="translate(1.67 17.41)"/></g><image width="1080" height="1080" transform="translate(494.02 21.53) scale(0.05)" xlink:href="Isometric%20logos/Modern%20Isometric%20World%20Cities%20Day%20Instagram%20Post/13.png"/><image width="1080" height="1080" transform="translate(776.03) scale(0.07)" xlink:href="Isometric%20logos/Modern%20Isometric%20World%20Cities%20Day%20Instagram%20Post/14.png"/><image width="211" height="220" transform="translate(965.51 244.68) scale(0.28)" xlink:href="Isometric%20logos/Layer%202.png"/></g><g id="Layer_8" data-name="Layer 8"><text class="cls-86" transform="translate(25.73 534.86) rotate(30)">IMPO<tspan class="cls-87" x="22.74" y="0">R</tspan><tspan class="cls-88" x="28.5" y="0">TA</tspan><tspan x="38.75" y="0">TIONS </tspan><tspan x="-15.82" y="8" xml:space="preserve">        E</tspan><tspan class="cls-89" x="7.21" y="8">A</tspan><tspan class="cls-90" x="13.08" y="8">U</tspan><tspan x="19.31" y="8">X USES</tspan><tspan class="cls-91"><tspan x="-15.82" y="19" xml:space="preserve">         2 685 KM</tspan></tspan></text><text class="cls-92" transform="translate(51.44 566.26) rotate(30) scale(0.58)">3</text><text class="cls-92" transform="translate(51.32 571.57) rotate(30)"> </text><text class="cls-86" transform="translate(22.68 437.8) rotate(30)"><tspan xml:space="preserve">            </tspan><tspan class="cls-87" x="26.5" y="0">A</tspan><tspan x="32.41" y="0">CH</tspan><tspan class="cls-88" x="44.7" y="0">A</tspan><tspan x="50.42" y="0" xml:space="preserve">T   </tspan><tspan x="0" y="8" xml:space="preserve">             </tspan><tspan class="cls-89" x="28.7" y="8">D</tspan><tspan x="35.19" y="8">E</tspan><tspan class="cls-89" x="42.5" y="8">A</tspan><tspan class="cls-93" x="48.38" y="8">U</tspan><tspan class="cls-91"><tspan x="0" y="19" xml:space="preserve">         6 </tspan><tspan class="cls-87" x="24.74" y="19">03</tspan><tspan x="34.18" y="19">5 KM</tspan></tspan></text><text class="cls-92" transform="translate(62.1 477.11) rotate(30) scale(0.58)">3</text><text class="cls-92" transform="translate(61.98 482.43) rotate(30)"> </text><text class="cls-86" transform="translate(139.52 200.12) rotate(30)"><tspan xml:space="preserve">                 E</tspan><tspan class="cls-89" x="42.9" y="0">A</tspan><tspan class="cls-90" x="48.77" y="0">U</tspan><tspan x="55" y="0">X </tspan><tspan class="cls-94"><tspan x="0" y="8" xml:space="preserve">      SOUS</tspan><tspan class="cls-95" x="34.09" y="8">-</tspan><tspan x="37" y="8">TERRAINE</tspan></tspan><tspan class="cls-91"><tspan x="0" y="19" xml:space="preserve">         </tspan><tspan class="cls-96" x="18" y="19">3</tspan><tspan x="22.34" y="19">2 0</tspan><tspan class="cls-97" x="34" y="19">2</tspan><tspan class="cls-98" x="38.4" y="19">6 KM</tspan></tspan></text><text class="cls-92" transform="translate(182.9 241.72) rotate(30) scale(0.58)">3</text><text class="cls-92" transform="translate(182.78 247.03) rotate(30)"> </text><text class="cls-86" transform="translate(139.52 286.71) rotate(30)"><tspan xml:space="preserve">                 E</tspan><tspan class="cls-89" x="42.9" y="0">A</tspan><tspan class="cls-90" x="48.77" y="0">U</tspan><tspan x="55" y="0">X </tspan><tspan class="cls-94"><tspan x="0" y="8" xml:space="preserve">      SU</tspan><tspan class="cls-99" x="23.05" y="8">P</tspan><tspan class="cls-100" x="28.42" y="8">ERFICIELLES</tspan></tspan><tspan class="cls-91"><tspan x="0" y="19" xml:space="preserve">         </tspan><tspan class="cls-96" x="18" y="19">4</tspan><tspan x="23.11" y="19">5 6</tspan><tspan class="cls-87" x="34.23" y="19">6</tspan><tspan class="cls-93" x="38.89" y="19">7 KM</tspan></tspan></text><text class="cls-92" transform="translate(183.17 328.47) rotate(30) scale(0.58)">3</text><text class="cls-92" transform="translate(183.05 333.79) rotate(30)"> </text><text class="cls-86" transform="translate(148.18 374.41) rotate(30)"><tspan xml:space="preserve">         RESSOURCE</tspan><tspan class="cls-94"><tspan x="0" y="8" xml:space="preserve">          MON</tspan><tspan class="cls-101" x="40.25" y="8">T</tspan><tspan class="cls-99" x="44.5" y="8">A</tspan><tspan x="50.05" y="8">GNE</tspan></tspan><tspan class="cls-91"><tspan x="0" y="19" xml:space="preserve">           8 </tspan><tspan class="cls-102" x="28.99" y="19">2</tspan><tspan class="cls-103" x="33.19" y="19">4</tspan><tspan x="38.14" y="19">1 KM</tspan></tspan></text><text class="cls-92" transform="translate(189.61 414.88) rotate(30) scale(0.58)">3</text><text class="cls-92" transform="translate(189.49 420.19) rotate(30)"> </text><text class="cls-86" transform="translate(352.13 276.54) rotate(30)"><tspan xml:space="preserve">         </tspan><tspan class="cls-89" x="19.87" y="0">C</tspan><tspan x="25.57" y="0">A</tspan><tspan class="cls-102" x="31.56" y="0">P</tspan><tspan class="cls-88" x="37.13" y="0">T</tspan><tspan class="cls-87" x="41.66" y="0">A</tspan><tspan x="47.58" y="0">GE</tspan><tspan x="0" y="8" xml:space="preserve">           </tspan><tspan class="cls-89" x="24.29" y="8">D</tspan><tspan x="30.78" y="8">E</tspan><tspan class="cls-89" x="38.09" y="8">A</tspan><tspan class="cls-93" x="43.96" y="8">U</tspan><tspan class="cls-91"><tspan x="0" y="19" xml:space="preserve">       85 994 KM</tspan></tspan></text><text class="cls-92" transform="translate(392.8 316.57) rotate(30) scale(0.58)">3</text><text class="cls-92" transform="translate(392.68 321.88) rotate(30)"> </text><text class="cls-86" transform="translate(461.68 52.02) rotate(30)"><tspan xml:space="preserve">    </tspan><tspan class="cls-104" x="8.83" y="0">P</tspan><tspan class="cls-94" x="14.2" y="0">R</tspan><tspan class="cls-105" x="19.68" y="0">E</tspan><tspan class="cls-94" x="24.69" y="0">CI</tspan><tspan class="cls-104" x="32.53" y="0">P</tspan><tspan class="cls-94" x="37.9" y="0">I</tspan><tspan class="cls-106" x="40.29" y="0">TA</tspan><tspan class="cls-94" x="49.9" y="0">TIONS</tspan><tspan class="cls-91"><tspan x="0" y="11" xml:space="preserve">     1  </tspan><tspan class="cls-87" x="16.74" y="11">0</tspan><tspan x="21.87" y="11">38 1</tspan><tspan class="cls-107" x="35.98" y="11">7</tspan><tspan class="cls-98" x="40.02" y="11">4 KM</tspan></tspan></text><text class="cls-92" transform="translate(510.82 87.71) rotate(30) scale(0.58)">3</text><text class="cls-92" transform="translate(510.71 93.03) rotate(30)"> </text><text class="cls-86" transform="translate(758.02 45.01) rotate(30)"><tspan xml:space="preserve">          </tspan><tspan class="cls-104" x="22.08" y="0">E</tspan><tspan class="cls-108" x="27.03" y="0">V</tspan><tspan class="cls-94" x="32.22" y="0">AP</tspan><tspan class="cls-109" x="43.28" y="0">O</tspan><tspan class="cls-94" x="49.63" y="0">-</tspan><tspan class="cls-94"><tspan x="0" y="8" xml:space="preserve"> TRANS</tspan><tspan class="cls-99" x="28.48" y="8">P</tspan><tspan x="33.85" y="8">IR</tspan><tspan class="cls-101" x="41.72" y="8">A</tspan><tspan x="47.08" y="8">TION</tspan></tspan><tspan class="cls-91"><tspan x="0" y="19" xml:space="preserve">    519 087 KM</tspan></tspan></text><text class="cls-92" transform="translate(795.76 83.35) rotate(30) scale(0.58)">3</text><text class="cls-92" transform="translate(795.64 88.67) rotate(30)"> </text><text class="cls-86" transform="translate(495.64 309.07) rotate(30)"><tspan xml:space="preserve">      TRAITEMENT</tspan><tspan x="0" y="8" xml:space="preserve">         </tspan><tspan class="cls-89" x="19.87" y="8">D</tspan><tspan x="26.36" y="8">E</tspan><tspan class="cls-89" x="33.67" y="8">A</tspan><tspan class="cls-93" x="39.54" y="8">U</tspan><tspan class="cls-91"><tspan x="0" y="19" xml:space="preserve">       81 </tspan><tspan class="cls-89" x="23.73" y="19">5</tspan><tspan x="27.99" y="19">79 KM</tspan></tspan></text><text class="cls-92" transform="translate(533.96 347.74) rotate(30) scale(0.58)">3</text><text class="cls-92" transform="translate(533.84 353.06) rotate(30)"> </text><text class="cls-110" transform="translate(681.83 256.38) rotate(30)"><tspan xml:space="preserve">    </tspan><tspan class="cls-111" x="7.73" y="0">C</tspan><tspan x="12.71" y="0">ONSOMM</tspan><tspan class="cls-112" x="47.94" y="0">A</tspan><tspan x="52.94" y="0">TION</tspan><tspan class="cls-113"><tspan x="0" y="8" xml:space="preserve">         </tspan><tspan class="cls-89" x="19.87" y="8">D</tspan><tspan x="26.36" y="8">E</tspan><tspan class="cls-89" x="33.67" y="8">A</tspan><tspan class="cls-93" x="39.54" y="8">U</tspan></tspan><tspan class="cls-114"><tspan x="0" y="19" xml:space="preserve">       </tspan><tspan class="cls-87" x="14" y="19">4</tspan><tspan x="19.07" y="19">9 854 KM</tspan></tspan></text><text class="cls-92" transform="translate(722.78 296.58) rotate(30) scale(0.58)">3</text><text class="cls-92" transform="translate(722.67 301.9) rotate(30)"> </text><text class="cls-86" transform="translate(677.15 413.78) rotate(30)"><tspan xml:space="preserve">         </tspan><tspan class="cls-115" x="19.87" y="0">T</tspan><tspan x="24.58" y="0">URBINE</tspan><tspan x="0" y="8" xml:space="preserve">        ROGUEZ</tspan><tspan class="cls-91"><tspan x="0" y="19" xml:space="preserve">        9 223 KM</tspan></tspan></text><text class="cls-92" transform="translate(714.35 451.81) rotate(30) scale(0.58)">3</text><text class="cls-92" transform="translate(714.23 457.13) rotate(30)"> </text><text class="cls-86" transform="translate(678.76 539.11) rotate(30)"><tspan xml:space="preserve">         </tspan><tspan x="0" y="8" xml:space="preserve">        </tspan><tspan class="cls-87" x="17.66" y="8">P</tspan><tspan x="23.39" y="8">E</tspan><tspan class="cls-87" x="28.75" y="8">R</tspan><tspan class="cls-93" x="34.52" y="8">TES</tspan><tspan class="cls-91"><tspan x="0" y="19" xml:space="preserve">       30 916 KM</tspan></tspan></text><text class="cls-92" transform="translate(717.52 578.04) rotate(30) scale(0.58)">3</text><text class="cls-92" transform="translate(717.41 583.36) rotate(30)"> </text><text class="cls-86" transform="translate(938.78 279.78) rotate(30)"><tspan xml:space="preserve">  </tspan><tspan class="cls-116" x="4.42" y="0">ASSAINISSEMENT</tspan><tspan class="cls-116"><tspan x="0" y="8" xml:space="preserve">  NON</tspan><tspan class="cls-117" x="21.1" y="8">-</tspan><tspan class="cls-118" x="23.97" y="8">C</tspan><tspan class="cls-119" x="28.95" y="8">OLL</tspan><tspan class="cls-120" x="43.23" y="8">E</tspan><tspan class="cls-121" x="47.9" y="8">C</tspan><tspan x="52.93" y="8">TIF</tspan></tspan><tspan class="cls-91"><tspan x="0" y="19" xml:space="preserve">      5 4</tspan><tspan class="cls-96" x="23.54" y="19">4</tspan><tspan x="28.65" y="19">2 KM</tspan></tspan></text><text class="cls-92" transform="translate(973.46 316.36) rotate(30) scale(0.58)">3</text><text class="cls-92" transform="translate(973.34 321.67) rotate(30)"> </text><text class="cls-110" transform="translate(863.16 384) rotate(30)">ASSAINISSEMENT<tspan class="cls-114"><tspan x="0" y="11" xml:space="preserve">   </tspan><tspan class="cls-122" x="6" y="11">4</tspan><tspan x="11.23" y="11">8 390 KM</tspan></tspan></text><text class="cls-92" transform="translate(901.39 413.39) rotate(30) scale(0.58)">3</text><text class="cls-92" transform="translate(901.27 418.7) rotate(30)"> </text><text class="cls-86" transform="translate(1031.03 448.85) rotate(30)"><tspan xml:space="preserve">         MILIEU</tspan><tspan x="0" y="8" xml:space="preserve">      N</tspan><tspan class="cls-88" x="19.73" y="8">A</tspan><tspan class="cls-115" x="25.44" y="8">T</tspan><tspan x="30.15" y="8">UREL</tspan><tspan class="cls-91"><tspan x="0" y="19" xml:space="preserve">      56 631 KM</tspan></tspan></text><text class="cls-92" transform="translate(1067.35 486.37) rotate(30) scale(0.58)">3</text><text class="cls-92" transform="translate(1067.23 491.69) rotate(30)"> </text><text class="cls-86" transform="translate(1089.31 335.89) rotate(30)"><tspan xml:space="preserve">           </tspan><tspan class="cls-89" x="24.29" y="0">V</tspan><tspan x="30" y="0">ENTE</tspan><tspan x="0" y="8" xml:space="preserve">          </tspan><tspan class="cls-89" x="22.08" y="8">D</tspan><tspan x="28.57" y="8">E</tspan><tspan class="cls-89" x="35.88" y="8">A</tspan><tspan class="cls-93" x="41.75" y="8">U</tspan><tspan class="cls-91"><tspan x="0" y="19" xml:space="preserve">       6 </tspan><tspan class="cls-123" x="20.74" y="19">4</tspan><tspan class="cls-98" x="25.69" y="19">14 KM</tspan></tspan></text><text class="cls-92" transform="translate(1124.41 372.71) rotate(30) scale(0.58)">3</text><text class="cls-92" transform="translate(1124.3 378.03) rotate(30)"> </text><text class="cls-86" transform="translate(1086.1 218.72) rotate(30)"><tspan xml:space="preserve">      </tspan><tspan class="cls-124" x="13.25" y="0">E</tspan><tspan class="cls-125" x="18.54" y="0">X</tspan><tspan x="23.9" y="0">PO</tspan><tspan class="cls-87" x="36.45" y="0">R</tspan><tspan class="cls-88" x="42.22" y="0">TA</tspan><tspan x="52.46" y="0" xml:space="preserve">TION    </tspan><tspan class="cls-116"><tspan x="0" y="8" xml:space="preserve">   ASSAINISSEMENT</tspan></tspan><tspan class="cls-91"><tspan x="0" y="19" xml:space="preserve">         669 KM</tspan></tspan></text><text class="cls-92" transform="translate(1120.02 254.86) rotate(30) scale(0.58)">3</text><text class="cls-92" transform="translate(1119.9 260.17) rotate(30)"> </text></g></svg>