<?xml version="1.0" standalone="no"?>
<!DOCTYPE svg PUBLIC "-//W3C//DTD SVG 20010904//EN"
 "http://www.w3.org/TR/2001/REC-SVG-20010904/DTD/svg10.dtd">
<svg version="1.0" xmlns="http://www.w3.org/2000/svg"
 width="275.000000pt" height="275.000000pt" viewBox="0 0 275.000000 275.000000"
 preserveAspectRatio="xMidYMid meet">
<metadata>
Created by potrace 1.11, written by Peter Selinger 2001-2013
</metadata>
<g transform="translate(0.000000,275.000000) scale(0.100000,-0.100000)"
fill="#000000" stroke="none">
<path d="M1225 2743 c-561 -66 -1009 -479 -1131 -1041 -19 -86 -27 -340 -14
-412 4 -25 11 -63 14 -84 33 -211 161 -465 322 -637 88 -96 235 -215 289 -235
13 -5 15 48 15 469 0 371 3 476 13 479 6 2 90 3 185 3 l172 -2 0 362 0 361
178 -1 c97 -1 182 -2 187 -3 6 -1 10 -129 10 -360 l0 -357 80 0 80 0 2 -60 c1
-33 2 -126 2 -207 l1 -148 195 0 195 0 0 528 0 527 192 -1 c106 -1 198 -2 204
-3 18 -2 72 -160 89 -261 21 -122 25 -270 10 -365 -4 -22 -9 -53 -11 -70 -20
-123 -106 -324 -191 -444 -94 -132 -249 -269 -395 -349 -91 -51 -231 -101
-321 -116 -18 -3 -43 -8 -57 -11 -37 -8 -208 -13 -262 -7 l-47 4 0 80 c0 44
-1 81 -3 83 -5 5 -317 -218 -318 -226 0 -4 43 -37 95 -75 53 -38 122 -88 153
-111 31 -23 62 -43 67 -43 6 0 9 26 8 65 -1 35 2 67 8 70 5 4 67 7 137 7 153
1 262 18 402 64 406 135 725 469 840 880 39 139 45 189 44 369 -1 205 -38 372
-120 541 l-29 59 -320 0 -320 0 0 -522 c0 -288 -2 -523 -5 -524 -3 0 -27 -2
-53 -3 l-48 -2 1 171 c1 93 1 187 1 207 l-1 37 -75 -1 c-42 0 -78 1 -80 4 -2
2 -5 165 -6 361 l-2 357 -36 0 c-258 3 -612 1 -618 -3 -4 -3 -7 -165 -7 -361
l1 -356 -186 0 -186 0 0 -405 c0 -223 -3 -405 -6 -405 -9 0 -79 77 -126 140
-183 243 -264 577 -213 872 22 123 35 166 78 268 78 184 191 333 347 455 223
174 458 252 746 247 160 -2 358 -51 486 -120 l32 -17 -56 -58 c-42 -44 -51
-57 -37 -58 11 0 28 -2 39 -4 11 -2 40 -6 65 -9 25 -3 78 -10 118 -16 131 -18
162 -21 162 -13 1 4 -16 94 -37 200 l-37 191 -57 -61 -57 -62 -51 28 c-103 55
-257 107 -391 132 -40 7 -309 13 -355 8z"/>
</g>
</svg>
